<svg width="28" height="28" fill="none" xmlns="http://www.w3.org/2000/svg"><mask id="a" style="mask-type:alpha" maskUnits="userSpaceOnUse" x="0" y="0" width="28" height="28"><path fill="#D9D9D9" d="M0 0h28v28H0z"/></mask><g mask="url(#a)"><path d="M13.441 16.537 9.765 12.86a.594.594 0 0 1-.12-.17.533.533 0 0 1 .101-.574.494.494 0 0 1 .383-.157h7.745a.49.49 0 0 1 .382.16c.096.106.145.23.145.372 0 .035-.055.159-.164.37l-3.676 3.675a.744.744 0 0 1-.56.243.744.744 0 0 1-.56-.242Z" fill="#1D1D1B"/></g></svg>