<svg width="97" height="82" fill="none" xmlns="http://www.w3.org/2000/svg"><path d="M94.342 12.518c-5.539 2.939-9.865 5.877-12.98 8.815-3.116 2.766-4.847 6.568-5.193 11.408 5.885 1.037 10.817 3.543 14.798 7.518 3.98 3.976 5.97 8.642 5.97 14 0 5.704-1.99 10.543-5.97 14.519C86.987 72.926 82.054 75 76.169 75c-5.711 0-10.557-1.988-14.538-5.963-3.98-3.802-6.144-8.728-6.49-14.778-.865-15.383 2.25-26.444 9.346-33.185 3.288-3.63 6.75-6.654 10.384-9.074 3.462-2.593 6.75-4.407 9.865-5.444C87.332 5.519 89.842 5 92.265 5c.519 0 1.211.173 2.077.519.692.345 1.298.69 1.817 1.037 1.557 2.42.952 4.407-1.817 5.962Zm-55 0c-5.539 2.939-9.865 5.877-12.98 8.815-3.116 2.766-4.847 6.568-5.193 11.408 5.885 1.037 10.817 3.543 14.798 7.518 3.98 3.976 5.97 8.642 5.97 14 0 5.704-1.99 10.543-5.97 14.519C31.987 72.926 27.054 75 21.169 75c-5.711 0-10.557-1.988-14.538-5.963-3.98-3.802-6.144-8.728-6.49-14.778-.865-15.383 2.25-26.444 9.346-33.185 3.288-3.63 6.75-6.654 10.384-9.074 3.462-2.593 6.75-4.407 9.865-5.444C32.332 5.519 34.842 5 37.265 5c.519 0 1.211.173 2.077.519.692.345 1.298.69 1.817 1.037 1.558 2.42.952 4.407-1.817 5.962Z" fill="#EEC2CB"/></svg>