<svg width="40" height="41" fill="none" xmlns="http://www.w3.org/2000/svg"><path d="M18.491 4.817c-2.94.302-5.617 1.354-8.01 3.138-.775.584-2.449 2.252-3.02 3.02-1.52 2.03-2.499 4.246-2.93 6.596-.824 4.454.197 8.797 2.93 12.452.571.769 2.245 2.436 3.02 3.02 2.24 1.674 4.725 2.69 7.58 3.095.725.105 3.143.099 3.906 0 3.562-.492 6.75-2.073 9.173-4.546.775-.788.96-.997 1.452-1.65 1.6-2.11 2.645-4.693 3.045-7.505.105-.726.105-3.15 0-3.876-.356-2.485-1.23-4.842-2.522-6.767-2.529-3.778-6.417-6.226-10.933-6.897-.756-.11-2.94-.16-3.69-.08Zm2.08 5.74c.135.068.307.24.387.382l.148.252v8.754l2.707 2.166c2.03 1.624 2.731 2.215 2.811 2.381.056.123.105.363.105.541a1.07 1.07 0 0 1-1.089 1.065c-.166 0-.388-.043-.492-.092-.277-.136-5.95-4.7-6.097-4.91-.13-.172-.13-.246-.148-5.039l-.012-4.86.135-.24c.216-.388.708-.628 1.126-.56.105.012.29.086.418.16Z" fill="#559479"/></svg>