<svg width="40" height="41" fill="none" xmlns="http://www.w3.org/2000/svg"><path d="m27.722 9.43 7.706 4.663-7.716.03c-4.234.01-11.17.01-15.413 0l-7.706-.03 6.597-3.986c3.616-2.192 7.079-4.285 7.675-4.653a27.1 27.1 0 0 1 1.12-.668c.02-.01 3.504 2.082 7.737 4.643Zm-16.296 9.196c8.826 5.341 8.014 4.883 8.57 4.883.307 0 .616-.08.883-.23.226-.129 3.329-1.992 6.884-4.145 3.565-2.152 6.802-4.115 7.192-4.354l.72-.428.03 7.722c.02 7.702.02 7.722-.195 8.22-.257.578-1.038 1.306-1.613 1.505-.308.1-2.99.13-13.943.13-12.391 0-13.593-.01-13.932-.17-.576-.249-1.233-.877-1.49-1.425l-.247-.498V14.322l.34.19c.174.109 3.246 1.962 6.801 4.114Z" fill="#F4F4F4"/><path d="M11.426 18.626c8.826 5.341 8.014 4.883 8.57 4.883.307 0 .616-.08.883-.23.226-.129 3.329-1.992 6.884-4.145 3.565-2.152 6.802-4.115 7.192-4.354l.72-.428.03 7.722c.02 7.702.02 7.722-.195 8.22-.257.578-1.038 1.306-1.613 1.505-.308.1-2.99.13-13.943.13-12.391 0-13.593-.01-13.932-.17-.576-.249-1.233-.877-1.49-1.425l-.247-.498V14.322l.34.19c.174.109 3.246 1.962 6.801 4.114ZM27.722 9.43l7.706 4.663-7.716.03c-4.234.01-11.17.01-15.413 0l-7.706-.03 6.597-3.986c3.616-2.192 7.079-4.285 7.675-4.653a27.1 27.1 0 0 1 1.12-.668c.02-.01 3.504 2.082 7.737 4.643Z" fill="#559479"/></svg>