<svg width="60" height="60" fill="none" xmlns="http://www.w3.org/2000/svg"><path d="M30 56.875C15.175 56.875 3.125 44.825 3.125 30S15.175 3.125 30 3.125 56.875 15.175 56.875 30 44.825 56.875 30 56.875Zm0-50C17.25 6.875 6.875 17.25 6.875 30S17.25 53.125 30 53.125 53.125 42.75 53.125 30 42.75 6.875 30 6.875Z" fill="#E29AA8"/><path d="M22.502 54.375h-2.5a1.889 1.889 0 0 1-1.875-1.875c0-1.025.8-1.85 1.825-1.875-3.925-13.4-3.925-27.85 0-41.25A1.862 1.862 0 0 1 18.127 7.5c0-1.025.85-1.875 1.875-1.875h2.5c.6 0 1.175.3 1.525.775.35.5.45 1.125.25 1.7-4.7 14.125-4.7 29.675 0 43.825.2.575.1 1.2-.25 1.7-.35.45-.925.75-1.525.75Zm14.996 0c-.2 0-.4-.025-.6-.1-.975-.325-1.525-1.4-1.175-2.375 4.7-14.125 4.7-29.675 0-43.825-.325-.975.2-2.05 1.175-2.375 1-.325 2.05.2 2.375 1.175 4.975 14.9 4.975 31.3 0 46.175a1.86 1.86 0 0 1-1.775 1.325Z" fill="#E29AA8"/><path d="M30 43c-6.975 0-13.925-.975-20.625-2.95-.025 1-.85 1.825-1.875 1.825A1.889 1.889 0 0 1 5.625 40v-2.5c0-.6.3-1.175.775-1.525.5-.35 1.125-.45 1.7-.25 14.125 4.7 29.7 4.7 43.825 0 .575-.2 1.2-.1 1.7.25s.775.925.775 1.525V40c0 1.025-.85 1.875-1.875 1.875s-1.85-.8-1.875-1.825A73.24 73.24 0 0 1 30 43Zm22.501-18.625c-.2 0-.4-.025-.6-.1-14.125-4.7-29.7-4.7-43.825 0-1 .325-2.05-.2-2.375-1.175-.3-1 .225-2.05 1.2-2.375 14.9-4.975 31.3-4.975 46.175 0 .975.325 1.525 1.4 1.175 2.375-.225.775-.975 1.275-1.75 1.275Z" fill="#E29AA8"/></svg>