<svg width="40" height="40" fill="none" xmlns="http://www.w3.org/2000/svg"><path d="M18.945.047c-3.313.328-6.086 1.617-8.36 3.898a13.285 13.285 0 0 0-3.633 12.078c.196.953.54 2.008.946 2.875.172.367 2.812 5.196 5.875 10.735C19.593 40.179 19.483 40 19.999 40s.406.18 6.235-10.367c3.054-5.547 5.703-10.375 5.867-10.735 1.453-3.125 1.601-6.898.406-10.125-.703-1.883-1.695-3.437-3.094-4.828C27.39 1.914 25.038.703 22.148.187c-.625-.11-2.618-.203-3.203-.14Zm1.718 6.672c1.68.187 3.04.867 4.196 2.093 1.265 1.344 1.843 2.93 1.757 4.813-.054 1.117-.18 1.633-.64 2.601-.828 1.704-2.29 2.946-4.14 3.508-.626.188-.829.211-1.837.211s-1.21-.023-1.836-.21c-1.336-.407-2.484-1.165-3.328-2.22-.508-.625-1.078-1.742-1.281-2.476-.195-.719-.242-2.227-.086-2.977.57-2.836 2.914-5.008 5.75-5.336.32-.039.625-.07.664-.078.047 0 .398.031.781.07Z" fill="#559479"/></svg>