<svg width="28" height="28" fill="none" xmlns="http://www.w3.org/2000/svg"><path d="M13.262.033c-2.318.23-4.26 1.132-5.851 2.729A9.3 9.3 0 0 0 5.53 13.229c.12.257 1.968 3.637 4.112 7.514C13.716 28.126 13.64 28 14.001 28c.36 0 .284.126 4.364-7.257 2.138-3.883 3.992-7.263 4.107-7.514 1.017-2.188 1.12-4.83.284-7.088a9.128 9.128 0 0 0-2.166-3.38C19.174 1.34 17.528.493 15.505.132c-.438-.076-1.833-.142-2.243-.098Zm1.204 4.67c1.175.131 2.127.607 2.936 1.466.886.94 1.29 2.05 1.23 3.368-.038.782-.125 1.143-.448 1.821a4.687 4.687 0 0 1-2.898 2.456c-.438.131-.58.148-1.285.148-.706 0-.848-.017-1.285-.148a4.7 4.7 0 0 1-2.33-1.553c-.356-.438-.755-1.22-.897-1.734-.137-.503-.17-1.558-.06-2.083.399-1.986 2.04-3.506 4.025-3.736.224-.027.437-.049.465-.054.032 0 .278.022.546.049Z" fill="#fff"/></svg>