<svg width="36" height="37" fill="none" xmlns="http://www.w3.org/2000/svg"><circle cx="18" cy="18.079" r="18" fill="#2B5644"/><path d="M17.447 8.09c-1.742.18-3.2.89-4.395 2.145-1.668 1.742-2.379 4.227-1.91 6.648a7.66 7.66 0 0 0 .496 1.582c.09.202 1.48 2.86 3.09 5.908 3.06 5.804 3.003 5.705 3.274 5.705.27 0 .213.1 3.278-5.705 1.606-3.053 2.999-5.71 3.085-5.908.764-1.72.842-3.797.214-5.572a7.222 7.222 0 0 0-1.627-2.658c-1.064-1.118-2.3-1.784-3.82-2.068-.33-.06-1.377-.112-1.685-.077Zm.904 3.672c.883.103 1.598.477 2.206 1.152.666.74.97 1.612.924 2.649-.028.614-.094.898-.337 1.431a3.57 3.57 0 0 1-2.177 1.931c-.328.103-.435.116-.965.116s-.637-.013-.966-.116a3.526 3.526 0 0 1-1.75-1.221 4.555 4.555 0 0 1-.673-1.363c-.103-.396-.128-1.226-.046-1.638.3-1.561 1.533-2.756 3.024-2.937.168-.022.329-.039.35-.043.024 0 .209.017.41.039Z" fill="#fff"/></svg>