<svg width="14" height="22" fill="none" xmlns="http://www.w3.org/2000/svg"><path d="M6.447.011c-1.742.18-3.2.89-4.395 2.146C.384 3.898-.327 6.383.142 8.804a7.64 7.64 0 0 0 .496 1.582c.09.202 1.48 2.86 3.09 5.908C6.788 22.1 6.73 22 7.002 22c.27 0 .213.099 3.278-5.706 1.606-3.053 2.999-5.71 3.085-5.908.764-1.72.842-3.796.214-5.572a7.222 7.222 0 0 0-1.627-2.657C10.888 1.039 9.652.372 8.132.088c-.33-.06-1.377-.111-1.685-.077Zm.904 3.672c.883.103 1.598.477 2.206 1.152.665.74.97 1.613.924 2.649-.028.615-.094.899-.336 1.432a3.57 3.57 0 0 1-2.178 1.93c-.328.104-.435.117-.965.117s-.637-.013-.966-.117a3.527 3.527 0 0 1-1.75-1.22 4.556 4.556 0 0 1-.673-1.364c-.103-.395-.128-1.225-.046-1.638.3-1.56 1.533-2.756 3.024-2.937.168-.021.329-.038.35-.043.024 0 .209.018.41.039Z" fill="#fff"/></svg>