<svg width="20" height="20" fill="none" xmlns="http://www.w3.org/2000/svg"><path clip-rule="evenodd" d="m14.66 2.175 2.093 1.703a1.039 1.039 0 0 1-.008 1.495l-1.59 1.937-5.413 6.603a.688.688 0 0 1-.36.223l-2.806.646a.711.711 0 0 1-.736-.63l.131-2.768a.646.646 0 0 1 .16-.382l5.178-6.31 1.824-2.226a1.143 1.143 0 0 1 1.528-.291Z" stroke="#2B5644" stroke-width="1.25" stroke-linecap="round" stroke-linejoin="round"/><path d="M2 17.505a.625.625 0 1 0 0 1.25v-1.25Zm14.74 1.25a.625.625 0 1 0 0-1.25v1.25ZM11.887 4.457a.625.625 0 1 0-1.16.468l1.16-.468Zm3.404 3.466a.625.625 0 1 0-.276-1.22l.276 1.22ZM2 18.755h14.74v-1.25H2v1.25Zm8.727-13.83c.242.6.742 1.46 1.482 2.117.75.668 1.803 1.17 3.08.881l-.275-1.22c-.766.174-1.42-.103-1.974-.595-.565-.502-.966-1.185-1.154-1.65l-1.16.467Z" fill="#2B5644"/></svg>