<svg width="40" height="41" fill="none" xmlns="http://www.w3.org/2000/svg"><mask id="a" style="mask-type:alpha" maskUnits="userSpaceOnUse" x="0" y="0" width="40" height="41"><path fill="#D9D9D9" d="M0 .5h40v40H0z"/></mask><g mask="url(#a)"><path d="M32.4 34.667c-3.142 0-6.297-.73-9.467-2.191-3.17-1.46-6.085-3.52-8.745-6.181-2.65-2.66-4.705-5.573-6.165-8.737-1.46-3.165-2.191-6.317-2.191-9.458 0-.5.167-.92.5-1.258.333-.34.75-.508 1.25-.508h5.436c.42 0 .792.137 1.114.411.321.275.526.614.613 1.018l.956 4.904c.066.455.052.846-.042 1.173a1.743 1.743 0 0 1-.507.824l-3.849 3.746a23.127 23.127 0 0 0 2.123 3.22 31.758 31.758 0 0 0 2.585 2.899 28.76 28.76 0 0 0 2.917 2.548 29.294 29.294 0 0 0 3.337 2.19l3.74-3.773c.26-.272.576-.462.947-.57a2.7 2.7 0 0 1 1.156-.08l4.628.941c.42.111.764.326 1.03.645.266.318.4.68.4 1.083v5.404c0 .5-.17.916-.509 1.25-.338.333-.758.5-1.258.5Z" fill="#559479"/></g></svg>