<svg width="24" height="24" fill="none" xmlns="http://www.w3.org/2000/svg"><path d="M16.75 7.75h-9.5c-.41 0-.75-.34-.75-.75V5c0-2.56 1.19-3.75 3.75-3.75h3.5c2.56 0 3.75 1.19 3.75 3.75v2c0 .41-.34.75-.75.75ZM8 6.25h8V5c0-1.7-.55-2.25-2.25-2.25h-3.5C8.55 2.75 8 3.3 8 5v1.25ZM13.263 22h-2.526C7.68 22 6 20.592 6 18.03v-3.236c0-.434.43-.794.947-.794h10.106c.517 0 .947.36.947.794v3.235C18 20.592 16.32 22 13.263 22Zm-5.368-6.412v2.441c0 1.673.846 2.383 2.842 2.383h2.526c1.996 0 2.842-.71 2.842-2.383v-2.44h-8.21Z" fill="#2B5644"/><path d="M19 18.75h-2c-.41 0-.75-.34-.75-.75v-2.25h-8.5V18c0 .41-.34.75-.75.75H5c-2.42 0-2.75-1.33-2.75-3.75v-5c0-2.42 1.33-3.75 3.75-3.75h12c2.42 0 3.75 1.33 3.75 3.75v5c0 2.42-.33 3.75-2.75 3.75Zm-1.25-1.5H19c1.58 0 1.25-.67 1.25-2.25v-5c0-1.58-.67-2.25-2.25-2.25H6c-1.58 0-2.25.67-2.25 2.25v5c0 1.58-.33 2.25 1.25 2.25h1.25V15c0-.41.34-.75.75-.75h10c.41 0 .75.34.75.75v2.25Z" fill="#2B5644"/><path d="M17 15.75H7c-.41 0-.75-.34-.75-.75s.34-.75.75-.75h10c.41 0 .75.34.75.75s-.34.75-.75.75Zm-7-4H7c-.41 0-.75-.34-.75-.75s.34-.75.75-.75h3c.41 0 .75.34.75.75s-.34.75-.75.75Z" fill="#2B5644"/></svg>