<svg width="60" height="60" fill="none" xmlns="http://www.w3.org/2000/svg"><path d="M48.55 29.375H40a1.889 1.889 0 0 1-1.875-1.875V10.025c0-1.85.725-3.575 2.025-4.875a6.845 6.845 0 0 1 4.875-2.025h.025c3.125.025 6.075 1.25 8.325 3.475 2.25 2.275 3.475 5.275 3.475 8.4v6.05c.025 4.975-3.325 8.325-8.3 8.325Zm-6.675-3.75h6.675c2.9 0 4.575-1.675 4.575-4.575V15c0-2.15-.85-4.2-2.375-5.75a8.235 8.235 0 0 0-5.7-2.375h-.025c-.825 0-1.625.325-2.225.925a3.1 3.1 0 0 0-.925 2.225v15.6Z" fill="#E29AA8"/><path d="M22.498 58.325a4.27 4.27 0 0 1-3.1-1.3l-4.15-4.175a.615.615 0 0 0-.824-.05L10.148 56a4.331 4.331 0 0 1-4.575.425A4.357 4.357 0 0 1 3.148 52.5V15c0-7.55 4.325-11.875 11.875-11.875h30c1.025 0 1.875.85 1.875 1.875s-.85 1.875-1.875 1.875A3.126 3.126 0 0 0 41.898 10v42.5a4.357 4.357 0 0 1-2.425 3.925A4.336 4.336 0 0 1 34.898 56l-4.275-3.2c-.25-.2-.6-.15-.8.05l-4.2 4.2a4.449 4.449 0 0 1-3.125 1.275Zm-7.725-9.4c1.15 0 2.275.425 3.125 1.3l4.15 4.175c.15.15.35.175.45.175.1 0 .3-.025.45-.175l4.2-4.2c1.55-1.55 4-1.7 5.726-.375L37.123 53c.274.2.524.125.65.05.124-.075.35-.225.35-.55V10c0-1.125.274-2.2.75-3.125H14.997c-5.55 0-8.125 2.575-8.125 8.125v37.5c0 .35.225.5.35.575.15.075.4.125.65-.075l4.275-3.2a4.415 4.415 0 0 1 2.625-.875Z" fill="#E29AA8"/><path d="M30 24.375H15a1.889 1.889 0 0 1-1.875-1.875c0-1.025.85-1.875 1.875-1.875h15c1.025 0 1.875.85 1.875 1.875s-.85 1.875-1.875 1.875Zm-1.875 10h-11.25A1.889 1.889 0 0 1 15 32.5c0-1.025.85-1.875 1.875-1.875h11.25c1.025 0 1.875.85 1.875 1.875s-.85 1.875-1.875 1.875Z" fill="#E29AA8"/></svg>