<svg width="24" height="24" fill="none" xmlns="http://www.w3.org/2000/svg"><path clip-rule="evenodd" d="M17.002 17.234a1.693 1.693 0 1 0-1.692 1.75c.95-.016 1.708-.8 1.692-1.75Zm-5.925-5.25a2.583 2.583 0 0 1-2.539 2.625A2.583 2.583 0 0 1 6 11.984 2.583 2.583 0 0 1 8.538 9.36a2.583 2.583 0 0 1 2.54 2.625Zm5.078-5.25a1.693 1.693 0 1 1-3.385 0 1.693 1.693 0 1 1 3.385 0Z" stroke="#2B5644" stroke-width="1.5" stroke-linecap="round" stroke-linejoin="round"/><path d="M13.605 16.688a.75.75 0 0 0 .868-1.224l-.868 1.224Zm-2.632-3.705a.75.75 0 1 0-.868 1.224l.868-1.224Zm2.729-4.54a.75.75 0 1 0-1.025-1.096l1.025 1.096ZM10.03 9.824a.75.75 0 0 0 1.025 1.095L10.03 9.824Zm4.442 5.64-3.5-2.48-.868 1.223 3.5 2.48.868-1.223Zm-1.796-8.117L10.03 9.824l1.025 1.095 2.646-2.476-1.025-1.096Z" fill="#2B5644"/></svg>