<svg width="60" height="60" fill="none" xmlns="http://www.w3.org/2000/svg"><path d="M36.748 56.875h-13.5c-12.35 0-17.6-5.275-17.6-17.6V28.05c0-1.025.85-1.875 1.875-1.875s1.875.85 1.875 1.875v11.225c0 10.225 3.625 13.85 13.85 13.85h13.475c10.225 0 13.85-3.625 13.85-13.85V28.05c0-1.025.85-1.875 1.875-1.875s1.875.85 1.875 1.875v11.225c.025 12.325-5.25 17.6-17.575 17.6Z" fill="#E29AA8"/><path d="M30 31.875c-2.75 0-5.25-1.075-7.026-3.05-1.774-1.975-2.6-4.55-2.325-7.3l1.675-16.7c.1-.95.9-1.7 1.875-1.7h11.675c.975 0 1.776.725 1.875 1.7l1.675 16.7c.276 2.75-.55 5.325-2.325 7.3-1.85 1.975-4.35 3.05-7.1 3.05Zm-4.125-25-1.5 15.025c-.175 1.675.325 3.25 1.375 4.4 2.125 2.35 6.374 2.35 8.5 0 1.05-1.175 1.55-2.75 1.374-4.4l-1.5-15.025h-8.25Z" fill="#E29AA8"/><path d="M45.774 31.875c-5.075 0-9.6-4.1-10.125-9.15L33.899 5.2a1.93 1.93 0 0 1 .475-1.45c.35-.4.85-.625 1.4-.625h7.625c7.35 0 10.775 3.075 11.8 10.625l.7 6.95c.3 2.95-.6 5.75-2.525 7.875-1.925 2.125-4.625 3.3-7.6 3.3Zm-7.925-25 1.55 15.475c.325 3.125 3.225 5.775 6.375 5.775 1.9 0 3.6-.725 4.825-2.05 1.2-1.325 1.75-3.1 1.575-5l-.7-6.875c-.775-5.65-2.6-7.325-8.075-7.325h-5.55Zm-23.749 25c-2.975 0-5.675-1.175-7.6-3.3C4.575 26.45 3.675 23.65 3.975 20.7l.675-6.875C5.7 6.2 9.125 3.125 16.475 3.125H24.1c.525 0 1.025.225 1.4.625s.525.925.475 1.45l-1.75 17.525c-.525 5.05-5.05 9.15-10.125 9.15Zm2.375-25c-5.475 0-7.3 1.65-8.1 7.375L7.7 21.075c-.2 1.9.375 3.675 1.575 5 1.2 1.325 2.9 2.05 4.825 2.05 3.15 0 6.075-2.65 6.375-5.775l1.55-15.475h-5.55Zm19.775 50h-12.5A1.889 1.889 0 0 1 21.875 55v-6.25c0-5.25 2.875-8.125 8.125-8.125s8.125 2.875 8.125 8.125V55c0 1.025-.85 1.875-1.875 1.875Zm-10.625-3.75h8.75V48.75c0-3.15-1.225-4.375-4.375-4.375s-4.375 1.225-4.375 4.375v4.375Z" fill="#E29AA8"/></svg>