<svg width="20" height="20" fill="none" xmlns="http://www.w3.org/2000/svg"><path d="M4.108 18.958a1.93 1.93 0 0 1-.967-.25c-.642-.375-1.008-1.134-1.008-2.075V4.883A3.848 3.848 0 0 1 5.974 1.04h8.042a3.848 3.848 0 0 1 3.842 3.842v11.741c0 .942-.367 1.7-1.009 2.075-.641.375-1.483.334-2.308-.125l-4.066-2.258c-.242-.133-.717-.133-.959 0L5.45 18.574c-.45.25-.908.384-1.341.384ZM5.983 2.29A2.6 2.6 0 0 0 3.39 4.883v11.741c0 .492.142.859.392 1 .25.142.641.1 1.066-.141l4.067-2.259c.617-.341 1.55-.341 2.167 0l4.066 2.259c.426.241.817.291 1.067.141s.392-.516.392-1V4.883a2.6 2.6 0 0 0-2.592-2.592H5.983Z" fill="#898485"/><path d="M9.242 11.042a.618.618 0 0 1-.442-.183l-1.25-1.25a.629.629 0 0 1 0-.883.629.629 0 0 1 .884 0l.808.808 2.892-2.892a.629.629 0 0 1 .883 0 .629.629 0 0 1 0 .884l-3.333 3.333a.618.618 0 0 1-.442.183Z" fill="#898485"/></svg>