<svg width="20" height="20" fill="none" xmlns="http://www.w3.org/2000/svg"><path d="M10 18.958c-4.942 0-8.959-4.017-8.959-8.959 0-4.941 4.017-8.958 8.958-8.958 4.942 0 8.959 4.017 8.959 8.958 0 4.942-4.017 8.959-8.959 8.959ZM10 2.29c-4.25 0-7.709 3.458-7.709 7.708s3.458 7.709 7.708 7.709 7.709-3.459 7.709-7.709S14.249 2.29 9.999 2.29Z" fill="#898485"/><path d="M10 11.458a.63.63 0 0 1-.625-.625V6.666A.63.63 0 0 1 10 6.041a.63.63 0 0 1 .625.625v4.167a.63.63 0 0 1-.625.625Zm0 2.708a.829.829 0 0 1-.317-.066.96.96 0 0 1-.275-.175.86.86 0 0 1-.175-.275.83.83 0 0 1-.067-.317.83.83 0 0 1 .067-.317c.041-.1.1-.191.175-.275a.963.963 0 0 1 .275-.175.834.834 0 0 1 .633 0c.1.042.192.1.275.175a.963.963 0 0 1 .175.275c.042.1.067.209.067.317a.829.829 0 0 1-.067.317.86.86 0 0 1-.175.275.96.96 0 0 1-.275.175.829.829 0 0 1-.317.066Z" fill="#898485"/></svg>