<svg width="57" height="48" viewBox="0 0 57 48" fill="none" xmlns="http://www.w3.org/2000/svg">
<path d="M27.7321 1.69363C40.3127 1.69363 50.5476 11.7799 50.5476 24.1775C50.5471 26.1888 50.272 28.1909 49.7296 30.1299C50.3306 30.1994 50.8842 30.4856 51.2839 30.9333C51.9346 28.7387 52.2651 26.4639 52.2654 24.1775C52.2654 10.8461 41.2603 0 27.7321 0C14.2042 0 3.19873 10.8461 3.19873 24.1775C3.19944 26.4039 3.51314 28.6194 4.13089 30.7609C4.59423 30.4004 5.16872 30.2069 5.75903 30.2124C5.20108 28.2479 4.9179 26.2175 4.91731 24.1775C4.91731 11.7799 15.1522 1.69363 27.7321 1.69363Z" fill="#E29AA8"/>
<path d="M47.1745 37.4462C47.0782 37.4462 46.9863 37.4404 46.8955 37.4326C46.5014 37.5595 46.0918 37.6346 45.6774 37.656C45.6635 37.6572 45.6505 37.6591 45.6366 37.6599C43.5306 40.3171 40.8378 42.4754 37.7591 43.9739C34.6805 45.4723 31.2953 46.2723 27.8562 46.314C24.417 46.3558 21.0126 45.6383 17.8967 44.2151C14.7809 42.7919 12.0341 40.6996 9.86114 38.0944C9.57603 38.1805 9.27907 38.2233 8.98065 38.2214C8.4436 38.2323 7.91575 38.0841 7.46655 37.7962C11.9264 43.9638 19.2755 48.0002 27.5739 48.0002C36.0772 48.0002 43.5772 43.759 47.9999 37.3335C47.7316 37.4092 47.4537 37.4472 47.1745 37.4462Z" fill="#E29AA8"/>
<path d="M56.5051 32.6849L56.3279 32.4752V32.4749C56.075 32.1767 55.839 31.9181 55.6073 31.6843C54.2255 30.2757 52.5616 29.1459 50.7142 28.3619C48.8667 27.5778 46.8731 27.1555 44.8515 27.1198C42.8299 27.084 40.8214 27.4357 38.9447 28.154C37.0681 28.8722 35.3615 29.9424 33.926 31.3013C33.2417 30.4031 32.6871 29.4211 32.277 28.3818C36.136 27.4376 39.4501 25.0809 41.5016 21.8219C43.5532 18.563 44.1771 14.6642 43.2384 10.9694C43.1909 10.7784 43.1394 10.5871 43.0835 10.4079C43.0389 10.2542 42.9904 10.1044 42.934 9.95473L42.8385 9.69875C42.8283 9.67274 42.8093 9.65077 42.7844 9.63641C42.7595 9.62205 42.7303 9.61614 42.7014 9.61964L42.4203 9.65742C42.2401 9.68174 42.0618 9.70866 41.8853 9.73818C41.7046 9.76794 41.527 9.80265 41.3542 9.83972C39.4702 10.2297 37.6825 10.9622 36.0888 11.9974C35.7379 12.2257 35.3969 12.4671 35.0743 12.7153C32.9096 14.3804 31.2672 16.5822 30.3271 19.0792C29.3869 21.5761 29.1854 24.2719 29.7445 26.871C28.7381 26.9609 27.7242 26.939 26.723 26.8058C27.4692 23.2563 26.7929 19.5689 24.8278 16.4722C22.8628 13.3756 19.7519 11.095 16.1101 10.0813C16.0918 10.0558 16.064 10.0379 16.0324 10.0312L15.1153 9.83949C15.1153 9.83949 14.7901 9.77337 14.7089 9.7592L14.3912 9.61208C14.3751 9.6046 14.3576 9.60046 14.3397 9.59991C14.3218 9.59937 14.304 9.60245 14.2875 9.60894C14.2709 9.61543 14.256 9.62519 14.2437 9.63757C14.2314 9.64996 14.2219 9.66469 14.216 9.6808L14.0849 10.0407L13.9468 10.5097C13.8928 10.6882 13.8458 10.867 13.7978 11.0511C13.7345 11.3034 13.6765 11.5728 13.6196 11.8862C13.6058 11.9608 13.5919 12.0345 13.582 12.0987C13.5637 12.2066 13.5459 12.3178 13.533 12.4165C13.5073 12.5797 13.489 12.7424 13.4707 12.9082C13.4529 13.07 13.4385 13.2364 13.4266 13.4062C13.4197 13.5066 13.4128 13.6055 13.4103 13.6884C13.4053 13.7512 13.4029 13.814 13.4014 13.8752L13.3979 13.9725C13.3945 14.109 13.392 14.2488 13.392 14.3853C13.392 14.5921 13.3949 14.7962 13.4063 15.0111C13.4128 15.1891 13.4246 15.3712 13.4425 15.5478L13.4494 15.6517C13.4677 15.8173 13.4855 15.98 13.5053 16.1287C13.5073 16.1571 13.5113 16.1847 13.5152 16.2135L13.5207 16.2504C13.5385 16.3982 13.5637 16.546 13.586 16.6617C13.5944 16.7375 13.6071 16.8128 13.6241 16.8872C13.6262 16.9031 13.6294 16.9188 13.6335 16.9342C13.6518 17.0419 13.6751 17.1496 13.7003 17.2632C13.7157 17.3366 13.731 17.4098 13.7473 17.4731L13.7686 17.5626C13.8018 17.7041 13.8359 17.845 13.872 17.9674C13.9205 18.1565 13.975 18.3391 14.0304 18.5001C14.0425 18.5527 14.0584 18.6045 14.0779 18.655C14.1225 18.792 14.167 18.9297 14.214 19.0491C14.2665 19.2019 14.3249 19.3495 14.3853 19.4995L14.511 19.805C14.6392 20.0976 14.7673 20.3727 14.9059 20.6493C14.9411 20.714 14.9732 20.7761 15.0094 20.8481C15.0683 20.9596 15.1262 21.0675 15.1915 21.1808C15.2425 21.2708 15.2934 21.3615 15.34 21.4349C15.4978 21.7051 15.6582 21.9587 15.8284 22.2095C15.8552 22.2487 15.8819 22.2872 15.9091 22.3257L16.0051 22.461C16.1244 22.6301 16.2476 22.7956 16.3699 22.9522C16.4931 23.1151 16.6233 23.274 16.7569 23.4332C16.8895 23.5907 17.0232 23.7409 17.1617 23.8932C17.2988 24.0457 17.4434 24.1945 17.5839 24.3343C17.7205 24.4753 17.8606 24.6099 17.9962 24.7322C18.0159 24.7547 18.0378 24.7753 18.0615 24.7938C18.2045 24.927 18.3481 25.0538 18.4946 25.1774C18.65 25.3115 18.8118 25.4418 18.9771 25.5731C19.1048 25.673 19.2394 25.7739 19.3537 25.8556C19.4245 25.9132 19.5002 25.9644 19.575 26.0147C19.7338 26.1316 19.8902 26.2374 20.0214 26.317C20.1515 26.4053 20.2807 26.4868 20.3955 26.555C20.4727 26.6056 20.5499 26.653 20.598 26.6773C20.6836 26.7317 20.7697 26.7829 20.8311 26.8136C20.9449 26.8821 21.0622 26.9435 21.1473 26.9867C21.2142 27.0276 21.2834 27.065 21.3547 27.0986C21.4784 27.164 21.6056 27.2266 21.7298 27.2875C21.9065 27.3754 22.0896 27.4595 22.2574 27.5296C22.3608 27.5773 22.4682 27.621 22.5558 27.6547C22.6717 27.7046 22.7885 27.7516 22.8741 27.782C22.9255 27.8047 22.976 27.8226 23.0102 27.834C23.1685 27.8954 23.3314 27.9511 23.4823 28.0028C23.5178 28.0178 23.5545 28.0297 23.5922 28.0385C23.756 28.0947 23.9213 28.1452 24.1153 28.2035C24.1549 28.2154 24.195 28.2265 24.2346 28.2376C23.8166 29.3282 23.2436 30.3589 22.5316 31.3006C22.5172 31.2871 22.5029 31.2739 22.4885 31.2612L22.4138 31.1894C21.9355 30.745 21.4264 30.3318 20.89 29.9527L20.5866 29.7444C20.445 29.6481 20.3045 29.5567 20.1877 29.4891C20.1055 29.4332 20.0234 29.384 19.9461 29.3389C19.5149 29.0772 19.0688 28.8384 18.6099 28.6237C18.4955 28.5675 18.3773 28.5148 18.2327 28.4506C18.1526 28.4137 18.0744 28.3788 18.0125 28.3561L17.967 28.3367C17.8244 28.2763 17.6829 28.217 17.5606 28.174C17.4384 28.1242 17.3157 28.0779 17.1994 28.0378C17.0722 27.9915 16.9494 27.9492 16.849 27.9188C16.7386 27.8786 16.6267 27.8437 16.5139 27.8092L16.3288 27.7544C16.2486 27.7308 16.1689 27.7074 16.1041 27.6916C15.9942 27.6597 15.8799 27.6288 15.7755 27.603L15.5478 27.5476C15.4978 27.5357 15.4478 27.5242 15.4092 27.5161C15.0232 27.425 14.6159 27.3478 14.1616 27.2802L13.8359 27.238C13.7448 27.2254 13.6513 27.2162 13.535 27.2051C13.4568 27.1945 13.3766 27.1874 13.2955 27.1806L13.0599 27.1619C12.9446 27.1525 12.8268 27.1461 12.7129 27.1404L12.5387 27.1312C12.1083 27.11 11.677 27.1097 11.2465 27.1305C11.1931 27.1305 11.1391 27.1341 11.0624 27.1395L11.0124 27.1423C10.9105 27.148 10.8085 27.1537 10.7155 27.161C10.6477 27.165 10.5833 27.1692 10.5487 27.1751C10.4442 27.1818 10.3388 27.1921 10.2433 27.203C10.1369 27.2134 10.034 27.224 9.93102 27.2373L9.59051 27.2821C9.2119 27.3362 8.82141 27.4092 8.39628 27.5048C8.27206 27.5329 8.15179 27.5608 8.03846 27.5901C7.95284 27.6111 7.8687 27.634 7.78456 27.6569L7.66084 27.6907C7.53859 27.7249 7.41635 27.7594 7.29212 27.7974C7.16988 27.8349 7.04813 27.8737 6.9343 27.9119C6.81106 27.9504 6.68486 27.9932 6.57004 28.0359C6.28101 28.1384 6.00633 28.2461 5.73611 28.363C5.65395 28.397 5.57229 28.4307 5.5124 28.4603C5.29068 28.5559 5.06945 28.6596 4.85813 28.767C4.77448 28.8067 4.69084 28.8499 4.58889 28.9026C4.29541 29.0579 4.04399 29.2001 3.82326 29.3356C3.7406 29.3845 3.65795 29.4344 3.605 29.4721C3.46048 29.5571 3.31992 29.6483 3.17442 29.7465L2.86213 29.9617C2.82402 29.9902 2.78542 30.0183 2.74335 30.0464L2.66713 30.1024C2.60279 30.1508 2.53994 30.1985 2.48797 30.2401C2.35732 30.336 2.22666 30.4356 2.12124 30.5256C2.05047 30.5785 1.98167 30.6366 1.91288 30.6949L1.85101 30.7466C1.68324 30.8897 1.51942 31.0361 1.34769 31.1929L1.27741 31.2598C1.22 31.3134 1.16259 31.3674 1.11408 31.4159C1.02302 31.5028 0.932451 31.593 0.832973 31.695C0.832973 31.695 0.34548 32.2211 0.317764 32.2502C0.114848 32.4691 -0.163294 32.7692 0.121777 33.0443L0.165825 33.0972C0.197005 33.135 0.228679 33.1737 0.265303 33.2136L0.613724 33.5903C0.619389 33.6031 0.62725 33.6149 0.636985 33.6252L1.08686 34.1001C1.10118 34.1144 1.1196 34.1244 1.13982 34.1287C3.98668 36.8526 7.84911 38.3883 11.8805 38.3991H11.9755C15.1138 38.3722 18.1671 37.4229 20.7197 35.6804C23.254 33.9274 25.1663 31.4772 26.2004 28.6579C27.5534 28.8562 28.9281 28.8805 30.2879 28.7302C30.8154 30.1653 31.5778 31.5116 32.5467 32.7191C34.3928 35.014 36.9118 36.7336 39.7839 37.6598C42.5293 38.5325 45.4793 38.6357 48.2843 37.957C51.0893 37.2782 53.6314 35.8461 55.6093 33.8304C55.8766 33.5565 56.1116 33.2998 56.3279 33.0457L56.5051 32.8367C56.5234 32.8153 56.5333 32.7885 56.5333 32.7608C56.5333 32.7332 56.5234 32.7064 56.5051 32.6849ZM45.8085 32.7068C45.8386 32.7156 45.871 32.7133 45.8994 32.7005C45.9279 32.6877 45.9503 32.6652 45.9624 32.6375C45.9744 32.6098 45.9752 32.5788 45.9646 32.5505C45.954 32.5222 45.9328 32.4988 45.905 32.4846C43.198 31.0867 40.0548 30.6631 37.048 31.2909C39.5877 29.5901 42.6774 28.8043 45.7673 29.0733C48.8572 29.3423 51.7469 30.6487 53.9221 32.76C51.6566 34.9572 48.6207 36.2788 45.3968 36.4714C42.173 36.6639 38.9881 35.7139 36.4531 33.8035C37.8592 33.0398 39.4099 32.5496 41.0157 32.3614C42.6215 32.1732 44.2505 32.2906 45.8085 32.7068ZM41.6695 14.3853C41.6695 20.087 37.4899 25.1837 31.7128 26.5522C31.5248 25.6976 31.4299 24.8268 31.4297 23.9536C31.4252 20.6927 32.7588 17.5597 35.145 15.2255C35.3811 14.9926 35.636 14.7617 35.9017 14.5392C36.3766 14.1409 36.8809 13.7758 37.4107 13.4466C37.5676 13.3493 37.7255 13.2553 37.8864 13.1646C38.977 12.5455 40.1564 12.0815 41.3874 11.7872C41.5751 12.6416 41.6696 13.5123 41.6695 14.3853ZM25.024 23.9536C25.0242 24.7758 24.9398 25.596 24.7721 26.4025C24.7206 26.3876 24.6686 26.372 24.6162 26.3562C24.4434 26.3047 24.2727 26.2492 24.1123 26.197L24.0267 26.1668C23.8703 26.1125 23.7125 26.052 23.557 25.9906C23.4106 25.9337 23.2636 25.873 23.0978 25.8001C23.0151 25.7679 22.9344 25.7312 22.8562 25.69C22.7701 25.6537 22.684 25.614 22.5504 25.5488C22.5264 25.538 22.5031 25.526 22.4806 25.5127L22.4346 25.4888C22.3079 25.4312 22.1846 25.3644 22.05 25.2886C21.8966 25.2078 21.7427 25.1202 21.5898 25.0255L21.5002 24.9717C21.4958 24.9689 21.4911 24.9664 21.4863 24.9643C21.3646 24.8893 21.2443 24.812 21.1216 24.7317L21.0805 24.706C20.9513 24.6193 20.8254 24.5328 20.7029 24.4462L20.6227 24.3856C20.5108 24.3098 20.4064 24.2307 20.2827 24.1308C20.2312 24.0942 20.1827 24.0559 20.1263 24.0103C20.06 23.9581 19.9956 23.9067 19.9204 23.8424C19.8402 23.7782 19.764 23.7109 19.6606 23.6188C19.6239 23.59 19.5898 23.5576 19.5457 23.5163L19.517 23.4894C19.4606 23.4407 19.4027 23.3886 19.3339 23.3203C19.2592 23.2523 19.184 23.181 19.1132 23.109L18.8895 22.8813C18.8326 22.8216 18.7732 22.7597 18.7039 22.6855C18.6821 22.6641 18.6618 22.6409 18.6282 22.6015C18.5356 22.5002 18.4465 22.3998 18.3406 22.2735C18.3159 22.2463 18.2926 22.2199 18.2535 22.1715C18.1882 22.0983 18.1273 22.0215 18.0471 21.9155C18.0041 21.8657 17.967 21.8165 17.9155 21.7459C17.8522 21.6666 17.7918 21.5846 17.718 21.4814C17.6898 21.4458 17.6651 21.4104 17.6299 21.3605L17.6012 21.3192C17.5404 21.2314 17.4785 21.1431 17.4191 21.0467L17.3894 21.0044C17.3731 20.9838 17.3588 20.9617 17.3468 20.9386L17.3226 20.8991C17.2731 20.8276 17.2295 20.7548 17.1766 20.6672L17.1365 20.6009C17.1036 20.5524 17.0733 20.5024 17.0459 20.4509C16.9692 20.3173 16.893 20.1831 16.8168 20.036C16.7475 19.9101 16.6817 19.7812 16.6035 19.6206C16.5901 19.5968 16.5792 19.5725 16.5594 19.5292C16.4916 19.3918 16.4293 19.2513 16.3699 19.1098L16.3422 19.0449C16.3399 19.0397 16.3373 19.0346 16.3342 19.0298C16.2852 18.9143 16.2367 18.7941 16.1793 18.643C16.1704 18.625 16.164 18.605 16.1462 18.5551C16.1061 18.4543 16.0685 18.3502 16.0294 18.2222C15.9601 18.0342 15.8953 17.8269 15.819 17.548C15.7725 17.3905 15.7329 17.2308 15.6958 17.0608C15.6666 16.9392 15.6379 16.8166 15.6107 16.652C15.5864 16.5564 15.5711 16.461 15.5538 16.3524C15.531 16.2263 15.5117 16.098 15.4944 15.9653C15.4228 15.4414 15.3868 14.9136 15.3865 14.3853C15.3865 14.2866 15.3895 14.1853 15.3919 14.0776L15.3939 14.0108C15.3969 13.8984 15.4003 13.7883 15.4102 13.6712L15.4112 13.627C15.4137 13.5557 15.4196 13.487 15.4266 13.4013L15.4444 13.1991C15.4498 13.1375 15.4577 13.0756 15.4662 13.0102L15.4716 12.9696C15.4959 12.7441 15.531 12.506 15.5785 12.2418C15.5963 12.1433 15.6146 12.0446 15.6384 11.9339C18.3458 12.7134 20.7193 14.3022 22.409 16.4662C24.0988 18.6302 25.0155 21.2549 25.024 23.9536ZM18.6638 30.8207C18.7212 30.8529 18.7752 30.8855 18.8326 30.9197L18.8994 30.9598C18.9052 30.9635 18.9113 30.9665 18.9177 30.969C18.9238 30.9745 18.9304 30.9794 18.9375 30.9837C19.0889 31.0739 19.2419 31.1705 19.3993 31.2756C16.4133 30.6696 13.2988 31.0982 10.614 32.4846C10.587 32.4988 10.5665 32.5221 10.5566 32.5499C10.5466 32.5777 10.5478 32.6081 10.5601 32.6351C10.5725 32.6629 10.5952 32.6853 10.6238 32.6983C10.6524 32.7112 10.6851 32.7137 10.7155 32.7052C12.2663 32.2918 13.8874 32.1744 15.4859 32.3598C17.0844 32.5452 18.6288 33.0297 20.0308 33.7856C17.4943 35.7044 14.3042 36.6611 11.0735 36.4718C7.84281 36.2824 4.79938 34.9604 2.52807 32.7597C2.58399 32.7052 2.64091 32.6516 2.7003 32.5973C2.95369 32.3583 3.22689 32.1224 3.51146 31.8966C3.66489 31.7762 3.82128 31.6553 3.98658 31.5398C4.26918 31.3365 4.55227 31.1492 4.83289 30.9804C4.89822 30.9374 4.96652 30.8984 5.05412 30.8482L5.11103 30.8149C5.20556 30.7596 5.2991 30.7065 5.40303 30.6517C5.46242 30.6184 5.52033 30.5884 5.59703 30.5494C5.63217 30.5303 5.66583 30.5133 5.72027 30.4854L5.80094 30.4458C5.89596 30.399 5.99148 30.353 6.09641 30.3036C6.19539 30.2547 6.29487 30.2091 6.39682 30.1662L6.52748 30.1107C6.58984 30.0833 6.6522 30.0561 6.72594 30.0275C6.83235 29.9834 6.93925 29.9418 7.05308 29.8988C7.15949 29.8578 7.2659 29.82 7.37725 29.7808C7.59056 29.7057 7.8108 29.6358 8.05331 29.5661C8.12111 29.5446 8.1909 29.5253 8.26117 29.5064L8.40123 29.4672C8.50566 29.4412 8.61108 29.415 8.71699 29.3909L9.01543 29.3222C9.14361 29.2941 9.27179 29.2688 9.40295 29.2466L9.73553 29.1885C10.2118 29.1146 10.6919 29.065 11.1738 29.04C11.2356 29.0355 11.298 29.0331 11.3692 29.0303L11.4311 29.0277C11.7236 29.0213 12.026 29.0216 12.3036 29.027L12.3487 29.0291C12.4284 29.032 12.51 29.035 12.5956 29.0405C12.8312 29.0534 13.0693 29.0693 13.3044 29.095C13.4217 29.1073 13.535 29.1198 13.6538 29.1366L14.0022 29.1843C14.12 29.2034 14.2338 29.2228 14.3625 29.2473C14.4224 29.2575 14.4828 29.2695 14.5723 29.2872L14.702 29.3132C14.9292 29.3614 15.1568 29.4119 15.3825 29.4733C15.5983 29.5309 15.8171 29.5954 16.0304 29.6634L16.3842 29.7808C16.602 29.858 16.8203 29.9376 17.0405 30.0294C17.4724 30.2033 17.8936 30.4005 18.302 30.62C18.4015 30.6734 18.5 30.727 18.5985 30.7827L18.6787 30.6876L18.6351 30.804C18.6356 30.8045 18.6633 30.8205 18.6638 30.8207Z" fill="#2B5644"/>
</svg>
