<svg width="206" height="56" viewBox="0 0 206 56" fill="none" xmlns="http://www.w3.org/2000/svg">
<path d="M31.7934 2.14577C46.0349 2.14577 57.6208 13.7441 57.6208 28.0003C57.6202 30.3131 57.3088 32.6153 56.6948 34.845C57.3751 34.925 58.0018 35.254 58.4542 35.7689C59.1909 33.2452 59.565 30.6295 59.5654 28.0003C59.5654 12.6703 47.1075 0.198242 31.7934 0.198242C16.4798 0.198242 4.02148 12.6703 4.02148 28.0003C4.02229 30.5604 4.3774 33.108 5.0767 35.5706C5.6012 35.1561 6.25153 34.9335 6.91976 34.9399C6.28817 32.6809 5.96759 30.3461 5.96693 28.0003C5.96693 13.7441 17.5529 2.14577 31.7934 2.14577Z" fill="#E29AA8"/>
<path d="M53.9097 43.6019C53.8011 43.6019 53.6973 43.5952 53.5949 43.5863C53.1502 43.7329 52.688 43.8198 52.2205 43.8445C52.2048 43.8459 52.1901 43.8481 52.1744 43.849C49.798 46.9206 46.7596 49.4155 43.2857 51.1476C39.8119 52.8798 35.9922 53.8045 32.1115 53.8527C28.2309 53.901 24.3894 53.0716 20.8736 51.4265C17.3578 49.7813 14.2584 47.3627 11.8065 44.3512C11.4848 44.4508 11.1497 44.5003 10.813 44.498C10.207 44.5107 9.61135 44.3393 9.10449 44.0066C14.1369 51.136 22.4293 55.8018 31.793 55.8018C41.3879 55.8018 49.8507 50.8992 54.8411 43.4717C54.5384 43.5592 54.2248 43.6031 53.9097 43.6019Z" fill="#E29AA8"/>
<path d="M83.1738 23.0449L83.1131 22.9538L77.1452 13.9453H73.7373V31.8823H76.8568V18.7979L83.0139 28.0851H83.333L89.4914 18.8246V31.8823H92.6096V13.9453H89.2306L83.1738 23.0449Z" fill="#22614E"/>
<path d="M104.078 26.3577V13.9453H100.959V31.8823H103.405L112.881 19.4702V31.8823H116V13.9453H113.553L104.078 26.3577Z" fill="#22614E"/>
<path d="M136.262 15.6328L136.262 15.6322C135.032 14.5135 133.472 13.9463 131.627 13.9463H124.376V31.8831H127.495V25.6836H131.627C133.472 25.6836 135.032 25.1165 136.262 23.998C137.508 22.8636 138.139 21.4563 138.139 19.815C138.151 19.0228 137.99 18.2377 137.665 17.515C137.341 16.7924 136.862 16.1498 136.262 15.6328ZM134.061 22.1279C133.426 22.7323 132.607 23.039 131.627 23.039H127.495V16.5907H131.627C132.607 16.5907 133.425 16.8974 134.061 17.502C134.365 17.8052 134.607 18.1656 134.771 18.5626C134.936 18.9595 135.021 19.3851 135.021 19.815C135.021 20.2448 134.936 20.6704 134.771 21.0673C134.607 21.4643 134.365 21.8247 134.061 22.1279Z" fill="#22614E"/>
<path d="M157.238 15.6328L157.237 15.6322C156.007 14.5135 154.448 13.9463 152.603 13.9463H145.352V31.8831H148.471V25.6836H152.603C154.448 25.6836 156.007 25.1165 157.237 23.998C158.483 22.8634 159.115 21.4561 159.115 19.815C159.127 19.0228 158.966 18.2376 158.641 17.5149C158.317 16.7923 157.838 16.1498 157.238 15.6328ZM155.036 22.1279V22.1276C154.401 22.7323 153.583 23.039 152.603 23.039H148.471V16.5907H152.603C153.582 16.5907 154.401 16.8974 155.036 17.502C155.34 17.8053 155.582 18.1658 155.747 18.5627C155.911 18.9596 155.996 19.3852 155.996 19.815C155.996 20.2448 155.911 20.6703 155.747 21.0672C155.582 21.4642 155.34 21.8246 155.036 22.1279Z" fill="#22614E"/>
<path d="M173.152 13.6099C171.427 13.5936 169.721 13.9847 168.175 14.7516C166.756 15.4428 165.55 16.504 164.684 17.8235L167.392 19.253C167.955 18.3503 168.759 17.623 169.713 17.1534C170.779 16.6163 171.959 16.3434 173.152 16.3578C174.975 16.3578 176.533 16.8274 177.779 17.7537C179.012 18.6569 179.85 20.0001 180.121 21.5052L180.137 21.5918H170.585V24.2364H180.137L180.121 24.3229C179.85 25.828 179.012 27.1712 177.779 28.0741C176.533 29.0005 174.976 29.4704 173.152 29.4704C171.959 29.4849 170.779 29.2121 169.713 28.6748C168.759 28.2052 167.955 27.4778 167.391 26.5746L164.684 27.9791C165.555 29.3031 166.766 30.3684 168.189 31.0635C169.729 31.8356 171.43 32.2312 173.152 32.218C176.11 32.218 178.576 31.3209 180.483 29.5512C182.407 27.7825 183.383 25.5495 183.383 22.9139C183.383 20.2789 182.407 18.0548 180.484 16.303C178.576 14.5158 176.109 13.6099 173.152 13.6099Z" fill="#22614E"/>
<path d="M203.332 13.9453L193.857 26.3577V13.9453H190.738V31.8823H193.184L202.66 19.4702V31.8823H205.779V13.9453H203.332Z" fill="#22614E"/>
<path d="M202.173 9.70898H194.371V11.9922H202.173V9.70898Z" fill="#22614E"/>
<path d="M73.7227 42.014H75.3752V46.2891H76.346V42.014H78.0059V41.1553H73.7227V42.014Z" fill="#E29AA8"/>
<path d="M82.3829 41.0508C82.0287 41.041 81.6764 41.1051 81.3482 41.2389C81.0201 41.3727 80.7233 41.5733 80.4768 41.8281C80.2296 42.0764 80.0353 42.3723 79.9055 42.6978C79.7757 43.0234 79.7131 43.3719 79.7214 43.7224C79.7149 44.0726 79.7784 44.4205 79.9081 44.7458C80.0378 45.0711 80.2312 45.3672 80.4768 45.6166C80.9851 46.1149 81.6681 46.3939 82.3795 46.3939C83.0909 46.3939 83.7739 46.1149 84.2822 45.6166C84.7715 45.1077 85.0448 44.4287 85.0448 43.7224C85.0448 43.016 84.7715 42.337 84.2822 41.8281C84.0366 41.5739 83.741 41.3735 83.4141 41.2397C83.0871 41.1059 82.736 41.0416 82.3829 41.0508ZM83.5733 44.9871C83.4178 45.1464 83.232 45.273 83.027 45.3594C82.8219 45.4458 82.6017 45.4903 82.3792 45.4903C82.1567 45.4903 81.9365 45.4458 81.7315 45.3594C81.5264 45.273 81.3407 45.1464 81.1852 44.9871C80.8817 44.6358 80.7147 44.1869 80.7147 43.7225C80.7147 43.258 80.8817 42.8091 81.1852 42.4578C81.3406 42.2984 81.5263 42.1717 81.7314 42.0852C81.9364 41.9987 82.1567 41.9542 82.3792 41.9542C82.6017 41.9542 82.822 41.9987 83.0271 42.0852C83.2321 42.1717 83.4179 42.2984 83.5733 42.4578C83.8815 42.8069 84.0516 43.2566 84.0516 43.7225C84.0516 44.1883 83.8815 44.6381 83.5733 44.9871Z" fill="#E29AA8"/>
<path d="M90.8251 43.5049L90.6577 43.4697L90.8152 43.4033C90.9971 43.3255 91.1526 43.1969 91.2633 43.0328C91.3852 42.8492 91.4474 42.6323 91.4412 42.4119C91.4499 42.2364 91.4172 42.0614 91.3458 41.9009C91.2744 41.7403 91.1662 41.5989 91.0301 41.4879C90.7552 41.267 90.3776 41.1553 89.9086 41.1553H87.5012V46.289H90.0802C90.6233 46.289 91.0573 46.1548 91.3697 45.8898C91.5231 45.765 91.6457 45.6065 91.7281 45.4267C91.8105 45.2469 91.8505 45.0505 91.845 44.8527C91.8574 44.5255 91.7499 44.205 91.5429 43.9514C91.3602 43.7265 91.1075 43.5693 90.8251 43.5049ZM88.472 41.9467H89.7365C89.9368 41.9357 90.1348 41.9941 90.2972 42.1119C90.3667 42.1687 90.4219 42.241 90.4585 42.323C90.4951 42.4049 90.5121 42.4943 90.508 42.584C90.512 42.6722 90.4949 42.76 90.4581 42.8402C90.4214 42.9204 90.366 42.9906 90.2967 43.0451C90.1335 43.1607 89.9361 43.2177 89.7365 43.2067H88.472V41.9467ZM90.5398 45.2804C90.3464 45.415 90.1135 45.4809 89.8784 45.4676H88.472V43.9906H89.8784C90.1143 43.9771 90.3479 44.0446 90.5403 44.1819C90.6212 44.2482 90.6855 44.3325 90.7279 44.4282C90.7703 44.5238 90.7897 44.6281 90.7845 44.7326C90.79 44.8368 90.7706 44.9408 90.7281 45.036C90.6856 45.1313 90.621 45.215 90.5398 45.2804Z" fill="#E29AA8"/>
<path d="M96.0024 41.125L93.8037 46.2885H94.8173L95.3332 45.0754H97.6175L97.631 45.1081L98.1339 46.2885H99.1615L96.9633 41.125H96.0024ZM95.6243 44.2916L95.6561 44.2172L96.4756 42.2811L97.3191 44.2916H95.6243Z" fill="#E29AA8"/>
<path d="M103.604 41.1553H101.369V46.289H102.339V44.2151H103.604C104.151 44.2151 104.587 44.0712 104.899 43.7874C105.05 43.6461 105.17 43.4754 105.252 43.2859C105.334 43.0964 105.376 42.8921 105.376 42.6856C105.376 42.479 105.334 42.2747 105.252 42.0851C105.17 41.8956 105.05 41.7249 104.9 41.5835C104.587 41.2991 104.151 41.1553 103.604 41.1553ZM104.168 43.2216C103.981 43.3507 103.756 43.4139 103.529 43.4013H102.339V41.9913H103.529C103.756 41.9788 103.981 42.042 104.168 42.1712C104.243 42.2369 104.302 42.3178 104.343 42.4083C104.384 42.4989 104.405 42.5971 104.405 42.6964C104.405 42.7958 104.384 42.894 104.343 42.9845C104.302 43.0751 104.243 43.1559 104.168 43.2216Z" fill="#E29AA8"/>
<path d="M113.348 41.1553H112.378V46.289H113.348V41.1553Z" fill="#E29AA8"/>
<path d="M109.671 42.8848H108.645V41.1553H107.675V46.289H109.671C110.273 46.289 110.759 46.1298 111.116 45.8157C111.283 45.6584 111.416 45.4686 111.507 45.2579C111.598 45.0473 111.644 44.8202 111.645 44.5907C111.645 44.3612 111.598 44.1341 111.507 43.9234C111.416 43.7127 111.283 43.5228 111.116 43.3655C110.763 43.0464 110.277 42.8848 109.671 42.8848ZM110.381 45.2201V45.2203C110.158 45.3811 109.886 45.4605 109.611 45.4454H108.645V43.6911H109.611C109.887 43.6758 110.159 43.7568 110.382 43.9203C110.476 44.0001 110.551 44.1008 110.601 44.2144C110.65 44.3281 110.673 44.4516 110.666 44.5754C110.672 44.6977 110.65 44.8197 110.6 44.9316C110.551 45.0435 110.476 45.1423 110.381 45.2201Z" fill="#E29AA8"/>
<path d="M124.25 41.1553H120.677V41.9328C120.691 42.639 120.636 43.3449 120.511 44.0402C120.419 44.5241 120.239 44.987 119.98 45.406L119.964 45.4303H119.473V47.3595H120.376V46.289H124.065V47.3595H124.968V45.4303H124.25V41.1553ZM123.279 45.4303H121.039L121.076 45.3535C121.292 44.901 121.441 44.4192 121.517 43.9235C121.605 43.3089 121.646 42.6884 121.64 42.0676V42.014H123.279V45.4303Z" fill="#E29AA8"/>
<path d="M127.835 42.6375C127.82 43.6898 127.762 44.4243 127.662 44.8206C127.555 45.2303 127.347 45.4378 127.042 45.4378C126.931 45.439 126.82 45.4254 126.713 45.3974V46.2608C126.839 46.2985 126.97 46.3155 127.101 46.3112C127.704 46.3112 128.111 46.0929 128.347 45.6439C128.582 45.194 128.722 44.3478 128.761 43.1289L128.792 42.014H130.483V46.289H131.446V41.1553H127.857L127.835 42.6375Z" fill="#E29AA8"/>
<path d="M134.655 41.5759L134.654 41.5764C134.501 41.7096 134.38 41.8752 134.299 42.0611C134.218 42.247 134.179 42.4487 134.186 42.6514C134.179 42.9666 134.277 43.2752 134.463 43.5289C134.658 43.7835 134.931 43.9674 135.24 44.0527L135.312 44.0746L133.691 46.289H134.801L136.341 44.1702H137.334V46.289H138.304V41.1553H135.934C135.392 41.1553 134.962 41.2968 134.655 41.5759ZM137.334 41.9913V43.3712H135.994C135.778 43.3834 135.565 43.3212 135.389 43.195C135.318 43.1301 135.261 43.0511 135.222 42.963C135.184 42.875 135.164 42.7798 135.163 42.6836C135.163 42.5874 135.183 42.4922 135.222 42.4041C135.261 42.316 135.317 42.237 135.388 42.172C135.563 42.0432 135.778 41.9793 135.994 41.9913H137.334Z" fill="#E29AA8"/>
<path d="M148.247 41.4398L148.196 41.4377V40.9609H147.217V41.4377L147.166 41.4398C146.381 41.469 145.764 41.7032 145.333 42.1356C145.129 42.3374 144.968 42.5776 144.857 42.8423C144.747 43.107 144.69 43.3909 144.69 43.6777C144.69 43.9644 144.747 44.2483 144.858 44.513C144.968 44.7776 145.13 45.0177 145.333 45.2195C145.759 45.6516 146.376 45.8856 147.166 45.9148L147.217 45.9169V46.4913H148.196V45.9169L148.247 45.9148C149.037 45.8855 149.654 45.6516 150.081 45.2195C150.284 45.0178 150.446 44.7777 150.556 44.5131C150.667 44.2484 150.724 43.9645 150.724 43.6777C150.724 43.3909 150.667 43.1069 150.557 42.8422C150.446 42.5775 150.285 42.3373 150.081 42.1356C149.649 41.7032 149.032 41.469 148.247 41.4398ZM147.217 45.0498L147.163 45.0487C146.702 45.0383 146.338 44.9085 146.08 44.6633C145.83 44.3947 145.69 44.041 145.69 43.6736C145.69 43.3062 145.83 42.9525 146.08 42.6839C146.339 42.4385 146.703 42.3116 147.164 42.3061L147.217 42.3056V45.0498ZM149.333 44.6633C149.074 44.9085 148.71 45.0383 148.25 45.0487L148.196 45.0498V42.3056L148.25 42.3061C148.709 42.3116 149.074 42.4385 149.333 42.6837C149.584 42.952 149.723 43.3059 149.723 43.6735C149.723 44.0411 149.584 44.395 149.333 44.6633Z" fill="#E29AA8"/>
<path d="M153.65 42.6375C153.635 43.6898 153.576 44.4243 153.476 44.8206C153.37 45.2303 153.161 45.4378 152.856 45.4378C152.745 45.439 152.635 45.4255 152.528 45.3976V46.2608C152.654 46.2986 152.785 46.3156 152.916 46.3112C153.518 46.3112 153.926 46.0929 154.163 45.6436C154.397 45.1932 154.536 44.3472 154.575 43.1289L154.607 42.014H156.297V46.289H157.26V41.1553H153.672L153.65 42.6375Z" fill="#E29AA8"/>
<path d="M163.015 41.0507C162.66 41.0411 162.308 41.1052 161.98 41.239C161.652 41.3728 161.355 41.5734 161.108 41.828C160.861 42.0765 160.667 42.3724 160.537 42.6979C160.408 43.0235 160.345 43.3719 160.353 43.7223C160.347 44.0725 160.41 44.4204 160.54 44.7457C160.669 45.071 160.863 45.3671 161.108 45.6166C161.616 46.1149 162.299 46.3939 163.011 46.3939C163.722 46.3939 164.405 46.1149 164.913 45.6166C165.403 45.1078 165.677 44.4289 165.677 43.7225C165.677 43.016 165.403 42.3371 164.913 41.8283C164.668 41.574 164.373 41.3735 164.046 41.2396C163.719 41.1058 163.368 41.0414 163.015 41.0507ZM164.205 44.9871C164.05 45.1464 163.864 45.2729 163.659 45.3593C163.454 45.4457 163.234 45.4902 163.011 45.4902C162.789 45.4902 162.568 45.4457 162.363 45.3593C162.158 45.2729 161.973 45.1464 161.817 44.9871C161.513 44.636 161.346 44.187 161.346 43.7225C161.346 43.2579 161.513 42.8089 161.817 42.4578C161.972 42.2984 162.158 42.1717 162.363 42.0852C162.568 41.9987 162.789 41.9542 163.011 41.9542C163.234 41.9542 163.454 41.9987 163.659 42.0852C163.864 42.1717 164.05 42.2984 164.205 42.4578C164.513 42.8068 164.683 43.2566 164.683 43.7225C164.683 44.1883 164.513 44.6381 164.205 44.9871Z" fill="#E29AA8"/>
<path d="M170.368 41.1553H168.133V46.289H169.104V44.2151H170.368C170.915 44.2151 171.35 44.0712 171.663 43.7874C171.813 43.6461 171.933 43.4754 172.015 43.2859C172.097 43.0964 172.14 42.8921 172.14 42.6856C172.14 42.479 172.097 42.2747 172.015 42.0851C171.934 41.8956 171.814 41.7249 171.663 41.5835C171.35 41.2991 170.915 41.1553 170.368 41.1553ZM170.932 43.2216C170.745 43.3507 170.52 43.4139 170.293 43.4013H169.104V41.9913H170.293C170.52 41.9788 170.745 42.042 170.932 42.1712C171.006 42.2369 171.066 42.3178 171.107 42.4083C171.148 42.4989 171.169 42.5971 171.169 42.6964C171.169 42.7958 171.148 42.894 171.107 42.9845C171.066 43.0751 171.006 43.1559 170.932 43.2216Z" fill="#E29AA8"/>
<path d="M175.409 44.6772V41.1553H174.438V46.2891H175.264L177.909 42.7451V46.2891H178.871V41.1553H178.024L175.409 44.6772Z" fill="#E29AA8"/>
<path d="M182.853 44.996C182.52 44.6587 182.331 44.2038 182.328 43.729C182.325 43.2541 182.508 42.797 182.838 42.4557C183.009 42.2914 183.21 42.1624 183.431 42.0762C183.652 41.99 183.887 41.9484 184.124 41.9536C184.59 41.9479 185.048 42.0727 185.447 42.314V41.3583C185.034 41.1505 184.578 41.0448 184.116 41.0502C183.378 41.0268 182.66 41.296 182.119 41.7993C181.616 42.313 181.334 43.0042 181.336 43.7237C181.337 44.4432 181.621 45.1332 182.127 45.6448C182.591 46.0501 183.167 46.3044 183.778 46.374C184.39 46.4436 185.008 46.3251 185.551 46.0344V45.0866C185.144 45.3632 184.661 45.5043 184.169 45.4897C183.682 45.5063 183.209 45.3287 182.853 44.996Z" fill="#E29AA8"/>
<path d="M187.604 42.014H189.256V46.2891H190.227V42.014H191.887V41.1553H187.604V42.014Z" fill="#E29AA8"/>
<path d="M196.264 41.0507C195.91 41.0411 195.558 41.1052 195.229 41.239C194.901 41.3728 194.604 41.5734 194.358 41.828C194.111 42.0766 193.917 42.3725 193.787 42.698C193.657 43.0236 193.595 43.372 193.603 43.7223C193.597 44.0725 193.66 44.4204 193.789 44.7457C193.919 45.071 194.112 45.3671 194.358 45.6166C194.866 46.1149 195.549 46.3939 196.26 46.3939C196.972 46.3939 197.655 46.1149 198.163 45.6166C198.653 45.1079 198.926 44.4289 198.926 43.7225C198.926 43.016 198.653 42.3371 198.163 41.8283C197.918 41.574 197.622 41.3735 197.295 41.2396C196.968 41.1058 196.617 41.0414 196.264 41.0507ZM197.455 44.9871V44.9874C197.3 45.1466 197.114 45.2731 196.909 45.3594C196.704 45.4458 196.483 45.4903 196.261 45.4902C196.038 45.4902 195.818 45.4457 195.613 45.3593C195.408 45.2729 195.222 45.1464 195.067 44.9871C194.763 44.636 194.595 44.187 194.595 43.7225C194.595 43.2579 194.763 42.8089 195.067 42.4578C195.222 42.2984 195.408 42.1717 195.613 42.0852C195.818 41.9987 196.038 41.9542 196.261 41.9542C196.483 41.9542 196.704 41.9987 196.909 42.0852C197.114 42.1717 197.3 42.2984 197.455 42.4578C197.763 42.8068 197.933 43.2566 197.933 43.7225C197.933 44.1883 197.763 44.6381 197.455 44.9871Z" fill="#E29AA8"/>
<path d="M205.424 43.9514C205.241 43.7264 204.988 43.5692 204.705 43.5049L204.538 43.4697L204.695 43.4033C204.877 43.3257 205.033 43.197 205.144 43.0328C205.266 42.8491 205.328 42.6323 205.321 42.4119C205.33 42.2365 205.297 42.0616 205.226 41.9011C205.155 41.7406 205.047 41.5991 204.911 41.4879C204.636 41.267 204.258 41.1553 203.789 41.1553H201.382V46.289H203.961C204.504 46.289 204.938 46.1548 205.251 45.8898C205.404 45.7649 205.526 45.6064 205.609 45.4265C205.691 45.2467 205.731 45.0504 205.725 44.8527C205.738 44.5255 205.63 44.205 205.424 43.9514ZM202.353 41.9467H203.617C203.817 41.9357 204.015 41.9941 204.178 42.1119C204.247 42.1687 204.303 42.241 204.339 42.323C204.376 42.4049 204.393 42.4943 204.389 42.584C204.393 42.6722 204.375 42.76 204.339 42.8402C204.302 42.9204 204.247 42.9906 204.177 43.0451C204.014 43.1607 203.817 43.2177 203.617 43.2067H202.353V41.9467ZM204.42 45.2804C204.227 45.4153 203.994 45.4813 203.759 45.4676H202.353V43.9906H203.759C203.995 43.9768 204.228 44.0444 204.42 44.1819C204.501 44.2481 204.566 44.3324 204.608 44.428C204.651 44.5237 204.67 44.628 204.665 44.7326C204.671 44.8368 204.651 44.9409 204.609 45.0362C204.566 45.1314 204.501 45.2152 204.42 45.2804Z" fill="#E29AA8"/>
<path d="M63.3298 38.8645L63.1319 38.6188V38.6185C62.8495 38.2691 62.5858 37.9661 62.3271 37.6922C60.7838 36.0418 58.9255 34.7181 56.8621 33.7995C54.7986 32.8809 52.5721 32.386 50.3142 32.3442C48.0564 32.3024 45.8131 32.7144 43.7171 33.5559C41.6211 34.3974 39.7151 35.6514 38.1118 37.2434C37.3475 36.191 36.7281 35.0406 36.27 33.8229C40.5801 32.7166 44.2815 29.9554 46.5728 26.1371C48.8641 22.3189 49.561 17.7509 48.5126 13.422C48.4595 13.1982 48.402 12.9741 48.3396 12.7641C48.2898 12.584 48.2356 12.4086 48.1726 12.2332L48.0659 11.9332C48.0546 11.9028 48.0333 11.877 48.0055 11.8602C47.9777 11.8434 47.945 11.8365 47.9128 11.8406L47.5989 11.8848C47.3977 11.9133 47.1985 11.9449 47.0013 11.9795C46.7996 12.0143 46.6011 12.055 46.4082 12.0984C44.304 12.5553 42.3074 13.4136 40.5274 14.6264C40.1355 14.8939 39.7546 15.1767 39.3943 15.4675C36.9766 17.4184 35.1423 19.9981 34.0922 22.9236C33.0422 25.8492 32.8171 29.0076 33.4416 32.0527C32.3176 32.1581 31.1851 32.1325 30.067 31.9764C30.9003 27.8177 30.145 23.4974 27.9503 19.8693C25.7555 16.2411 22.2811 13.5692 18.2136 12.3815C18.1932 12.3516 18.1622 12.3306 18.1268 12.3228L17.1026 12.0981C17.1026 12.0981 16.7394 12.0207 16.6488 12.0041L16.2939 11.8317C16.2759 11.8229 16.2563 11.8181 16.2363 11.8175C16.2164 11.8168 16.1965 11.8204 16.178 11.828C16.1595 11.8356 16.1429 11.8471 16.1291 11.8616C16.1153 11.8761 16.1048 11.8933 16.0982 11.9122L15.9517 12.3339L15.7975 12.8833C15.7373 13.0925 15.6847 13.302 15.6311 13.5178C15.5604 13.8133 15.4957 14.1289 15.4321 14.4961C15.4167 14.5835 15.4012 14.6698 15.3901 14.7451C15.3697 14.8715 15.3498 15.0018 15.3354 15.1175C15.3067 15.3087 15.2862 15.4993 15.2658 15.6935C15.2459 15.8831 15.2298 16.0781 15.2166 16.277C15.2088 16.3946 15.2011 16.5106 15.1983 16.6077C15.1928 16.6813 15.19 16.7549 15.1884 16.8265L15.1845 16.9405C15.1806 17.1004 15.1779 17.2642 15.1779 17.4241C15.1779 17.6665 15.1812 17.9055 15.1939 18.1573C15.2011 18.3659 15.2143 18.5792 15.2342 18.7862L15.242 18.9079C15.2624 19.1019 15.2823 19.2925 15.3044 19.4668C15.3067 19.5 15.3111 19.5324 15.3155 19.5661L15.3216 19.6093C15.3415 19.7825 15.3697 19.9557 15.3945 20.0913C15.4039 20.1801 15.4181 20.2683 15.4371 20.3555C15.4395 20.374 15.443 20.3924 15.4476 20.4106C15.4681 20.5367 15.494 20.6629 15.5222 20.796C15.5394 20.882 15.5565 20.9678 15.5747 21.0419L15.5985 21.1468C15.6355 21.3125 15.6737 21.4777 15.714 21.621C15.7682 21.8426 15.829 22.0565 15.8909 22.2452C15.9044 22.3068 15.9222 22.3675 15.944 22.4267C15.9937 22.5872 16.0435 22.7485 16.096 22.8884C16.1546 23.0675 16.2198 23.2404 16.2872 23.4161L16.4276 23.7741C16.5708 24.1169 16.714 24.4392 16.8687 24.7632C16.908 24.839 16.9439 24.9118 16.9843 24.9962C17.0501 25.1267 17.1147 25.2532 17.1877 25.386C17.2446 25.4914 17.3016 25.5976 17.3535 25.6837C17.5298 26.0002 17.7089 26.2974 17.8991 26.5912C17.9289 26.6371 17.9588 26.6822 17.9892 26.7273L18.0964 26.8858C18.2296 27.0839 18.3673 27.2779 18.5038 27.4613C18.6414 27.6522 18.7868 27.8384 18.9361 28.0249C19.0842 28.2095 19.2335 28.3854 19.3882 28.5639C19.5413 28.7426 19.7027 28.9169 19.8597 29.0807C20.0123 29.2459 20.1687 29.4036 20.3202 29.5469C20.3422 29.5732 20.3666 29.5974 20.3931 29.6191C20.5529 29.7752 20.7132 29.9237 20.8768 30.0684C21.0504 30.2256 21.2311 30.3783 21.4157 30.5321C21.5584 30.6492 21.7087 30.7673 21.8364 30.863C21.9154 30.9305 22 30.9906 22.0835 31.0495C22.2609 31.1865 22.4356 31.3104 22.5821 31.4037C22.7274 31.5071 22.8717 31.6026 23 31.6825C23.0862 31.7418 23.1724 31.7974 23.226 31.8259C23.3217 31.8895 23.4178 31.9495 23.4864 31.9855C23.6135 32.0657 23.7445 32.1377 23.8396 32.1883C23.9143 32.2363 23.9916 32.2801 24.0712 32.3195C24.2094 32.3961 24.3515 32.4694 24.4902 32.5408C24.6875 32.6437 24.8921 32.7422 25.0794 32.8244C25.195 32.8803 25.3149 32.9315 25.4128 32.971C25.5421 33.0294 25.6725 33.0845 25.7682 33.1201C25.8257 33.1467 25.882 33.1677 25.9202 33.181C26.0971 33.253 26.2789 33.3182 26.4475 33.3788C26.4871 33.3964 26.5282 33.4104 26.5702 33.4206C26.7532 33.4865 26.9378 33.5457 27.1545 33.614C27.1987 33.6278 27.2435 33.6408 27.2877 33.6539C26.8209 34.9317 26.1809 36.1392 25.3857 37.2426C25.3696 37.2268 25.3536 37.2113 25.3376 37.1964L25.2541 37.1123C24.7199 36.5916 24.1513 36.1075 23.5522 35.6633L23.2133 35.4193C23.0552 35.3064 22.8982 35.1994 22.7678 35.1202C22.676 35.0547 22.5843 34.9971 22.498 34.9443C22.0164 34.6376 21.5181 34.3578 21.0056 34.1062C20.8779 34.0404 20.7458 33.9787 20.5844 33.9034C20.4948 33.8603 20.4075 33.8193 20.3384 33.7928L20.2876 33.7701C20.1284 33.6992 19.9703 33.6298 19.8337 33.5794C19.6972 33.5211 19.5601 33.4668 19.4302 33.4198C19.2882 33.3656 19.1511 33.316 19.0389 33.2804C18.9156 33.2333 18.7907 33.1924 18.6647 33.152L18.4579 33.0878C18.3684 33.0601 18.2794 33.0327 18.207 33.0142C18.0843 32.9768 17.9566 32.9406 17.8399 32.9104L17.5857 32.8454C17.5298 32.8316 17.474 32.818 17.4309 32.8086C16.9997 32.7018 16.5448 32.6114 16.0374 32.5322L15.6737 32.4827C15.572 32.468 15.4675 32.4572 15.3376 32.4442C15.2503 32.4318 15.1607 32.4235 15.0701 32.4155L14.807 32.3936C14.6782 32.3825 14.5466 32.3751 14.4195 32.3684L14.2249 32.3576C13.7441 32.3327 13.2624 32.3325 12.7816 32.3568C12.7219 32.3568 12.6617 32.361 12.576 32.3673L12.5202 32.3706C12.4063 32.3773 12.2924 32.3839 12.1885 32.3925C12.1128 32.3972 12.0409 32.4022 12.0022 32.4091C11.8856 32.4169 11.7679 32.429 11.6612 32.4417C11.5424 32.4539 11.4274 32.4664 11.3124 32.4819L10.9321 32.5344C10.5092 32.5978 10.0731 32.6833 9.5983 32.7953C9.45955 32.8283 9.32523 32.8609 9.19865 32.8952C9.10302 32.9198 9.00906 32.9467 8.91509 32.9735L8.7769 33.0131C8.64036 33.0532 8.50383 33.0936 8.36509 33.1381C8.22856 33.1821 8.09258 33.2275 7.96545 33.2723C7.82781 33.3174 7.68685 33.3675 7.55861 33.4176C7.2358 33.5377 6.92902 33.6638 6.62722 33.8008C6.53546 33.8406 6.44425 33.8802 6.37737 33.9148C6.12973 34.0268 5.88265 34.1483 5.64662 34.2742C5.5532 34.3207 5.45979 34.3713 5.34592 34.433C5.01813 34.615 4.73733 34.7816 4.4908 34.9404C4.39849 34.9977 4.30618 35.0561 4.24703 35.1003C4.08563 35.1999 3.92864 35.3067 3.76613 35.4218L3.41734 35.6739C3.37478 35.7074 3.33166 35.7403 3.28468 35.7732L3.19956 35.8388C3.1277 35.8955 3.0575 35.9514 2.99946 36.0001C2.85353 36.1124 2.7076 36.2292 2.58986 36.3346C2.51082 36.3965 2.43398 36.4646 2.35715 36.533L2.28805 36.5935C2.10067 36.7612 1.91771 36.9328 1.7259 37.1165L1.64741 37.1948C1.58329 37.2576 1.51917 37.3209 1.465 37.3776C1.36329 37.4795 1.26213 37.5851 1.15103 37.7047C1.15103 37.7047 0.606561 38.3211 0.575606 38.3551C0.348974 38.6116 0.0383244 38.9633 0.356713 39.2856L0.405909 39.3476C0.440733 39.3918 0.476109 39.4372 0.517013 39.484L0.906156 39.9253C0.912483 39.9403 0.921263 39.9541 0.932136 39.9662L1.43459 40.5226C1.45058 40.5394 1.47116 40.551 1.49374 40.5561C4.67333 43.7475 8.98717 45.5467 13.4897 45.5595H13.5959C17.1009 45.528 20.5111 44.4157 23.362 42.3741C26.1925 40.3203 28.3284 37.4495 29.4833 34.1464C30.9944 34.3787 32.5298 34.4072 34.0485 34.231C34.6377 35.9125 35.4891 37.4899 36.5713 38.9046C38.6331 41.5933 41.4465 43.6081 44.6543 44.6932C47.7206 45.7158 51.0154 45.8366 54.1482 45.0414C57.281 44.2462 60.1203 42.5683 62.3293 40.2066C62.6278 39.8857 62.8904 39.585 63.1319 39.2873L63.3298 39.0424C63.3502 39.0172 63.3613 38.9858 63.3613 38.9534C63.3613 38.921 63.3502 38.8896 63.3298 38.8645ZM51.383 38.8902C51.4167 38.9005 51.4529 38.8978 51.4846 38.8828C51.5164 38.8678 51.5415 38.8415 51.5549 38.809C51.5684 38.7765 51.5693 38.7401 51.5574 38.707C51.5456 38.6739 51.5218 38.6464 51.4908 38.6299C48.4674 36.992 44.9569 36.4956 41.5986 37.2313C44.4352 35.2385 47.886 34.3178 51.337 34.633C54.788 34.9482 58.0155 36.4788 60.445 38.9525C57.9146 41.5267 54.5239 43.0752 50.9233 43.3008C47.3226 43.5265 43.7655 42.4134 40.9342 40.1751C42.5046 39.2803 44.2367 38.706 46.0301 38.4855C47.8236 38.2649 49.643 38.4025 51.383 38.8902ZM46.7603 17.4241C46.7603 24.1044 42.0923 30.0759 35.6399 31.6792C35.43 30.678 35.324 29.6577 35.3237 28.6347C35.3187 24.8141 36.8082 21.1434 39.4733 18.4085C39.737 18.1357 40.0216 17.8651 40.3185 17.6045C40.8488 17.1379 41.4121 16.71 42.0038 16.3243C42.179 16.2104 42.3554 16.1002 42.535 15.994C43.7531 15.2686 45.0704 14.725 46.4452 14.3801C46.6549 15.3812 46.7604 16.4013 46.7603 17.4241ZM28.1694 28.6347C28.1696 29.598 28.0753 30.559 27.888 31.5038C27.8305 31.4864 27.7725 31.4681 27.7139 31.4496C27.521 31.3893 27.3303 31.3243 27.1512 31.2631L27.0555 31.2277C26.8809 31.1641 26.7045 31.0932 26.531 31.0213C26.3674 30.9546 26.2032 30.8835 26.018 30.798C25.9257 30.7604 25.8356 30.7173 25.7483 30.6691C25.6521 30.6265 25.5559 30.58 25.4067 30.5036C25.3799 30.491 25.3539 30.4769 25.3287 30.4613L25.2773 30.4334C25.1358 30.3659 24.9982 30.2876 24.8478 30.1987C24.6765 30.1041 24.5046 30.0015 24.3338 29.8905L24.2337 29.8274C24.2288 29.8242 24.2236 29.8213 24.2182 29.8189C24.0822 29.7309 23.9479 29.6404 23.8108 29.5463L23.765 29.5162C23.6207 29.4146 23.4801 29.3132 23.3432 29.2118L23.2537 29.1407C23.1287 29.0519 23.0121 28.9592 22.8739 28.8422C22.8164 28.7993 22.7623 28.7545 22.6992 28.7011C22.6252 28.64 22.5533 28.5796 22.4693 28.5044C22.3798 28.4291 22.2946 28.3503 22.1791 28.2424C22.1382 28.2086 22.1 28.1707 22.0509 28.1223L22.0188 28.0908C21.9558 28.0338 21.8911 27.9726 21.8143 27.8927C21.7308 27.813 21.6468 27.7294 21.5677 27.645L21.3179 27.3783C21.2543 27.3083 21.188 27.2358 21.1106 27.149C21.0863 27.1238 21.0636 27.0967 21.026 27.0505C20.9227 26.9318 20.8232 26.8142 20.7049 26.6662C20.6772 26.6343 20.6513 26.6034 20.6076 26.5466C20.5346 26.4609 20.4667 26.371 20.3771 26.2467C20.329 26.1884 20.2876 26.1308 20.2301 26.0481C20.1593 25.9551 20.0919 25.8591 20.0095 25.7382C19.978 25.6964 19.9504 25.6549 19.9111 25.5965L19.8791 25.5481C19.8111 25.4452 19.742 25.3417 19.6757 25.2288L19.6425 25.1793C19.6242 25.1552 19.6083 25.1293 19.595 25.1021L19.5679 25.0559C19.5126 24.9721 19.4639 24.8869 19.4048 24.7842L19.36 24.7065C19.3232 24.6498 19.2895 24.5911 19.2589 24.5308C19.1732 24.3742 19.0881 24.217 19.0029 24.0447C18.9256 23.8972 18.852 23.7461 18.7647 23.558C18.7498 23.5301 18.7376 23.5016 18.7155 23.4509C18.6398 23.2899 18.5701 23.1253 18.5038 22.9596L18.4729 22.8835C18.4704 22.8774 18.4674 22.8714 18.464 22.8658C18.4093 22.7305 18.3551 22.5896 18.291 22.4126C18.281 22.3915 18.2739 22.368 18.254 22.3097C18.2092 22.1915 18.1672 22.0695 18.1235 21.9195C18.0461 21.6993 17.9737 21.4564 17.8886 21.1296C17.8366 20.9451 17.7924 20.7581 17.7509 20.5589C17.7183 20.4164 17.6863 20.2728 17.6559 20.0799C17.6288 19.9679 17.6117 19.8561 17.5923 19.7288C17.5669 19.5811 17.5453 19.4309 17.526 19.2754C17.4461 18.6615 17.4058 18.0432 17.4055 17.4241C17.4055 17.3085 17.4088 17.1898 17.4116 17.0636L17.4138 16.9853C17.4171 16.8536 17.421 16.7247 17.432 16.5875L17.4331 16.5357C17.4359 16.4522 17.4425 16.3717 17.4502 16.2712L17.4701 16.0344C17.4762 15.9622 17.4851 15.8897 17.4945 15.8131L17.5005 15.7655C17.5276 15.5012 17.5669 15.2224 17.6199 14.9128C17.6398 14.7974 17.6603 14.6817 17.6868 14.552C20.7107 15.4653 23.3616 17.3268 25.2488 19.8622C27.136 22.3976 28.1598 25.4728 28.1694 28.6347ZM21.0658 36.6804C21.13 36.718 21.1902 36.7562 21.2543 36.7963L21.329 36.8434C21.3354 36.8476 21.3423 36.8512 21.3494 36.8542C21.3562 36.8606 21.3636 36.8663 21.3715 36.8713C21.5407 36.977 21.7115 37.0902 21.8872 37.2133C18.5523 36.5033 15.0738 37.0055 12.0752 38.6299C12.0451 38.6465 12.0222 38.6737 12.0111 38.7063C11.9999 38.7389 12.0013 38.7745 12.015 38.8061C12.0289 38.8387 12.0542 38.865 12.0862 38.8801C12.1182 38.8953 12.1546 38.8982 12.1885 38.8883C13.9207 38.4039 15.7312 38.2664 17.5165 38.4836C19.3018 38.7008 21.0268 39.2685 22.5926 40.154C19.7597 42.4023 16.1968 43.5231 12.5884 43.3013C8.98014 43.0794 5.58101 41.5305 3.04424 38.9522C3.1067 38.8883 3.17027 38.8255 3.2366 38.7618C3.51961 38.4818 3.82473 38.2054 4.14257 37.9409C4.31392 37.7998 4.4886 37.6582 4.67322 37.5229C4.98884 37.2847 5.30502 37.0653 5.61844 36.8674C5.6914 36.8171 5.76768 36.7714 5.86552 36.7125L5.92909 36.6735C6.03466 36.6088 6.13914 36.5465 6.25522 36.4823C6.32154 36.4433 6.38622 36.4082 6.47189 36.3625C6.51114 36.3401 6.54872 36.3202 6.60953 36.2875L6.69963 36.2411C6.80575 36.1863 6.91244 36.1323 7.02963 36.0745C7.14018 36.0172 7.25129 35.9638 7.36515 35.9135L7.51108 35.8484C7.58073 35.8164 7.65037 35.7845 7.73273 35.7511C7.85158 35.6993 7.97097 35.6506 8.09811 35.6003C8.21696 35.5521 8.3358 35.5079 8.46017 35.4619C8.69841 35.374 8.94439 35.2921 9.21524 35.2104C9.29097 35.1853 9.36891 35.1626 9.4474 35.1404L9.60383 35.0945C9.72046 35.0641 9.8382 35.0334 9.95649 35.0051L10.2898 34.9246C10.433 34.8917 10.5761 34.8621 10.7226 34.8361L11.0941 34.768C11.626 34.6814 12.1622 34.6233 12.7004 34.594C12.7695 34.5888 12.8391 34.586 12.9187 34.5827L12.9878 34.5796C13.3145 34.5722 13.6522 34.5724 13.9623 34.5788L14.0126 34.5813C14.1016 34.5846 14.1928 34.5882 14.2885 34.5946C14.5516 34.6098 14.8175 34.6283 15.08 34.6585C15.211 34.6729 15.3376 34.6875 15.4703 34.7072L15.8594 34.7631C15.991 34.7855 16.1181 34.8082 16.2618 34.8369C16.3287 34.8488 16.3961 34.8629 16.4962 34.8837L16.641 34.9141C16.8947 34.9706 17.149 35.0298 17.4011 35.1017C17.6421 35.1692 17.8864 35.2448 18.1246 35.3244L18.5198 35.4619C18.7631 35.5524 19.0068 35.6457 19.2528 35.7533C19.7352 35.957 20.2056 36.1881 20.6618 36.4452C20.7729 36.5078 20.8829 36.5706 20.9929 36.6359L21.0824 36.5244L21.0338 36.6608C21.0343 36.6613 21.0653 36.6801 21.0658 36.6804Z" fill="#22614E"/>
</svg>
