<svg width="57" height="48" fill="none" xmlns="http://www.w3.org/2000/svg"><path d="M27.732 1.694c12.58 0 22.816 10.086 22.816 22.483a22.11 22.11 0 0 1-.818 5.953c.6.07 1.154.356 1.554.803.65-2.194.981-4.47.981-6.756C52.265 10.847 41.26 0 27.732 0S3.2 10.846 3.2 24.177c0 2.227.314 4.442.932 6.584a2.612 2.612 0 0 1 1.628-.549 22.11 22.11 0 0 1-.842-6.035c0-12.397 10.235-22.483 22.815-22.483Zm19.443 35.752c-.097 0-.189-.006-.28-.013a4.779 4.779 0 0 1-1.218.223l-.04.004a22.746 22.746 0 0 1-7.878 6.314 23.282 23.282 0 0 1-9.903 2.34 23.3 23.3 0 0 1-9.96-2.099 22.783 22.783 0 0 1-8.035-6.12 2.98 2.98 0 0 1-.88.126 2.706 2.706 0 0 1-1.514-.425C11.927 43.964 19.276 48 27.574 48 36.077 48 43.577 43.76 48 37.334a3 3 0 0 1-.825.112Z" fill="#E29AA8"/><path d="m56.505 32.685-.177-.21a13.743 13.743 0 0 0-.72-.79 15.128 15.128 0 0 0-4.894-3.323 15.727 15.727 0 0 0-5.862-1.242 15.756 15.756 0 0 0-5.907 1.034 15.197 15.197 0 0 0-5.019 3.147 12.22 12.22 0 0 1-1.649-2.92c3.859-.943 7.173-3.3 9.225-6.56 2.051-3.258 2.675-7.157 1.736-10.852a10.066 10.066 0 0 0-.154-.561 6.09 6.09 0 0 0-.15-.453l-.095-.256a.125.125 0 0 0-.055-.063.134.134 0 0 0-.083-.016l-.28.037c-.18.025-.36.052-.536.081-.18.03-.358.065-.53.102a15.396 15.396 0 0 0-6.28 2.875c-2.165 1.665-3.808 3.867-4.748 6.364a13.824 13.824 0 0 0-.583 7.792c-1.006.09-2.02.068-3.021-.065.746-3.55.07-7.237-1.895-10.334-1.965-3.096-5.076-5.377-8.718-6.39a.128.128 0 0 0-.078-.05l-.917-.193s-.325-.066-.406-.08l-.318-.147a.132.132 0 0 0-.147.026.12.12 0 0 0-.028.043l-.131.36-.138.469c-.054.178-.101.357-.15.541-.063.252-.12.522-.177.835-.014.075-.028.149-.038.213-.018.108-.036.219-.049.317a12.657 12.657 0 0 0-.106.99c-.007.1-.014.2-.017.282a3.41 3.41 0 0 0-.009.187l-.003.098a12.081 12.081 0 0 0 .045 1.575l.006.104c.019.165.037.328.056.477.002.028.006.056.01.084l.006.037c.018.148.043.296.065.412a2.003 2.003 0 0 0 .047.272c.019.108.042.216.067.33.016.073.031.146.047.21l.022.089c.033.141.067.282.103.404.049.19.103.372.158.533.013.053.028.105.048.155.045.137.089.275.136.394.053.153.11.3.171.45l.126.306c.128.293.256.568.395.844a10.095 10.095 0 0 0 .286.532c.05.09.101.18.148.254a13.418 13.418 0 0 0 .57.89l.095.136c.12.17.243.335.365.491.123.163.253.322.387.481a15.915 15.915 0 0 0 .827.901c.137.141.277.276.412.398a11.737 11.737 0 0 0 .498.445 12.778 12.778 0 0 0 .86.679c.07.057.146.108.221.159.159.117.315.222.446.302.13.088.26.17.374.238.078.05.155.098.203.122.086.055.172.106.233.137.114.068.231.13.316.173a13.854 13.854 0 0 0 1.409.668c.116.05.232.097.318.127.052.023.102.04.136.052.159.061.321.117.472.169a.678.678 0 0 0 .11.035c.164.057.33.107.523.165l.12.035a12.494 12.494 0 0 1-1.703 3.063 1.925 1.925 0 0 0-.044-.04l-.074-.072a14.72 14.72 0 0 0-1.524-1.236l-.303-.209a6.9 6.9 0 0 0-.4-.255 14.056 14.056 0 0 0-1.578-.865 10.75 10.75 0 0 0-.596-.268l-.046-.02a7.408 7.408 0 0 0-.406-.162 7.1 7.1 0 0 0-.362-.136 7.065 7.065 0 0 0-.35-.12 6.724 6.724 0 0 0-.335-.109l-.185-.055a5.374 5.374 0 0 0-.225-.062 8.66 8.66 0 0 0-.329-.089l-.227-.055-.139-.032a15.005 15.005 0 0 0-1.247-.236l-.326-.042a7.193 7.193 0 0 0-.301-.033 4.741 4.741 0 0 0-.24-.024l-.235-.02a10.232 10.232 0 0 0-.347-.02l-.174-.01a13.26 13.26 0 0 0-1.477.009l-.05.002c-.101.006-.204.012-.296.019a1.95 1.95 0 0 0-.167.014 6.55 6.55 0 0 0-.306.028c-.106.01-.209.021-.312.034l-.34.045a15.234 15.234 0 0 0-1.806.375l-.124.034a15.844 15.844 0 0 0-1.091.345c-.289.102-.564.21-.834.327a12.25 12.25 0 0 0-.878.404c-.084.04-.167.083-.27.136a13.831 13.831 0 0 0-.983.57 8.195 8.195 0 0 0-.43.274l-.313.215a2.703 2.703 0 0 1-.119.084l-.076.056a7.912 7.912 0 0 0-.179.138c-.13.096-.261.196-.367.286-.07.052-.14.11-.208.169l-.062.052c-.168.143-.332.29-.503.446l-.07.067a10.923 10.923 0 0 0-.444.435l-.516.555c-.203.22-.481.52-.196.794l.044.053c.031.038.063.077.1.117l.348.376a.124.124 0 0 0 .023.035l.45.475a.106.106 0 0 0 .053.029c2.847 2.724 6.71 4.26 10.74 4.27h.095a15.764 15.764 0 0 0 8.745-2.719c2.534-1.753 4.446-4.203 5.48-7.022 1.353.198 2.728.223 4.088.072a14.208 14.208 0 0 0 2.259 3.99c1.846 2.294 4.365 4.014 7.237 4.94 2.745.873 5.695.976 8.5.297 2.805-.679 5.347-2.11 7.325-4.127.268-.273.503-.53.719-.784l.177-.21a.117.117 0 0 0 0-.151Zm-10.697.022a.13.13 0 0 0 .091-.007.124.124 0 0 0 .063-.063.116.116 0 0 0 .003-.087.123.123 0 0 0-.06-.065 13.386 13.386 0 0 0-8.857-1.194c2.54-1.7 5.63-2.487 8.72-2.218 3.09.27 5.979 1.576 8.154 3.687-2.265 2.197-5.301 3.519-8.525 3.711-3.224.193-6.409-.757-8.944-2.667a12.648 12.648 0 0 1 4.563-1.443 12.809 12.809 0 0 1 4.793.346ZM41.67 14.385c0 5.702-4.18 10.799-9.956 12.167a12.105 12.105 0 0 1-.283-2.598c-.005-3.261 1.329-6.394 3.715-8.729a13.139 13.139 0 0 1 2.741-2.06 13.407 13.407 0 0 1 3.501-1.378 12.1 12.1 0 0 1 .282 2.598Zm-16.645 9.569c0 .822-.084 1.642-.252 2.448l-.156-.046a21.136 21.136 0 0 1-.504-.159l-.085-.03a12.048 12.048 0 0 1-.47-.176 11.203 11.203 0 0 1-.46-.19 2.339 2.339 0 0 1-.24-.111 5.89 5.89 0 0 1-.376-.177l-.046-.024a5.014 5.014 0 0 1-.385-.2 7.608 7.608 0 0 1-.46-.264l-.09-.053a15.867 15.867 0 0 1-.379-.24l-.04-.026c-.13-.087-.256-.173-.378-.26l-.08-.06a4.922 4.922 0 0 1-.34-.255 6.475 6.475 0 0 1-.622-.512 1.578 1.578 0 0 1-.115-.103l-.029-.027a3.445 3.445 0 0 1-.183-.169 5.572 5.572 0 0 1-.22-.211l-.224-.228c-.057-.06-.117-.121-.186-.195a2.532 2.532 0 0 1-.788-.94 6.151 6.151 0 0 1-.198-.265 2.274 2.274 0 0 1-.088-.12l-.029-.042c-.06-.088-.122-.176-.182-.272l-.03-.043a.413.413 0 0 1-.042-.065l-.024-.04c-.05-.071-.093-.144-.146-.232l-.04-.066a10.75 10.75 0 0 1-.32-.565 9.135 9.135 0 0 1-.213-.415 7.558 7.558 0 0 1-.234-.51l-.028-.066a10.6 10.6 0 0 1-.163-.402c-.009-.018-.015-.038-.033-.088a4.16 4.16 0 0 1-.117-.333 8.083 8.083 0 0 1-.21-.674 6.914 6.914 0 0 1-.123-.487 5.393 5.393 0 0 1-.085-.409 3.331 3.331 0 0 1-.057-.3 11.717 11.717 0 0 1-.167-1.967c0-.098.002-.2.005-.307l.002-.067a5.78 5.78 0 0 1 .016-.34l.001-.044c.003-.071.009-.14.016-.226l.017-.202c.006-.062.014-.123.022-.189l.006-.04a10.393 10.393 0 0 1 .166-1.036c2.708.78 5.081 2.368 6.771 4.532 1.69 2.164 2.607 4.789 2.615 7.488Zm-6.36 6.867c.057.032.111.064.169.099l.066.04a.104.104 0 0 0 .019.009.13.13 0 0 0 .02.015c.15.09.304.186.461.292a13.388 13.388 0 0 0-8.785 1.209.12.12 0 0 0-.057.065.113.113 0 0 0 .003.085c.012.028.035.05.064.063a.135.135 0 0 0 .091.007 12.823 12.823 0 0 1 4.77-.345c1.6.185 3.144.67 4.546 1.426-2.537 1.918-5.727 2.875-8.957 2.686-3.231-.19-6.275-1.512-8.546-3.712.056-.055.113-.108.172-.163a12.614 12.614 0 0 1 2.133-1.617c.065-.043.134-.082.221-.132l.057-.033c.095-.055.188-.109.292-.163.06-.034.117-.064.194-.103l.123-.064.08-.04a18.326 18.326 0 0 1 .597-.279l.13-.055a11.013 11.013 0 0 1 .85-.33 11.986 11.986 0 0 1 .884-.275l.14-.039c.105-.026.21-.052.316-.076l.298-.069a8.17 8.17 0 0 1 .388-.075l.333-.058c.476-.074.956-.124 1.438-.149.062-.005.124-.007.195-.01l.062-.002a21.2 21.2 0 0 1 .873-.001l.045.002c.08.003.161.006.247.012a13.162 13.162 0 0 1 1.058.096l.348.047c.118.02.232.039.36.063.06.01.12.023.21.04l.13.026a12.35 12.35 0 0 1 1.328.35l.354.118c.218.077.436.157.657.248a12.626 12.626 0 0 1 1.558.754l.08-.095-.044.116.029.017Z" fill="#2B5644"/></svg>