<svg width="206" height="56" fill="none" xmlns="http://www.w3.org/2000/svg"><path d="M31.793 2.146c14.242 0 25.828 11.598 25.828 25.854 0 2.313-.312 4.615-.926 6.845.68.08 1.307.409 1.76.924A27.738 27.738 0 0 0 59.564 28C59.565 12.67 47.108.198 31.793.198 16.48.198 4.021 12.67 4.021 28c.001 2.56.356 5.108 1.056 7.57a2.927 2.927 0 0 1 1.843-.63A25.8 25.8 0 0 1 5.967 28c0-14.256 11.586-25.854 25.826-25.854ZM53.91 43.602a3.55 3.55 0 0 1-.315-.016 5.28 5.28 0 0 1-1.374.258l-.047.005a25.787 25.787 0 0 1-8.888 7.299 25.757 25.757 0 0 1-22.412.278 25.786 25.786 0 0 1-9.067-7.075c-.322.1-.657.15-.994.147a3 3 0 0 1-1.709-.491c5.033 7.129 13.325 11.795 22.689 11.795 9.595 0 18.058-4.903 23.048-12.33a3.309 3.309 0 0 1-.931.13Z" fill="#E29AA8"/><path d="m83.174 23.045-.06-.091-5.969-9.009h-3.408v17.937h3.12V18.798l6.157 9.287h.319l6.158-9.26v13.057h3.119V13.945h-3.38l-6.056 9.1Zm20.904 3.313V13.945h-3.119v17.937h2.446l9.476-12.412v12.412H116V13.945h-2.447l-9.475 12.413Zm32.184-10.725c-1.23-1.12-2.79-1.687-4.635-1.687h-7.251v17.937h3.119v-6.2h4.132c1.845 0 3.405-.567 4.635-1.685 1.246-1.134 1.877-2.542 1.877-4.183a5.407 5.407 0 0 0-1.877-4.182Zm-2.201 6.495c-.635.604-1.454.911-2.434.911h-4.132v-6.448h4.132c.98 0 1.798.306 2.434.911a3.263 3.263 0 0 1 0 4.626Zm23.177-6.495h-.001c-1.23-1.12-2.789-1.687-4.634-1.687h-7.251v17.937h3.119v-6.2h4.132c1.845 0 3.404-.567 4.634-1.685 1.246-1.135 1.878-2.542 1.878-4.183a5.407 5.407 0 0 0-1.877-4.182Zm-2.202 6.495c-.635.604-1.453.911-2.433.911h-4.132v-6.448h4.132c.979 0 1.798.306 2.433.911a3.275 3.275 0 0 1 .96 2.313 3.274 3.274 0 0 1-.96 2.313Zm18.116-8.518a10.969 10.969 0 0 0-4.977 1.142 8.769 8.769 0 0 0-3.491 3.071l2.708 1.43a5.705 5.705 0 0 1 2.321-2.1 7.445 7.445 0 0 1 3.439-.795c1.823 0 3.381.47 4.627 1.396a5.958 5.958 0 0 1 2.342 3.751l.016.087h-9.552v2.644h9.552l-.016.087a5.957 5.957 0 0 1-2.342 3.751c-1.246.926-2.803 1.396-4.627 1.396a7.441 7.441 0 0 1-3.439-.795 5.712 5.712 0 0 1-2.322-2.1l-2.707 1.404a8.84 8.84 0 0 0 3.505 3.085 10.888 10.888 0 0 0 4.963 1.154c2.958 0 5.424-.897 7.331-2.667 1.924-1.768 2.9-4.002 2.9-6.637s-.976-4.86-2.899-6.611c-1.908-1.787-4.375-2.693-7.332-2.693Zm30.18.335-9.475 12.413V13.945h-3.119v17.937h2.446l9.476-12.412v12.412h3.119V13.945h-2.447Zm-1.159-4.236h-7.802v2.283h7.802V9.71Z" fill="#22614E"/><path d="M73.723 42.014h1.652v4.275h.971v-4.275h1.66v-.859h-4.283v.859Zm8.66-.964a2.554 2.554 0 0 0-1.906.778 2.595 2.595 0 0 0-.756 1.894 2.631 2.631 0 0 0 .756 1.895 2.718 2.718 0 0 0 3.805 0 2.733 2.733 0 0 0 0-3.789 2.55 2.55 0 0 0-1.9-.777Zm1.19 3.937a1.67 1.67 0 0 1-2.388 0 1.934 1.934 0 0 1 0-2.53 1.668 1.668 0 0 1 2.388 0 1.91 1.91 0 0 1 0 2.53Zm7.252-1.482-.167-.035.157-.067c.182-.078.338-.206.448-.37.122-.184.184-.4.178-.621a1.12 1.12 0 0 0-.41-.924c-.276-.221-.653-.333-1.122-.333H87.5v5.134h2.58c.542 0 .976-.134 1.289-.4a1.29 1.29 0 0 0 .475-1.036 1.345 1.345 0 0 0-.302-.902 1.296 1.296 0 0 0-.718-.446Zm-2.353-1.558h1.265a.87.87 0 0 1 .56.165.575.575 0 0 1 .211.472.554.554 0 0 1-.211.461.885.885 0 0 1-.56.162h-1.265v-1.26Zm2.068 3.333c-.194.135-.427.2-.662.188h-1.406V43.99h1.406c.236-.014.47.054.662.19a.669.669 0 0 1 .244.552.66.66 0 0 1-.244.547Zm5.462-4.155-2.198 5.163h1.013l.516-1.213h2.285l.013.033.503 1.18h1.028l-2.199-5.163h-.96Zm-.378 3.167.032-.075.82-1.936.843 2.01h-1.695Zm7.98-3.137h-2.235v5.134h.97v-2.074h1.265c.547 0 .983-.144 1.295-.428a1.505 1.505 0 0 0 .353-1.702 1.518 1.518 0 0 0-.352-.502c-.313-.284-.749-.428-1.296-.428Zm.564 2.067a1.03 1.03 0 0 1-.639.18h-1.19v-1.41h1.19c.227-.013.452.05.639.18a.696.696 0 0 1 .175.813.695.695 0 0 1-.175.237Zm9.18-2.067h-.97v5.134h.97v-5.134Zm-3.677 1.73h-1.026v-1.73h-.97v5.134h1.996c.602 0 1.088-.16 1.445-.473a1.683 1.683 0 0 0 0-2.45c-.353-.32-.839-.481-1.445-.481Zm.71 2.335c-.223.161-.495.24-.77.225h-.966v-1.754h.966a1.19 1.19 0 0 1 .771.23.799.799 0 0 1 .284.655.779.779 0 0 1-.285.644Zm13.869-4.065h-3.573v.778a10.71 10.71 0 0 1-.166 2.107 4.029 4.029 0 0 1-.531 1.366l-.016.024h-.491v1.93h.903v-1.071h3.689v1.07h.903V45.43h-.718v-4.275Zm-.971 4.275h-2.24l.037-.077c.216-.452.365-.934.441-1.43.088-.614.129-1.235.123-1.855v-.054h1.639v3.416Zm4.556-2.792c-.015 1.052-.073 1.786-.173 2.183-.107.41-.315.617-.62.617a1.248 1.248 0 0 1-.329-.04v.863c.126.037.257.054.388.05.603 0 1.01-.218 1.246-.667.235-.45.375-1.296.414-2.515l.031-1.115h1.691v4.275h.963v-5.134h-3.589l-.022 1.483Zm6.82-1.062h-.001a1.365 1.365 0 0 0-.468 1.075c-.007.316.091.624.277.878.195.254.468.438.777.524l.072.022-1.621 2.214h1.11l1.54-2.119h.993v2.119h.97v-5.134h-2.37c-.542 0-.972.142-1.279.42Zm2.679.415v1.38h-1.34a.946.946 0 0 1-.605-.176.697.697 0 0 1-.167-.79.695.695 0 0 1 .166-.233.936.936 0 0 1 .606-.18h1.34Zm10.913-.551-.051-.002v-.477h-.979v.477l-.051.002c-.785.029-1.402.263-1.833.696a2.177 2.177 0 0 0-.643 1.542 2.174 2.174 0 0 0 .643 1.542c.426.432 1.043.666 1.833.695l.051.002v.574h.979v-.574l.051-.002c.79-.03 1.407-.263 1.834-.696a2.172 2.172 0 0 0 0-3.083c-.432-.433-1.049-.667-1.834-.696Zm-1.03 3.61-.054-.001c-.461-.01-.825-.14-1.083-.386a1.454 1.454 0 0 1 0-1.98c.259-.245.623-.371 1.084-.377h.053v2.744Zm2.116-.387c-.259.245-.623.375-1.083.386h-.054v-2.743h.054c.459.006.824.133 1.083.378a1.448 1.448 0 0 1 0 1.98Zm4.317-2.025c-.015 1.052-.074 1.786-.174 2.183-.106.41-.315.617-.62.617a1.245 1.245 0 0 1-.328-.04v.863c.126.038.257.055.388.05.602 0 1.01-.218 1.247-.667.234-.45.373-1.297.412-2.515l.032-1.115h1.69v4.275h.963v-5.134h-3.588l-.022 1.483Zm9.365-1.588a2.555 2.555 0 0 0-1.907.778 2.603 2.603 0 0 0-.755 1.894 2.635 2.635 0 0 0 .755 1.895 2.717 2.717 0 0 0 3.805 0 2.73 2.73 0 0 0 0-3.789 2.54 2.54 0 0 0-1.898-.777Zm1.19 3.937a1.663 1.663 0 0 1-1.842.372 1.674 1.674 0 0 1-.546-.372 1.932 1.932 0 0 1 0-2.53 1.664 1.664 0 0 1 2.388 0 1.911 1.911 0 0 1 0 2.53Zm6.163-3.832h-2.235v5.134h.971v-2.074h1.264c.547 0 .982-.144 1.295-.428a1.517 1.517 0 0 0 .352-1.702 1.49 1.49 0 0 0-.352-.502c-.313-.284-.748-.428-1.295-.428Zm.564 2.067a1.03 1.03 0 0 1-.639.18h-1.189v-1.41h1.189c.227-.013.452.05.639.18a.709.709 0 0 1 .237.524.698.698 0 0 1-.237.526Zm4.477 1.455v-3.522h-.971v5.134h.826l2.645-3.544v3.544h.962v-5.134h-.847l-2.615 3.522Zm7.444.319a1.82 1.82 0 0 1-.015-2.54 1.8 1.8 0 0 1 1.286-.502c.466-.006.924.119 1.323.36v-.956a2.885 2.885 0 0 0-1.331-.308 2.802 2.802 0 0 0-1.997.75 2.74 2.74 0 0 0 .008 3.845 3.032 3.032 0 0 0 3.424.39v-.948c-.407.276-.89.417-1.382.403a1.835 1.835 0 0 1-1.316-.494Zm4.751-2.982h1.652v4.275h.971v-4.275h1.66v-.859h-4.283v.859Zm8.66-.964a2.562 2.562 0 0 0-1.906.778 2.605 2.605 0 0 0-.755 1.894 2.63 2.63 0 0 0 .755 1.894 2.716 2.716 0 0 0 3.805 0 2.73 2.73 0 0 0 0-3.788 2.544 2.544 0 0 0-1.899-.777Zm1.191 3.937a1.663 1.663 0 0 1-1.194.503 1.667 1.667 0 0 1-1.194-.503 1.933 1.933 0 0 1 0-2.53 1.664 1.664 0 0 1 2.388 0 1.911 1.911 0 0 1 0 2.53Zm7.969-1.036a1.297 1.297 0 0 0-.719-.446l-.167-.035.157-.067a1.03 1.03 0 0 0 .626-.991 1.121 1.121 0 0 0-.41-.924c-.275-.221-.653-.333-1.122-.333h-2.407v5.134h2.579c.543 0 .977-.134 1.29-.4a1.3 1.3 0 0 0 .474-1.036 1.346 1.346 0 0 0-.301-.902Zm-3.071-2.004h1.264c.2-.011.398.047.561.165a.574.574 0 0 1 .211.472.564.564 0 0 1-.212.461.883.883 0 0 1-.56.162h-1.264v-1.26Zm2.067 3.333a1.052 1.052 0 0 1-.661.188h-1.406V43.99h1.406c.236-.014.469.053.661.19a.664.664 0 0 1 .245.552.66.66 0 0 1-.245.547Z" fill="#E29AA8"/><path d="m63.33 38.864-.198-.245a16.883 16.883 0 0 0-12.818-6.274 16.868 16.868 0 0 0-12.202 4.898 14.523 14.523 0 0 1-1.842-3.42 16.923 16.923 0 0 0 10.303-7.686 16.956 16.956 0 0 0 1.767-13.373 7.376 7.376 0 0 0-.167-.53l-.107-.3a.144.144 0 0 0-.153-.093l-.314.044c-.201.028-.4.06-.598.095a16.76 16.76 0 0 0-7.607 3.488 16.947 16.947 0 0 0-5.953 16.585c-1.123.105-2.256.08-3.374-.077A16.956 16.956 0 0 0 27.95 19.87a16.925 16.925 0 0 0-9.736-7.487.142.142 0 0 0-.087-.06l-1.024-.224s-.364-.077-.454-.094l-.355-.172a.14.14 0 0 0-.165.03.14.14 0 0 0-.03.05l-.147.422-.155.55a15.597 15.597 0 0 0-.365 1.613l-.042.248c-.02.127-.04.257-.055.373a15.326 15.326 0 0 0-.119 1.16c-.007.117-.015.233-.018.33a4.202 4.202 0 0 0-.01.218l-.004.114c-.003.16-.006.324-.006.484a14 14 0 0 0 .016.733c.007.209.02.422.04.63l.008.12c.02.195.04.386.062.56l.011.1.007.042c.02.173.048.347.073.482a2.455 2.455 0 0 0 .053.32c.02.126.046.252.074.385.017.086.034.172.053.246l.024.105c.037.166.075.33.115.474.054.222.115.436.177.624.013.062.031.122.053.182.05.16.1.322.152.461.059.18.124.352.191.528l.14.358c.144.343.287.665.442.99a12.114 12.114 0 0 0 .319.623c.057.104.114.21.165.297a15.834 15.834 0 0 0 .636 1.043l.107.159c.134.198.271.392.408.575.137.191.283.377.432.564a18.38 18.38 0 0 0 .924 1.056c.152.165.309.323.46.466a13.283 13.283 0 0 0 .557.521 15.526 15.526 0 0 0 1.207.981 7.3 7.3 0 0 0 .498.355c.145.103.29.199.418.279.086.059.172.114.226.143.096.064.192.123.26.16.127.08.258.152.354.202a15.492 15.492 0 0 0 1.929.932c.057.027.113.048.151.061.177.072.359.137.527.198.04.017.081.031.123.042.183.066.368.125.584.193l.134.04a14.858 14.858 0 0 1-1.902 3.589 2.557 2.557 0 0 0-.048-.047l-.084-.084a16.62 16.62 0 0 0-1.702-1.449l-.339-.244a7.63 7.63 0 0 0-.445-.299 15.47 15.47 0 0 0-1.762-1.014c-.128-.066-.26-.127-.422-.203a3.584 3.584 0 0 0-.246-.11l-.05-.023a7.95 7.95 0 0 0-.454-.19 7.766 7.766 0 0 0-.404-.16 7.62 7.62 0 0 0-.391-.14 7.234 7.234 0 0 0-.374-.128l-.207-.064a5.66 5.66 0 0 0-.251-.074 9.16 9.16 0 0 0-.367-.104l-.254-.065a16.043 16.043 0 0 0-1.548-.313l-.364-.05a7.76 7.76 0 0 0-.336-.038 5.105 5.105 0 0 0-.268-.029l-.263-.021c-.129-.011-.26-.019-.388-.026l-.194-.01a14.122 14.122 0 0 0-1.649.01l-.056.003a14.034 14.034 0 0 0-.518.038 6.72 6.72 0 0 0-.34.033c-.12.012-.235.024-.35.04l-.38.052a16.306 16.306 0 0 0-1.733.361c-.096.025-.19.052-.284.078l-.138.04a17.287 17.287 0 0 0-1.218.405c-.323.12-.63.246-.932.383-.092.04-.183.08-.25.114-.247.112-.494.233-.73.36a15.264 15.264 0 0 0-1.4.826 9.303 9.303 0 0 0-.48.32l-.35.253a2.925 2.925 0 0 1-.132.1l-.085.065A8.988 8.988 0 0 0 3 36c-.146.112-.292.23-.41.335-.08.062-.156.13-.233.198l-.069.06c-.187.168-.37.34-.562.523l-.079.079a12.487 12.487 0 0 0-.496.51l-.575.65c-.227.257-.538.608-.22.93l.05.063c.035.044.07.09.111.136l.39.441a.146.146 0 0 0 .025.041l.503.557a.117.117 0 0 0 .059.033A17.002 17.002 0 0 0 13.49 45.56h.106a17.036 17.036 0 0 0 9.766-3.186 17.164 17.164 0 0 0 6.121-8.228c1.511.233 3.047.261 4.565.085a16.878 16.878 0 0 0 2.523 4.674 17.086 17.086 0 0 0 8.083 5.788 16.88 16.88 0 0 0 17.675-4.486c.299-.321.561-.622.803-.92l.198-.245a.141.141 0 0 0 0-.178Zm-11.947.026a.141.141 0 0 0 .174-.183.141.141 0 0 0-.066-.077 14.329 14.329 0 0 0-9.892-1.399 14.626 14.626 0 0 1 18.846 1.721 14.635 14.635 0 0 1-19.51 1.223 13.66 13.66 0 0 1 10.448-1.285ZM46.76 17.424c0 6.68-4.668 12.652-11.12 14.255a14.86 14.86 0 0 1-.316-3.044 14.625 14.625 0 0 1 4.995-11.03 14.72 14.72 0 0 1 6.126-3.225 14.84 14.84 0 0 1 .315 3.044Zm-18.59 11.21c0 .964-.095 1.925-.282 2.87a22.54 22.54 0 0 1-.737-.24l-.096-.036a13.033 13.033 0 0 1-.524-.207 12.095 12.095 0 0 1-.513-.223 2.544 2.544 0 0 1-.27-.129 6.472 6.472 0 0 1-.42-.208l-.05-.028a5.501 5.501 0 0 1-.43-.234 8.361 8.361 0 0 1-.514-.309l-.1-.063a17.967 17.967 0 0 1-.423-.281l-.046-.03a21.637 21.637 0 0 1-.422-.304l-.09-.071a5.542 5.542 0 0 1-.38-.299 7.232 7.232 0 0 1-.405-.338 7.476 7.476 0 0 1-.289-.262 1.85 1.85 0 0 1-.128-.12l-.032-.031a3.93 3.93 0 0 1-.205-.198 6.33 6.33 0 0 1-.246-.248l-.25-.267c-.064-.07-.13-.142-.207-.229a2.908 2.908 0 0 1-.88-1.1 7.145 7.145 0 0 1-.221-.31 2.992 2.992 0 0 1-.099-.143l-.032-.048c-.068-.103-.137-.206-.203-.32l-.034-.049a.467.467 0 0 1-.047-.077l-.027-.046c-.055-.084-.104-.17-.163-.272l-.045-.078a12.965 12.965 0 0 1-.357-.662 10.751 10.751 0 0 1-.238-.486c-.015-.028-.027-.056-.05-.107a9.094 9.094 0 0 1-.211-.491l-.031-.076a12.827 12.827 0 0 1-.182-.47c-.01-.023-.017-.046-.037-.104a5.057 5.057 0 0 1-.13-.39 9.756 9.756 0 0 1-.235-.79 8.414 8.414 0 0 1-.138-.571 6.61 6.61 0 0 1-.095-.48 4.117 4.117 0 0 1-.064-.35 14.397 14.397 0 0 1-.187-2.305c0-.116.004-.234.007-.36l.002-.079c.003-.131.007-.26.018-.398l.001-.051c.003-.084.01-.164.017-.265l.02-.237c.006-.072.015-.144.024-.22l.006-.049a12.74 12.74 0 0 1 .187-1.213 14.74 14.74 0 0 1 7.562 5.31 14.767 14.767 0 0 1 2.92 8.773Zm-7.104 8.046c.064.038.124.076.188.116l.075.047a.128.128 0 0 0 .02.011.147.147 0 0 0 .023.017c.169.106.34.22.515.342a14.333 14.333 0 0 0-9.812 1.417.138.138 0 0 0-.06.176.144.144 0 0 0 .173.082 13.658 13.658 0 0 1 10.405 1.266 14.647 14.647 0 0 1-19.549-1.202c.063-.064.126-.127.193-.19a14.292 14.292 0 0 1 2.381-1.895c.073-.05.15-.096.248-.154l.063-.04c.106-.064.21-.127.326-.19a4.24 4.24 0 0 1 .217-.12c.04-.023.077-.043.138-.075l.09-.047a19.702 19.702 0 0 1 .665-.328l.146-.065a11.447 11.447 0 0 1 .587-.248c.119-.048.238-.092.362-.138.238-.088.484-.17.755-.252.076-.025.154-.047.232-.07l.157-.046.352-.089.334-.08c.143-.033.286-.063.433-.089l.371-.068a15.106 15.106 0 0 1 1.606-.174c.07-.005.14-.008.219-.011l.069-.003c.327-.008.664-.008.974-.001l.05.002c.09.004.18.007.277.014a14.015 14.015 0 0 1 1.181.112l.39.056c.131.023.258.045.402.074.067.012.134.026.234.047l.145.03a13.327 13.327 0 0 1 1.484.41l.395.138c.243.09.487.184.733.291a13.82 13.82 0 0 1 1.74.883l.09-.112-.05.137.033.02Z" fill="#22614E"/></svg>