<svg width="24" height="24" fill="none" xmlns="http://www.w3.org/2000/svg"><path d="M12.063 20.317a4.594 4.594 0 0 1-3.25-1.342L5.038 15.2a4.624 4.624 0 0 1-1.342-3.475l.2-4.166a3.84 3.84 0 0 1 3.667-3.667l4.167-.2a4.655 4.655 0 0 1 3.474 1.342l3.776 3.775a4.612 4.612 0 0 1 0 6.508l-3.659 3.658a4.613 4.613 0 0 1-3.258 1.342ZM5.92 14.31l3.775 3.775a3.329 3.329 0 0 0 2.367.983 3.33 3.33 0 0 0 2.367-.983l3.658-3.659a3.33 3.33 0 0 0 .983-2.366 3.33 3.33 0 0 0-.983-2.367l-3.775-3.775a3.337 3.337 0 0 0-2.525-.975l-4.167.2A2.578 2.578 0 0 0 5.138 7.61l-.2 4.166a3.382 3.382 0 0 0 .983 2.534Z" fill="#fff"/><path d="M9.92 12.625a2.714 2.714 0 0 1-2.71-2.708 2.714 2.714 0 0 1 2.71-2.708 2.714 2.714 0 0 1 2.708 2.708 2.714 2.714 0 0 1-2.709 2.708Zm0-4.166c-.8 0-1.46.658-1.46 1.458 0 .8.66 1.458 1.46 1.458.8 0 1.458-.658 1.458-1.458 0-.8-.659-1.458-1.459-1.458Z" fill="#fff"/></svg>