<svg width="44" height="44" fill="none" xmlns="http://www.w3.org/2000/svg"><rect width="44" height="44" rx="22" fill="#2B5644"/><path d="M21.27 30a1.231 1.231 0 1 0-.001-2.462 1.231 1.231 0 0 0 0 2.462Zm5.539 0a1.231 1.231 0 1 0-.001-2.462 1.231 1.231 0 0 0 0 2.462ZM24.2 17.736a4.927 4.927 0 0 0-5.248-3.713 4.921 4.921 0 0 0-4.445 4.645 4.93 4.93 0 0 0 1.84 4.104m3.079-3.83 1.846-1.847m.613 7.991v-1.231H20.04a2.46 2.46 0 0 0-2.46 2.463v2.462m12.921-.01v-6.158a1.232 1.232 0 0 0-1.23-1.231h-6.154a1.23 1.23 0 0 0-1.23 1.231v2.463" stroke="#fff" stroke-linecap="round" stroke-linejoin="round"/></svg>