<svg width="24" height="24" fill="none" xmlns="http://www.w3.org/2000/svg"><path d="M12.005 20.958c-4.941 0-8.958-4.016-8.958-8.958s4.017-8.96 8.958-8.96c4.942 0 8.958 4.017 8.958 8.959 0 4.942-4.016 8.958-8.958 8.958Zm0-16.666c-4.25 0-7.708 3.458-7.708 7.708s3.458 7.708 7.708 7.708S19.713 16.25 19.713 12s-3.458-7.708-7.708-7.708Z" fill="#fff"/><path d="M15.095 15.275a.558.558 0 0 1-.317-.092l-2.583-1.541c-.642-.384-1.117-1.225-1.117-1.967V8.258a.63.63 0 0 1 .625-.625.63.63 0 0 1 .625.625v3.417c0 .3.25.742.508.892l2.584 1.541c.3.175.392.559.216.859a.642.642 0 0 1-.541.308Z" fill="#fff"/></svg>