<svg width="44" height="44" fill="none" xmlns="http://www.w3.org/2000/svg"><rect width="44" height="44" rx="22" fill="#2B5644"/><path d="M27.5 19.538C27.5 22.604 22 30 22 30s-5.5-7.397-5.5-10.462c0-1.468.58-2.877 1.61-3.916A5.48 5.48 0 0 1 22 14a5.48 5.48 0 0 1 3.89 1.622 5.558 5.558 0 0 1 1.61 3.916v0Z" stroke="#fff" stroke-linecap="round" stroke-linejoin="round"/><path d="M22.001 21.385a1.84 1.84 0 0 0 1.834-1.846A1.84 1.84 0 0 0 22 17.693a1.84 1.84 0 0 0-1.833 1.846c0 1.02.82 1.846 1.833 1.846Z" stroke="#fff" stroke-linecap="round" stroke-linejoin="round"/></svg>