<svg width="24" height="24" fill="none" xmlns="http://www.w3.org/2000/svg"><path d="M15.569 20.417h-3.167c-.467 0-1.483-.142-2.025-.684l-2.525-1.95.767-.991 2.583 2c.208.2.733.366 1.2.366h3.167c.75 0 1.558-.6 1.725-1.275l2.016-6.125c.134-.366.109-.7-.066-.941-.184-.259-.517-.409-.925-.409h-3.334a1.46 1.46 0 0 1-1.108-.5 1.487 1.487 0 0 1-.342-1.208l.417-2.675c.1-.467-.217-.992-.667-1.142-.408-.15-.933.067-1.116.334L8.752 10.3 7.72 9.608l3.416-5.083c.525-.783 1.675-1.158 2.575-.817 1.042.342 1.709 1.492 1.475 2.559l-.408 2.625a.256.256 0 0 0 .05.208c.042.042.1.067.167.067h3.333c.817 0 1.525.341 1.942.933.408.575.491 1.333.225 2.067l-1.992 6.066c-.308 1.209-1.592 2.184-2.933 2.184Z" fill="#fff"/><path d="M6.488 19.5h-.833c-1.542 0-2.292-.725-2.292-2.209V9.125c0-1.484.75-2.208 2.292-2.208h.833c1.542 0 2.292.724 2.292 2.208v8.166c0 1.484-.75 2.209-2.292 2.209ZM5.655 8.166c-.908 0-1.042.217-1.042.959v8.166c0 .742.134.959 1.042.959h.833c.909 0 1.042-.217 1.042-.959V9.125c0-.742-.133-.959-1.042-.959h-.833Z" fill="#fff"/></svg>