<svg width="24" height="24" viewBox="0 0 24 24" fill="none" xmlns="http://www.w3.org/2000/svg">
<path d="M12.0628 20.3171C10.8878 20.3171 9.70447 19.8671 8.8128 18.9754L5.0378 15.2004C4.12113 14.2837 3.6378 13.0171 3.69613 11.7254L3.89613 7.55872C3.9878 5.56706 5.5628 3.99206 7.5628 3.89206L11.7295 3.69206C13.0211 3.64206 14.2878 4.11706 15.2045 5.03372L18.9795 8.80872C20.7711 10.6004 20.7711 13.5254 18.9795 15.3171L15.3211 18.9754C14.4211 19.8671 13.2461 20.3171 12.0628 20.3171ZM5.92113 14.3087L9.69613 18.0837C10.3295 18.7171 11.1711 19.0671 12.0628 19.0671C12.9545 19.0671 13.7961 18.7171 14.4295 18.0837L18.0878 14.4254C18.7211 13.7921 19.0711 12.9504 19.0711 12.0587C19.0711 11.1671 18.7211 10.3254 18.0878 9.69206L14.3128 5.91706C13.6461 5.25039 12.7211 4.89206 11.7878 4.94206L7.62113 5.14206C6.2628 5.20039 5.20447 6.25872 5.1378 7.60872L4.9378 11.7754C4.89613 12.7171 5.25447 13.6421 5.92113 14.3087Z" fill="white"/>
<path d="M9.91927 12.6252C8.4276 12.6252 7.21094 11.4085 7.21094 9.91683C7.21094 8.42516 8.4276 7.2085 9.91927 7.2085C11.4109 7.2085 12.6276 8.42516 12.6276 9.91683C12.6276 11.4085 11.4109 12.6252 9.91927 12.6252ZM9.91927 8.4585C9.11927 8.4585 8.46094 9.11683 8.46094 9.91683C8.46094 10.7168 9.11927 11.3752 9.91927 11.3752C10.7193 11.3752 11.3776 10.7168 11.3776 9.91683C11.3776 9.11683 10.7193 8.4585 9.91927 8.4585Z" fill="white"/>
</svg>
