<svg width="44" height="44" viewBox="0 0 44 44" fill="none" xmlns="http://www.w3.org/2000/svg">
<rect width="44" height="44" rx="22" fill="#2B5644"/>
<path d="M21.2697 29.9999C21.9494 29.9999 22.5004 29.4486 22.5004 28.7685C22.5004 28.0884 21.9494 27.5371 21.2697 27.5371C20.59 27.5371 20.0391 28.0884 20.0391 28.7685C20.0391 29.4486 20.59 29.9999 21.2697 29.9999Z" stroke="white" stroke-linecap="round" stroke-linejoin="round"/>
<path d="M26.8088 29.9999C27.4884 29.9999 28.0394 29.4486 28.0394 28.7685C28.0394 28.0884 27.4884 27.5371 26.8088 27.5371C26.1291 27.5371 25.5781 28.0884 25.5781 28.7685C25.5781 29.4486 26.1291 29.9999 26.8088 29.9999Z" stroke="white" stroke-linecap="round" stroke-linejoin="round"/>
<path d="M24.1994 17.7357C24.0105 16.9766 23.6437 16.2734 23.1293 15.6844C22.6148 15.0953 21.9675 14.6374 21.241 14.3484C20.5145 14.0594 19.7297 13.9477 18.9515 14.0226C18.1733 14.0975 17.4241 14.3567 16.7659 14.7789C16.1078 15.2011 15.5595 15.7741 15.1667 16.4504C14.7738 17.1267 14.5476 17.8869 14.5067 18.6681C14.4659 19.4493 14.6116 20.229 14.9317 20.9427C15.2519 21.6563 15.7373 22.2834 16.3479 22.7721" stroke="white" stroke-linecap="round" stroke-linejoin="round"/>
<path d="M19.4258 18.9423L21.2718 17.0952" stroke="white" stroke-linecap="round" stroke-linejoin="round"/>
<path d="M21.8854 25.0864V23.855H20.0394C19.3866 23.855 18.7606 24.1145 18.299 24.5763C17.8374 25.0382 17.5781 25.6646 17.5781 26.3178V28.7805" stroke="white" stroke-linecap="round" stroke-linejoin="round"/>
<path d="M30.5013 28.7692V22.6122C30.5013 22.2857 30.3716 21.9725 30.1408 21.7415C29.91 21.5106 29.597 21.3809 29.2706 21.3809H23.1174C22.791 21.3809 22.478 21.5106 22.2472 21.7415C22.0164 21.9725 21.8867 22.2857 21.8867 22.6122V25.075" stroke="white" stroke-linecap="round" stroke-linejoin="round"/>
</svg>
