<svg width="24" height="24" viewBox="0 0 24 24" fill="none" xmlns="http://www.w3.org/2000/svg">
<path d="M12.0052 20.9582C7.06354 20.9582 3.04688 16.9415 3.04688 11.9998C3.04688 7.05817 7.06354 3.0415 12.0052 3.0415C16.9469 3.0415 20.9635 7.05817 20.9635 11.9998C20.9635 16.9415 16.9469 20.9582 12.0052 20.9582ZM12.0052 4.2915C7.75521 4.2915 4.29688 7.74984 4.29688 11.9998C4.29688 16.2498 7.75521 19.7082 12.0052 19.7082C16.2552 19.7082 19.7135 16.2498 19.7135 11.9998C19.7135 7.74984 16.2552 4.2915 12.0052 4.2915Z" fill="white"/>
<path d="M15.0948 15.275C14.9865 15.275 14.8781 15.25 14.7781 15.1833L12.1948 13.6416C11.5531 13.2583 11.0781 12.4166 11.0781 11.675V8.2583C11.0781 7.91663 11.3615 7.6333 11.7031 7.6333C12.0448 7.6333 12.3281 7.91663 12.3281 8.2583V11.675C12.3281 11.975 12.5781 12.4166 12.8365 12.5666L15.4198 14.1083C15.7198 14.2833 15.8115 14.6666 15.6365 14.9666C15.5115 15.1666 15.3031 15.275 15.0948 15.275Z" fill="white"/>
</svg>
