<svg width="44" height="44" viewBox="0 0 44 44" fill="none" xmlns="http://www.w3.org/2000/svg">
<rect width="44" height="44" rx="22" fill="#2B5644"/>
<path d="M27.5 19.5385C27.5 22.6031 22 30 22 30C22 30 16.5 22.6031 16.5 19.5385C16.5 18.0696 17.0795 16.6608 18.1109 15.6222C19.1424 14.5835 20.5413 14 22 14C23.4587 14 24.8576 14.5835 25.8891 15.6222C26.9205 16.6608 27.5 18.0696 27.5 19.5385V19.5385Z" stroke="white" stroke-linecap="round" stroke-linejoin="round"/>
<path d="M22.0013 21.3852C23.0138 21.3852 23.8346 20.5586 23.8346 19.539C23.8346 18.5194 23.0138 17.6929 22.0013 17.6929C20.9888 17.6929 20.168 18.5194 20.168 19.539C20.168 20.5586 20.9888 21.3852 22.0013 21.3852Z" stroke="white" stroke-linecap="round" stroke-linejoin="round"/>
</svg>
