<svg width="24" height="24" viewBox="0 0 24 24" fill="none" xmlns="http://www.w3.org/2000/svg">
<path d="M15.5688 20.4166H12.4021C11.9354 20.4166 10.9188 20.2749 10.3771 19.7332L7.85208 17.7832L8.61875 16.7916L11.2021 18.7916C11.4104 18.9916 11.9354 19.1582 12.4021 19.1582H15.5688C16.3188 19.1582 17.1271 18.5582 17.2937 17.8832L19.3104 11.7582C19.4438 11.3916 19.4188 11.0582 19.2438 10.8166C19.0604 10.5582 18.7271 10.4082 18.3188 10.4082H14.9854C14.5521 10.4082 14.1521 10.2249 13.8771 9.90824C13.5938 9.58324 13.4688 9.14991 13.5354 8.69991L13.9521 6.02491C14.0521 5.55824 13.7354 5.03324 13.2854 4.88324C12.8771 4.73324 12.3521 4.94991 12.1687 5.21658L8.75208 10.2999L7.71875 9.60824L11.1354 4.52491C11.6604 3.74158 12.8104 3.36658 13.7104 3.70824C14.7521 4.04991 15.4187 5.19991 15.1854 6.26658L14.7771 8.89158C14.7687 8.94991 14.7688 9.03324 14.8271 9.09991C14.8688 9.14158 14.9271 9.16658 14.9938 9.16658H18.3271C19.1438 9.16658 19.8521 9.50824 20.2688 10.0999C20.6771 10.6749 20.7604 11.4332 20.4938 12.1666L18.5021 18.2332C18.1937 19.4416 16.9104 20.4166 15.5688 20.4166Z" fill="white"/>
<path d="M6.48828 19.4998H5.65495C4.11328 19.4998 3.36328 18.7748 3.36328 17.2915V9.12484C3.36328 7.6415 4.11328 6.9165 5.65495 6.9165H6.48828C8.02995 6.9165 8.77995 7.6415 8.77995 9.12484V17.2915C8.77995 18.7748 8.02995 19.4998 6.48828 19.4998ZM5.65495 8.1665C4.74661 8.1665 4.61328 8.38317 4.61328 9.12484V17.2915C4.61328 18.0332 4.74661 18.2498 5.65495 18.2498H6.48828C7.39661 18.2498 7.52995 18.0332 7.52995 17.2915V9.12484C7.52995 8.38317 7.39661 8.1665 6.48828 8.1665H5.65495Z" fill="white"/>
</svg>
