<svg width="259" height="277" fill="none" xmlns="http://www.w3.org/2000/svg"><path d="m519.855 221.897-1.628-2.015v-.002c-2.323-2.866-4.491-5.35-6.619-7.597a138.873 138.873 0 0 0-44.95-31.923 139.07 139.07 0 0 0-53.856-11.935 139.083 139.083 0 0 0-54.262 9.937 138.879 138.879 0 0 0-46.103 30.241 118.986 118.986 0 0 1-15.149-28.052c35.451-9.073 65.894-31.717 84.74-63.03a138.702 138.702 0 0 0 15.955-104.276 99.466 99.466 0 0 0-1.423-5.396 60.153 60.153 0 0 0-1.373-4.354l-.878-2.46a1.18 1.18 0 0 0-1.259-.76l-2.582.363c-1.655.234-3.293.492-4.915.776-1.659.286-3.292.62-4.878.976a138.049 138.049 0 0 0-48.37 20.732 145.853 145.853 0 0 0-9.32 6.897 138.845 138.845 0 0 0-43.609 61.148 138.592 138.592 0 0 0-5.352 74.867c-9.245.864-18.559.654-27.756-.626a138.71 138.71 0 0 0-17.41-99.29c-18.052-29.754-46.629-51.667-80.084-61.407a1.168 1.168 0 0 0-.714-.481l-8.424-1.843s-2.987-.635-3.733-.771L132.984.202a1.167 1.167 0 0 0-1.609.66l-1.205 3.459-1.269 4.506c-.495 1.715-.927 3.433-1.368 5.203a127.192 127.192 0 0 0-1.637 8.023c-.127.717-.254 1.425-.345 2.042a86.803 86.803 0 0 0-.45 3.054c-.237 1.568-.405 3.131-.573 4.724a125.394 125.394 0 0 0-.405 4.785c-.063.965-.127 1.916-.15 2.712a35.578 35.578 0 0 0-.082 1.795l-.032.934a169.2 169.2 0 0 0-.054 3.967c0 1.987.027 3.948.132 6.012.059 1.711.168 3.46.332 5.158l.063.998c.169 1.59.332 3.154.514 4.584.018.272.055.538.091.814l.05.354c.164 1.42.396 2.841.6 3.953.077.728.194 1.451.35 2.167.02.152.049.303.087.451.168 1.035.381 2.07.613 3.161.141.706.282 1.409.432 2.017l.196.86c.304 1.36.618 2.714.95 3.89a70.171 70.171 0 0 0 1.455 5.118c.111.506.257 1.003.436 1.488.409 1.316.819 2.64 1.251 3.787.481 1.468 1.018 2.886 1.573 4.327l1.154 2.936a175.668 175.668 0 0 0 3.628 8.112c.323.622.619 1.219.951 1.911a99.847 99.847 0 0 0 1.673 3.197c.468.864.936 1.735 1.364 2.441a129.658 129.658 0 0 0 4.487 7.442c.246.377.491.747.741 1.117l.882 1.3a122.048 122.048 0 0 0 3.351 4.719c1.132 1.566 2.328 3.093 3.555 4.622a150.004 150.004 0 0 0 3.719 4.42 103.911 103.911 0 0 0 3.878 4.239 81.196 81.196 0 0 0 3.787 3.823c.182.216.383.414.601.592a108.95 108.95 0 0 0 3.978 3.685c1.427 1.289 2.914 2.541 4.433 3.803 1.173.96 2.409 1.929 3.459 2.714.651.553 1.346 1.046 2.033 1.529 1.459 1.123 2.896 2.14 4.101 2.904a67.572 67.572 0 0 0 3.437 2.287c.709.486 1.418.942 1.859 1.176.787.522 1.578 1.014 2.142 1.309a46.284 46.284 0 0 0 2.905 1.663c.614.394 1.25.753 1.905 1.076 1.136.628 2.305 1.229 3.446 1.815a81.763 81.763 0 0 0 4.846 2.326c.951.458 1.937.878 2.742 1.202 1.064.479 2.137.93 2.923 1.223.473.218.937.39 1.251.499 1.454.59 2.95 1.126 4.337 1.623.325.144.663.258 1.009.342 1.505.54 3.024 1.026 4.806 1.586.363.114.732.22 1.095.327a121.704 121.704 0 0 1-15.644 29.431 27.463 27.463 0 0 0-.395-.379l-.687-.689a136.253 136.253 0 0 0-13.998-11.883l-2.787-2.001c-1.301-.926-2.592-1.804-3.665-2.453a36.768 36.768 0 0 0-2.219-1.443 127.218 127.218 0 0 0-12.275-6.873c-1.05-.54-2.137-1.046-3.464-1.663-.737-.354-1.455-.69-2.024-.908l-.418-.186c-1.309-.581-2.609-1.15-3.732-1.563a63.072 63.072 0 0 0-3.319-1.309 63.701 63.701 0 0 0-3.219-1.144 59.64 59.64 0 0 0-3.078-1.053l-1.701-.526a47.068 47.068 0 0 0-2.064-.604 77.557 77.557 0 0 0-3.018-.851l-2.092-.533a56.56 56.56 0 0 0-1.273-.302c-3.546-.876-7.288-1.617-11.461-2.266l-2.992-.407a65.779 65.779 0 0 0-2.764-.315 42.24 42.24 0 0 0-2.201-.236l-2.164-.179a96.92 96.92 0 0 0-3.187-.207l-1.6-.088a116.347 116.347 0 0 0-11.871-.007c-.491 0-.987.034-1.691.086l-.46.027c-.936.055-1.873.109-2.727.18-.623.038-1.214.079-1.532.136-.96.063-1.928.163-2.806.268-.977.099-1.923.202-2.868.329l-3.129.431c-3.477.519-7.065 1.22-10.97 2.139-1.141.27-2.246.538-3.287.819-.787.202-1.56.423-2.332.643l-1.137.324c-1.123.329-2.246.66-3.387 1.026-1.123.36-2.242.733-3.287 1.1-1.132.37-2.292.781-3.346 1.191-2.656.985-5.179 2.02-7.661 3.143-.755.327-1.505.651-2.055.935a104.11 104.11 0 0 0-6.01 2.947c-.769.381-1.537.797-2.474 1.303-2.696 1.493-5.005 2.859-7.033 4.161-.76.47-1.519.948-2.005 1.311a74.83 74.83 0 0 0-3.956 2.637l-2.868 2.067c-.35.275-.705.545-1.091.815l-.7.537c-.592.466-1.17.924-1.646 1.323-1.2.921-2.401 1.879-3.37 2.744a40.903 40.903 0 0 0-1.913 1.626l-.569.497a184.066 184.066 0 0 0-4.624 4.289l-.645.642a64.661 64.661 0 0 0-1.5 1.5c-.837.835-1.669 1.701-2.583 2.682 0 0-4.478 5.055-4.733 5.334-1.864 2.103-4.419 4.987-1.8 7.631l.405.508c.286.363.577.735.913 1.119l3.201 3.619c.052.123.124.236.214.335l4.133 4.563a.96.96 0 0 0 .486.275c26.152 26.173 61.633 40.928 98.667 41.033h.873a140.416 140.416 0 0 0 80.327-26.123 140.8 140.8 0 0 0 50.347-67.476 140.902 140.902 0 0 0 37.549.694 138.288 138.288 0 0 0 20.75 38.328 140.519 140.519 0 0 0 66.483 47.472 139.235 139.235 0 0 0 78.087 2.856 139.043 139.043 0 0 0 67.29-39.65 146.873 146.873 0 0 0 6.601-7.54l1.628-2.008a1.154 1.154 0 0 0 0-1.459Zm-98.262.211c.276.084.574.063.835-.061a1.157 1.157 0 0 0 .599-1.441 1.164 1.164 0 0 0-.548-.633 118.163 118.163 0 0 0-81.363-11.47 120.565 120.565 0 0 1 80.098-21.308 120.488 120.488 0 0 1 74.913 35.424 120.525 120.525 0 0 1-78.316 35.66 120.574 120.574 0 0 1-82.16-25.634 112.64 112.64 0 0 1 85.942-10.537ZM383.571 46.066c0 54.785-38.395 103.756-91.466 116.905a121.445 121.445 0 0 1-2.6-24.968 119.75 119.75 0 0 1 34.13-83.864 117.902 117.902 0 0 1 6.951-6.594 120.967 120.967 0 0 1 18.232-13.208 120.036 120.036 0 0 1 32.161-13.235 121.398 121.398 0 0 1 2.592 24.964ZM230.66 138.003a120.48 120.48 0 0 1-2.314 23.53 191.063 191.063 0 0 1-6.061-1.974l-.786-.291a109.066 109.066 0 0 1-4.315-1.692 98.818 98.818 0 0 1-4.219-1.832c-.759-.308-1.5-.661-2.218-1.057a53.05 53.05 0 0 1-2.81-1.357 6.291 6.291 0 0 1-.641-.347l-.423-.229c-1.164-.554-2.296-1.196-3.533-1.924a69.114 69.114 0 0 1-4.228-2.528l-.823-.517a.877.877 0 0 0-.127-.071 149.954 149.954 0 0 1-3.351-2.234l-.377-.248a174.86 174.86 0 0 1-3.469-2.496l-.737-.583c-1.027-.728-1.986-1.488-3.123-2.448a29.716 29.716 0 0 1-1.437-1.157c-.609-.502-1.2-.996-1.891-1.614-.737-.617-1.437-1.263-2.387-2.148-.336-.277-.65-.588-1.055-.985l-.263-.259a31.95 31.95 0 0 1-1.683-1.624 52.463 52.463 0 0 1-2.027-2.031l-2.055-2.187c-.523-.574-1.069-1.169-1.705-1.881-.2-.207-.387-.429-.696-.808a93.963 93.963 0 0 1-2.641-3.152 18.992 18.992 0 0 1-.8-.98c-.601-.703-1.16-1.441-1.896-2.46-.396-.478-.737-.95-1.21-1.629a58.35 58.35 0 0 1-1.814-2.541c-.259-.343-.486-.683-.809-1.162l-.264-.397c-.559-.844-1.127-1.692-1.673-2.618l-.273-.406c-.15-.199-.28-.41-.391-.633l-.222-.379c-.455-.688-.855-1.387-1.341-2.228l-.369-.638a15.84 15.84 0 0 1-.832-1.441 106.173 106.173 0 0 1-2.105-3.986 89.824 89.824 0 0 1-1.959-3.992c-.123-.229-.223-.463-.405-.878a73.924 73.924 0 0 1-1.741-4.03l-.255-.623a1.001 1.001 0 0 0-.073-.146c-.45-1.11-.895-2.264-1.423-3.716-.081-.173-.14-.366-.304-.844a41.38 41.38 0 0 1-1.073-3.2c-.637-1.806-1.232-3.798-1.932-6.478a68.52 68.52 0 0 1-1.132-4.68 53.56 53.56 0 0 1-.782-3.928c-.223-.92-.364-1.836-.523-2.88a80.234 80.234 0 0 1-.546-3.718 117.852 117.852 0 0 1-.991-15.182c0-.949.027-1.922.05-2.957l.018-.642a58.48 58.48 0 0 1 .15-3.263l.009-.424c.023-.685.078-1.346.141-2.17l.164-1.941c.05-.593.123-1.187.2-1.816l.05-.39c.223-2.167.546-4.454.982-6.993.164-.946.332-1.895.55-2.959a121.235 121.235 0 0 1 62.197 43.55 120.862 120.862 0 0 1 24.022 71.942Zm-58.426 65.983c.527.308 1.023.621 1.55.95l.614.386c.053.035.109.064.168.089.056.052.117.099.182.14a96.908 96.908 0 0 1 4.242 2.805 118.194 118.194 0 0 0-80.704 11.617 1.136 1.136 0 0 0-.496 1.445 1.19 1.19 0 0 0 1.428.674 112.667 112.667 0 0 1 43.822-3.319 112.616 112.616 0 0 1 41.751 13.7 120.709 120.709 0 0 1-82.284 25.81 120.654 120.654 0 0 1-78.501-35.667 69.109 69.109 0 0 1 1.582-1.561 117.457 117.457 0 0 1 7.452-6.732c1.409-1.157 2.846-2.319 4.364-3.428a113.355 113.355 0 0 1 7.775-5.375c.6-.413 1.227-.788 2.032-1.271l.523-.32a68.448 68.448 0 0 1 2.682-1.568c.546-.32 1.078-.608 1.782-.982.323-.184.632-.348 1.132-.615l.741-.381a158 158 0 0 1 2.715-1.366 49.35 49.35 0 0 1 2.76-1.321l1.2-.533a42.553 42.553 0 0 1 1.823-.799c.977-.424 1.96-.823 3.005-1.236a102.4 102.4 0 0 1 2.978-1.135 106.86 106.86 0 0 1 6.21-2.062 43.49 43.49 0 0 1 1.91-.575l1.287-.376c.959-.25 1.927-.502 2.9-.733l2.742-.66a71.806 71.806 0 0 1 3.56-.726l3.055-.559c4.375-.71 8.785-1.187 13.212-1.427.568-.043 1.141-.066 1.796-.093l.568-.025a189.69 189.69 0 0 1 8.015-.007l.414.021a77 77 0 0 1 2.269.109c2.164.125 4.351.277 6.51.524 1.078.118 2.119.238 3.21.399l3.201.459c1.082.183 2.127.369 3.309.605.551.098 1.105.214 1.928.384l1.191.249c2.087.463 4.179.949 6.252 1.539 1.982.553 3.991 1.173 5.951 1.826l3.251 1.128c2 .742 4.005 1.507 6.028 2.389a113.744 113.744 0 0 1 11.589 5.675c.914.513 1.819 1.028 2.723 1.563l.737-.914-.4 1.119c.004.004.259.158.264.161Z" fill="#fff" fill-opacity=".08"/></svg>