<svg width="32" height="32" fill="none" xmlns="http://www.w3.org/2000/svg"><path d="M28.64 17.831a2.802 2.802 0 0 0-2.444-.485l-.54.125c2.719-2.527 4.094-5.032 4.094-7.47 0-3.17-2.549-5.75-5.683-5.75A5.689 5.689 0 0 0 19.5 6.5a5.688 5.688 0 0 0-4.568-2.25C11.8 4.25 9.25 6.83 9.25 10c0 1.422.454 2.81 1.411 4.294-.785.121-1.51.49-2.07 1.054L5.69 18.25H2A1.75 1.75 0 0 0 .25 20v5A1.75 1.75 0 0 0 2 26.75h13a.749.749 0 0 0 .182-.022l8-2a.893.893 0 0 0 .112-.038l4.852-2.065.041-.019a2.826 2.826 0 0 0 .453-4.772v-.003ZM14.932 5.751a4.145 4.145 0 0 1 3.876 2.534.75.75 0 0 0 1.387 0A4.145 4.145 0 0 1 24.07 5.75c2.265 0 4.18 1.946 4.18 4.25 0 2.53-2.023 5.375-5.85 8.219l-1.859.427A3.25 3.25 0 0 0 17.5 14.25h-5.041c-1.164-1.54-1.709-2.899-1.709-4.25 0-2.304 1.915-4.25 4.182-4.25ZM1.75 25v-5a.25.25 0 0 1 .25-.25h3.25v5.5H2a.25.25 0 0 1-.25-.25Zm25.785-3.75-4.775 2.033-7.853 1.966H6.75V19.31l2.901-2.902a2.233 2.233 0 0 1 1.591-.659H17.5a1.75 1.75 0 0 1 0 3.5H14a.75.75 0 1 0 0 1.5h4a.75.75 0 0 0 .168-.019l8.375-1.926.03-.007a1.325 1.325 0 0 1 .962 2.452Z" fill="#fff"/></svg>