<svg width="32" height="32" fill="none" xmlns="http://www.w3.org/2000/svg"><path d="m23.164 26.436 3.787-3.728-.835-.836-2.952 2.91-1.275-1.3-.836.843 2.11 2.11ZM9.029 11.64h13.95v-1.333H9.028l.001 1.333Zm14.974 17.847c-1.486 0-2.746-.518-3.782-1.552-1.035-1.035-1.553-2.295-1.552-3.782 0-1.484.518-2.744 1.552-3.78 1.035-1.035 2.295-1.553 3.782-1.553 1.485 0 2.745.518 3.78 1.553 1.037 1.036 1.554 2.296 1.553 3.78 0 1.487-.517 2.747-1.552 3.782-1.037 1.034-2.297 1.552-3.781 1.552ZM5.336 27.693V7.487c0-.596.21-1.104.63-1.524.419-.42.927-.63 1.523-.63h17.027c.596 0 1.104.21 1.524.63.42.42.63.927.63 1.524v7.926a7.243 7.243 0 0 0-.647-.205 5.369 5.369 0 0 0-.687-.133V7.488c0-.205-.085-.394-.256-.565-.172-.171-.36-.256-.564-.256H7.489c-.204 0-.392.085-.564.256-.17.171-.256.36-.256.564V25.4h8.459c.06.364.139.72.235 1.07.097.348.231.68.404.997l-.047.046-1.512-1.102-1.795 1.28-1.794-1.28-1.796 1.28-1.795-1.28-1.692 1.282Zm3.693-6h6.279c.05-.244.111-.473.184-.686.074-.214.16-.43.257-.647H9.03v1.333Zm0-5.025h9.747c.436-.344.902-.63 1.4-.86a5.862 5.862 0 0 1 1.596-.473H9.028l.001 1.333Z" fill="#fff"/></svg>