<svg width="20.000000" height="20.000000" viewBox="0 0 20 20" fill="none" xmlns="http://www.w3.org/2000/svg" xmlns:xlink="http://www.w3.org/1999/xlink">
	<desc>
			Created with Pixso.
	</desc>
	<defs/>
	<rect id="Icons 20*20" width="20.000000" height="20.000000" fill="#FFFFFF" fill-opacity="0"/>
	<path id="Vector-14" d="M16.75 3.87C16.95 4.07 17.06 4.34 17.06 4.62C17.06 4.91 16.94 5.17 16.74 5.37L15.15 7.31L9.74 13.91C9.64 14.02 9.52 14.1 9.37 14.13L6.57 14.78C6.2 14.79 5.88 14.52 5.83 14.15L5.96 11.38C5.97 11.24 6.03 11.1 6.12 11L11.3 4.69L13.13 2.46C13.48 1.98 14.15 1.85 14.65 2.17L16.75 3.87Z" stroke="#2B5644" stroke-opacity="1.000000" stroke-width="1.250000" stroke-linejoin="round"/>
	<mask id="mask_2_136686" fill="white">
		<path id="Vector-15" d="M15.1523 7.31445C13.1084 7.77539 11.7373 5.75781 11.3066 4.69141L15.1523 7.31445Z" clip-rule="evenodd" fill="" fill-opacity="1.000000" fill-rule="evenodd"/>
	</mask>
	<path id="Vector-15" d="M15.29 7.92383Q14.4004 8.125 13.5518 7.8418Q12.8408 7.60352 12.209 7.04297Q11.6982 6.58789 11.2812 5.96289Q10.9365 5.44531 10.7275 4.92578Q10.7045 4.86865 10.6929 4.80811Q10.6814 4.74757 10.6819 4.68595Q10.6824 4.62434 10.6949 4.56401Q10.7074 4.50368 10.7314 4.44696Q10.7554 4.39023 10.79 4.3393Q10.8246 4.28837 10.8685 4.24517Q10.9124 4.20198 10.9638 4.1682Q11.0152 4.13441 11.0723 4.11133Q11.1439 4.08249 11.2204 4.07197Q11.2969 4.06145 11.3737 4.06988Q11.4505 4.07831 11.523 4.10519Q11.5954 4.13207 11.6592 4.17578L15.5039 6.79688Q15.5548 6.8315 15.5979 6.87541Q15.6411 6.91931 15.6748 6.97081Q15.7086 7.02231 15.7317 7.07942Q15.7547 7.13653 15.7662 7.19706Q15.7777 7.25759 15.7772 7.31921Q15.7767 7.38084 15.7642 7.44118Q15.7516 7.50153 15.7276 7.55829Q15.7036 7.61504 15.6689 7.66602Q15.6021 7.76392 15.504 7.83069Q15.4058 7.89747 15.29 7.92383ZM15.0146 6.70312L15.1523 7.31445L14.7998 7.83008L10.9541 5.20703L11.3066 4.69141L11.8857 4.45703Q12.0479 4.85742 12.3223 5.26953Q12.6494 5.76172 13.04 6.10742Q13.9736 6.93945 15.0146 6.70312Z" fill="#2B5644" fill-opacity="1.000000" fill-rule="nonzero"/>
</svg>
