<svg width="259" height="277" viewBox="0 0 259 277" fill="none" xmlns="http://www.w3.org/2000/svg">
<path d="M519.855 221.897L518.227 219.882V219.88C515.904 217.014 513.736 214.53 511.608 212.283C498.914 198.749 483.629 187.893 466.658 180.36C449.686 172.826 431.373 168.768 412.802 168.425C394.231 168.081 375.779 171.461 358.54 178.362C341.301 185.263 325.624 195.546 312.437 208.603C306.151 199.972 301.055 190.537 297.288 180.551C332.739 171.478 363.182 148.834 382.028 117.521C400.875 86.2074 406.606 48.7452 397.983 13.2446C397.547 11.409 397.074 9.57111 396.56 7.84897C396.151 6.37185 395.705 4.93334 395.187 3.49477L394.309 1.03517C394.216 0.785278 394.041 0.574199 393.812 0.436212C393.584 0.298225 393.315 0.241438 393.05 0.275064L390.468 0.63809C388.813 0.871812 387.175 1.13047 385.553 1.41409C383.894 1.69998 382.261 2.03352 380.675 2.38975C363.367 6.13664 346.945 13.1754 332.305 23.1216C329.082 25.3157 325.949 27.6346 322.985 30.0194C303.1 46.0191 288.012 67.1747 279.376 91.1668C270.739 115.159 268.888 141.061 274.024 166.034C264.779 166.898 255.465 166.688 246.268 165.408C253.122 131.303 246.91 95.8724 228.858 66.1182C210.806 36.364 182.229 14.4514 148.774 4.71094C148.606 4.4657 148.351 4.29365 148.06 4.22992L139.636 2.38749C139.636 2.38749 136.649 1.75217 135.903 1.61603L132.984 0.202442C132.836 0.130587 132.675 0.0907479 132.511 0.0855457C132.347 0.0803435 132.183 0.109899 132.031 0.172261C131.879 0.234623 131.742 0.328385 131.629 0.447386C131.516 0.566386 131.429 0.70793 131.375 0.86272L130.17 4.32067L128.901 8.8269C128.406 10.5423 127.974 12.2599 127.533 14.0297C126.951 16.453 126.419 19.0419 125.896 22.0529C125.769 22.7699 125.642 23.4778 125.551 24.095C125.383 25.1319 125.219 26.2006 125.101 27.1491C124.864 28.7169 124.696 30.2803 124.528 31.8731C124.364 33.4274 124.232 35.027 124.123 36.6584C124.06 37.6228 123.996 38.5735 123.973 39.3699C123.928 39.9734 123.905 40.577 123.891 41.1647L123.859 42.0995C123.828 43.411 123.805 44.7542 123.805 46.0657C123.805 48.0533 123.832 50.0138 123.937 52.0785C123.996 53.7894 124.105 55.5387 124.269 57.236L124.332 58.2343C124.501 59.8249 124.664 61.3882 124.846 62.8177C124.864 63.09 124.901 63.3555 124.937 63.6323L124.987 63.9863C125.151 65.4066 125.383 66.827 125.587 67.9388C125.664 68.667 125.781 69.3904 125.937 70.1057C125.957 70.2579 125.986 70.4087 126.024 70.5573C126.192 71.5919 126.405 72.6266 126.637 73.718C126.778 74.4236 126.919 75.127 127.069 75.7351L127.265 76.5951C127.569 77.9542 127.883 79.3088 128.215 80.4841C128.661 82.3016 129.161 84.0555 129.67 85.603C129.781 86.1085 129.927 86.6058 130.106 87.0914C130.515 88.4074 130.925 89.7303 131.357 90.8783C131.838 92.3464 132.375 93.7645 132.93 95.2053L134.084 98.1414C135.262 100.953 136.439 103.596 137.712 106.253C138.035 106.875 138.331 107.472 138.663 108.164C139.204 109.235 139.736 110.271 140.336 111.361C140.804 112.225 141.272 113.096 141.7 113.802C143.15 116.398 144.623 118.835 146.187 121.244C146.433 121.621 146.678 121.991 146.928 122.361L147.81 123.661C148.906 125.285 150.038 126.876 151.161 128.38C152.293 129.946 153.489 131.473 154.716 133.002C155.935 134.516 157.162 135.959 158.435 137.422C159.695 138.888 161.022 140.318 162.313 141.661C163.568 143.015 164.855 144.309 166.1 145.484C166.282 145.7 166.483 145.898 166.701 146.076C168.015 147.356 169.333 148.574 170.679 149.761C172.106 151.05 173.593 152.302 175.112 153.564C176.285 154.524 177.521 155.493 178.571 156.278C179.222 156.831 179.917 157.324 180.604 157.807C182.063 158.93 183.5 159.947 184.705 160.711C185.9 161.56 187.087 162.343 188.142 162.998C188.851 163.484 189.56 163.94 190.001 164.174C190.788 164.696 191.579 165.188 192.143 165.483C193.188 166.141 194.266 166.731 195.048 167.146C195.662 167.54 196.298 167.899 196.953 168.222C198.089 168.85 199.258 169.451 200.399 170.037C202.022 170.881 203.704 171.689 205.245 172.363C206.196 172.821 207.182 173.241 207.987 173.565C209.051 174.044 210.124 174.495 210.91 174.788C211.383 175.006 211.847 175.178 212.161 175.287C213.615 175.877 215.111 176.413 216.498 176.91C216.823 177.054 217.161 177.168 217.507 177.252C219.012 177.792 220.531 178.278 222.313 178.838C222.676 178.952 223.045 179.058 223.408 179.165C219.569 189.644 214.305 199.547 207.764 208.596C207.632 208.467 207.5 208.34 207.369 208.217L206.682 207.528C202.289 203.257 197.612 199.287 192.684 195.645L189.897 193.644C188.596 192.718 187.305 191.84 186.232 191.191C185.477 190.653 184.723 190.181 184.013 189.748C180.052 187.233 175.954 184.938 171.738 182.875C170.688 182.335 169.601 181.829 168.274 181.212C167.537 180.858 166.819 180.522 166.25 180.304L165.832 180.118C164.523 179.537 163.223 178.968 162.1 178.555C160.977 178.076 159.849 177.631 158.781 177.246C157.612 176.801 156.485 176.395 155.562 176.102C154.548 175.716 153.52 175.38 152.484 175.049L150.783 174.523C150.047 174.296 149.315 174.071 148.719 173.919C147.71 173.613 146.66 173.316 145.701 173.068L143.609 172.535C143.15 172.422 142.691 172.311 142.336 172.233C138.79 171.357 135.048 170.616 130.875 169.967L127.883 169.56C127.046 169.44 126.187 169.352 125.119 169.245C124.4 169.143 123.664 169.075 122.918 169.009L120.754 168.83C119.695 168.739 118.613 168.678 117.567 168.623L115.967 168.535C112.013 168.331 108.05 168.328 104.096 168.528C103.605 168.528 103.109 168.562 102.405 168.614L101.945 168.641C101.009 168.696 100.072 168.75 99.2176 168.821C98.5948 168.859 98.0037 168.9 97.6855 168.957C96.7262 169.02 95.7578 169.12 94.8803 169.225C93.9028 169.324 92.9572 169.427 92.0115 169.554L88.8835 169.985C85.4055 170.504 81.8183 171.205 77.913 172.124C76.7718 172.394 75.667 172.662 74.6259 172.943C73.8393 173.145 73.0665 173.366 72.2936 173.586L71.1569 173.91C70.034 174.239 68.911 174.57 67.7698 174.936C66.6469 175.296 65.5284 175.669 64.4828 176.036C63.3507 176.406 62.1913 176.817 61.1366 177.227C58.4814 178.212 55.9582 179.247 53.4758 180.37C52.7211 180.697 51.9709 181.021 51.4208 181.305C49.384 182.224 47.3517 183.22 45.4104 184.252C44.6421 184.633 43.8737 185.049 42.9371 185.555C40.2411 187.048 37.9315 188.414 35.9038 189.716C35.1445 190.186 34.3853 190.664 33.8988 191.027C32.5712 191.844 31.28 192.72 29.9434 193.664L27.0746 195.731C26.7245 196.006 26.3699 196.276 25.9835 196.546L25.2833 197.083C24.6923 197.549 24.1149 198.007 23.6375 198.406C22.4373 199.327 21.237 200.285 20.2686 201.15C19.6184 201.658 18.9865 202.216 18.3545 202.776L17.7862 203.273C16.245 204.648 14.7401 206.055 13.1625 207.562L12.5169 208.204C11.9895 208.719 11.4621 209.238 11.0165 209.704C10.18 210.539 9.348 211.405 8.43416 212.386C8.43416 212.386 3.95591 217.441 3.70131 217.72C1.83726 219.823 -0.717839 222.707 1.90091 225.351L2.30554 225.859C2.59198 226.222 2.88294 226.594 3.21938 226.978L6.42008 230.597C6.47212 230.72 6.54434 230.833 6.63376 230.932L10.7665 235.495C10.898 235.633 11.0672 235.728 11.253 235.77C37.4051 261.943 72.8865 276.698 109.92 276.803H110.793C139.622 276.544 167.671 267.422 191.12 250.68C214.401 233.836 231.968 210.293 241.467 183.204C253.896 185.11 266.525 185.343 279.016 183.898C283.862 197.688 290.865 210.624 299.766 222.226C316.724 244.276 339.865 260.799 366.249 269.698C391.469 278.084 418.569 279.075 444.336 272.554C470.103 266.032 493.456 252.272 511.626 232.904C514.081 230.272 516.241 227.806 518.227 225.364L519.855 223.356C520.023 223.15 520.114 222.892 520.114 222.627C520.114 222.361 520.023 222.103 519.855 221.897ZM421.593 222.108C421.869 222.192 422.167 222.171 422.428 222.047C422.69 221.924 422.896 221.708 423.006 221.442C423.117 221.176 423.124 220.877 423.027 220.606C422.929 220.334 422.734 220.109 422.479 219.973C397.612 206.541 368.738 202.47 341.116 208.503C364.447 192.161 392.83 184.61 421.214 187.195C449.599 189.78 476.144 202.332 496.127 222.619C475.315 243.73 447.427 256.429 417.811 258.279C388.196 260.13 358.939 251.002 335.651 232.645C348.568 225.307 362.814 220.598 377.565 218.789C392.316 216.98 407.281 218.108 421.593 222.108ZM383.571 46.0656C383.571 100.851 345.176 149.822 292.105 162.971C290.378 154.76 289.507 146.393 289.505 138.003C289.463 106.67 301.714 76.5669 323.635 54.1387C325.804 51.9015 328.145 49.6824 330.586 47.545C334.949 43.7179 339.581 40.2093 344.449 37.0464C345.89 36.1115 347.34 35.2085 348.818 34.3371C358.837 28.3885 369.671 23.9299 380.979 21.1021C382.703 29.3118 383.572 37.6775 383.571 46.0656ZM230.66 138.003C230.662 145.903 229.887 153.784 228.346 161.533C227.873 161.39 227.396 161.24 226.914 161.088C225.327 160.593 223.758 160.06 222.285 159.559L221.499 159.268C220.062 158.746 218.612 158.165 217.184 157.576C215.839 157.029 214.488 156.446 212.965 155.744C212.206 155.436 211.465 155.083 210.747 154.687C209.955 154.338 209.164 153.956 207.937 153.33C207.717 153.227 207.503 153.111 207.296 152.983L206.873 152.754C205.709 152.2 204.577 151.558 203.34 150.83C201.931 150.054 200.517 149.212 199.112 148.302L198.289 147.785C198.249 147.758 198.206 147.734 198.162 147.714C197.044 146.993 195.939 146.251 194.811 145.48L194.434 145.232C193.247 144.399 192.091 143.568 190.965 142.736L190.228 142.153C189.201 141.425 188.242 140.665 187.105 139.705C186.632 139.353 186.187 138.986 185.668 138.548C185.059 138.046 184.468 137.552 183.777 136.934C183.04 136.317 182.34 135.671 181.39 134.786C181.054 134.509 180.74 134.198 180.335 133.801L180.072 133.542C179.553 133.075 179.021 132.573 178.389 131.918C177.703 131.264 177.012 130.579 176.362 129.887L174.307 127.7C173.784 127.126 173.238 126.531 172.602 125.819C172.402 125.612 172.215 125.39 171.906 125.011C171.056 124.037 170.238 123.073 169.265 121.859C169.037 121.598 168.824 121.344 168.465 120.879C167.864 120.176 167.305 119.438 166.569 118.419C166.173 117.941 165.832 117.469 165.359 116.79C164.777 116.028 164.223 115.241 163.545 114.249C163.286 113.906 163.059 113.566 162.736 113.087L162.472 112.69C161.913 111.846 161.345 110.998 160.799 110.072L160.526 109.666C160.376 109.467 160.246 109.256 160.135 109.033L159.913 108.654C159.458 107.966 159.058 107.267 158.572 106.426L158.203 105.788C157.901 105.323 157.623 104.842 157.371 104.347C156.667 103.063 155.966 101.774 155.266 100.361C154.63 99.1512 154.025 97.9123 153.307 96.3694C153.184 96.1402 153.084 95.9065 152.902 95.4913C152.279 94.1707 151.706 92.8207 151.161 91.4615L150.906 90.8376C150.886 90.7874 150.861 90.7389 150.833 90.6924C150.383 89.5828 149.938 88.4279 149.41 86.9757C149.329 86.8033 149.27 86.6104 149.106 86.1317C148.738 85.1628 148.392 84.1622 148.033 82.9324C147.396 81.1263 146.801 79.1341 146.101 76.4544C145.673 74.941 145.31 73.4071 144.969 71.7734C144.7 70.6049 144.437 69.4273 144.187 67.8458C143.964 66.9268 143.823 66.0102 143.664 64.9664C143.455 63.7548 143.277 62.5227 143.118 61.2476C142.461 56.2135 142.13 51.1423 142.127 46.0657C142.127 45.1173 142.154 44.1439 142.177 43.1092L142.195 42.4671C142.223 41.387 142.254 40.3297 142.345 39.2043L142.354 38.78C142.377 38.0947 142.432 37.4344 142.495 36.6108L142.659 34.6685C142.709 34.0763 142.782 33.4819 142.859 32.8533L142.909 32.4631C143.132 30.2962 143.455 28.009 143.891 25.47C144.055 24.5238 144.223 23.5754 144.441 22.5112C169.313 30.0015 191.116 45.2677 206.638 66.0605C222.161 86.8532 230.582 112.073 230.66 138.003ZM172.234 203.986C172.761 204.294 173.257 204.607 173.784 204.936L174.398 205.322C174.451 205.357 174.507 205.386 174.566 205.411C174.622 205.463 174.683 205.51 174.748 205.551C176.139 206.418 177.544 207.346 178.99 208.356C151.56 202.533 122.949 206.652 98.2856 219.973C98.0378 220.109 97.8496 220.333 97.758 220.6C97.6664 220.867 97.6778 221.159 97.7901 221.418C97.9043 221.685 98.1127 221.902 98.3757 222.026C98.6388 222.15 98.9383 222.174 99.2177 222.092C113.464 218.12 128.356 216.992 143.04 218.773C157.724 220.555 171.912 225.21 184.791 232.473C161.49 250.91 132.185 260.103 102.507 258.283C72.8286 256.464 44.8708 243.761 24.0058 222.616C24.5195 222.092 25.0424 221.577 25.588 221.055C27.9157 218.759 30.4254 216.492 33.0396 214.323C34.449 213.166 35.8857 212.004 37.4042 210.895C40.0002 208.941 42.6008 207.142 45.1786 205.52C45.7787 205.107 46.4061 204.732 47.2109 204.249L47.7337 203.929C48.6021 203.398 49.4614 202.888 50.4161 202.361C50.9617 202.041 51.4936 201.753 52.1983 201.379C52.5211 201.195 52.8302 201.031 53.3303 200.764L54.0714 200.383C54.9443 199.933 55.8218 199.491 56.7857 199.017C57.6949 198.547 58.6088 198.109 59.5454 197.696L60.7456 197.163C61.3184 196.9 61.8913 196.639 62.5687 196.364C63.5462 195.94 64.5282 195.541 65.574 195.128C66.5514 194.733 67.5289 194.37 68.5519 193.993C70.5114 193.272 72.5346 192.6 74.7623 191.931C75.3852 191.724 76.0262 191.538 76.6718 191.356L77.9585 190.98C78.9178 190.73 79.8862 190.478 80.8591 190.247L83.6006 189.587C84.7782 189.317 85.9557 189.074 87.1605 188.861L90.2157 188.302C94.591 187.592 99.0013 187.115 103.428 186.875C103.996 186.832 104.569 186.809 105.224 186.782L105.792 186.757C108.479 186.696 111.257 186.698 113.807 186.75L114.221 186.771C114.953 186.798 115.703 186.828 116.49 186.88C118.654 187.005 120.841 187.157 123 187.404C124.078 187.522 125.119 187.642 126.21 187.803L129.411 188.262C130.493 188.445 131.538 188.631 132.72 188.867C133.271 188.965 133.825 189.081 134.648 189.251L135.839 189.5C137.926 189.963 140.018 190.449 142.091 191.039C144.073 191.592 146.082 192.212 148.042 192.865L151.293 193.993C153.293 194.735 155.298 195.5 157.321 196.382C161.289 198.053 165.158 199.948 168.91 202.057C169.824 202.57 170.729 203.085 171.633 203.62L172.37 202.706L171.97 203.825C171.974 203.829 172.229 203.983 172.234 203.986Z" fill="white" fill-opacity="0.08"/>
</svg>
