<svg width="32" height="32" viewBox="0 0 32 32" fill="none" xmlns="http://www.w3.org/2000/svg">
<path d="M4.81023 27V9.78041L2 3.67457L3.46426 3L6.54465 9.70142H25.4554L28.5357 3L30 3.67457L27.1898 9.78041V27H4.81023ZM12.8029 16.7314H19.1971C19.4241 16.7314 19.6138 16.6556 19.7662 16.504C19.9196 16.3523 19.9963 16.1643 19.9963 15.94C19.9963 15.7156 19.9196 15.5282 19.7662 15.3776C19.6138 15.227 19.4241 15.1517 19.1971 15.1517H12.8029C12.5759 15.1517 12.3862 15.2275 12.2338 15.3791C12.0804 15.5308 12.0037 15.7188 12.0037 15.9431C12.0037 16.1675 12.0804 16.3549 12.2338 16.5055C12.3873 16.6561 12.577 16.7314 12.8029 16.7314ZM6.40877 25.4202H25.5912V11.2812H6.40877V25.4202Z" fill="white"/>
</svg>
