<svg width="32" height="32" viewBox="0 0 32 32" fill="none" xmlns="http://www.w3.org/2000/svg">
<path d="M23.1639 26.4359L26.9506 22.7079L26.1159 21.8719L23.1639 24.7826L21.8893 23.4826L21.0533 24.3253L23.1639 26.4359ZM9.02927 11.6399H22.9786V10.3066H9.02794L9.02927 11.6399ZM24.0026 29.4866C22.5173 29.4866 21.2568 28.9693 20.2213 27.9346C19.1857 26.8999 18.6684 25.6395 18.6693 24.1533C18.6693 22.6688 19.1866 21.4088 20.2213 20.3733C21.2559 19.3377 22.5164 18.8199 24.0026 18.8199C25.4879 18.8199 26.7484 19.3377 27.7839 20.3733C28.8195 21.4088 29.3368 22.6688 29.3359 24.1533C29.3359 25.6395 28.8186 26.8999 27.7839 27.9346C26.7475 28.9693 25.487 29.4866 24.0026 29.4866ZM5.33594 27.6933V7.48659C5.33594 6.89103 5.54572 6.38303 5.96527 5.96259C6.38483 5.54303 6.89283 5.33325 7.48927 5.33325H24.5159C25.1115 5.33325 25.6195 5.54303 26.0399 5.96259C26.4595 6.38214 26.6693 6.89014 26.6693 7.48659V15.4133C26.4524 15.3333 26.2368 15.2648 26.0226 15.2079C25.8093 15.151 25.5804 15.1066 25.3359 15.0746V7.48792C25.3359 7.28259 25.2506 7.09414 25.0799 6.92259C24.9084 6.75192 24.7204 6.66659 24.5159 6.66659H7.48927C7.28483 6.66659 7.09683 6.75192 6.92527 6.92259C6.7546 7.09414 6.66927 7.28214 6.66927 7.48659V25.3999H15.1279C15.1884 25.7644 15.2666 26.1208 15.3626 26.4693C15.4595 26.8177 15.5942 27.1501 15.7666 27.4666L15.7199 27.5133L14.2079 26.4106L12.4133 27.6919L10.6186 26.4106L8.8226 27.6919L7.02794 26.4106L5.33594 27.6933ZM9.02927 21.6933H15.3079C15.3577 21.4488 15.419 21.2199 15.4919 21.0066C15.5657 20.7933 15.6515 20.5777 15.7493 20.3599H9.02927V21.6933ZM9.02927 16.6679H18.7759C19.2115 16.3239 19.6782 16.0373 20.1759 15.8079C20.6737 15.5777 21.2057 15.4199 21.7719 15.3346H9.02794L9.02927 16.6679Z" fill="white"/>
</svg>
