<svg width="422" height="225" fill="none" xmlns="http://www.w3.org/2000/svg"><path opacity=".5" d="m421.789 180.352-1.322-1.638v-.002c-1.888-2.33-3.65-4.351-5.379-6.177a112.85 112.85 0 0 0-36.526-25.957 112.962 112.962 0 0 0-87.854-1.624 112.824 112.824 0 0 0-37.463 24.589 96.755 96.755 0 0 1-12.309-22.809 113.086 113.086 0 0 0 68.858-51.249A112.833 112.833 0 0 0 322.758 10.7a81.266 81.266 0 0 0-1.156-4.387 49.217 49.217 0 0 0-1.116-3.54l-.713-2a.962.962 0 0 0-1.023-.618l-2.098.295c-1.345.19-2.676.4-3.994.63a80.28 80.28 0 0 0-3.964.794 112.15 112.15 0 0 0-39.305 16.857 118.667 118.667 0 0 0-7.573 5.608 112.897 112.897 0 0 0-35.436 49.718 112.761 112.761 0 0 0-4.349 60.874 97.689 97.689 0 0 1-22.554-.509 112.839 112.839 0 0 0-14.147-80.731 113.08 113.08 0 0 0-65.075-49.93.946.946 0 0 0-.58-.39l-6.845-1.499s-2.427-.516-3.033-.627l-2.372-1.15a.947.947 0 0 0-1.308.537l-.979 2.812-1.031 3.664a120.657 120.657 0 0 0-1.112 4.23c-.472 1.97-.905 4.076-1.33 6.524-.103.583-.206 1.158-.28 1.66a69.79 69.79 0 0 0-.366 2.483 87.488 87.488 0 0 0-.466 3.841c-.133 1.264-.24 2.565-.328 3.891-.052.784-.104 1.557-.122 2.205-.037.49-.056.981-.067 1.46l-.026.76a135.99 135.99 0 0 0-.044 3.224c0 1.616.022 3.21.107 4.89a68.87 68.87 0 0 0 .27 4.193l.052.811c.136 1.294.269 2.565.417 3.727.015.221.044.437.074.662l.041.288c.133 1.155.321 2.31.487 3.214.063.592.158 1.18.285 1.762.016.123.039.246.07.367.137.841.31 1.682.499 2.57.114.574.229 1.146.351 1.64l.158.7c.248 1.104.503 2.206.773 3.161a56.675 56.675 0 0 0 1.182 4.162c.09.411.209.816.354 1.21.333 1.07.665 2.146 1.016 3.08a74.157 74.157 0 0 0 1.279 3.518l.938 2.387a143.183 143.183 0 0 0 2.948 6.596c.262.505.502.99.772 1.553.44.87.872 1.714 1.36 2.6.38.702.761 1.41 1.108 1.984a106.683 106.683 0 0 0 3.646 6.052c.2.306.399.607.603.907l.716 1.057a99.978 99.978 0 0 0 2.723 3.838 95.155 95.155 0 0 0 2.889 3.758c.99 1.23 1.988 2.404 3.022 3.594a83.868 83.868 0 0 0 3.151 3.446 65.741 65.741 0 0 0 3.078 3.109c.147.175.31.336.487.481a88.22 88.22 0 0 0 3.233 2.996 115.761 115.761 0 0 0 3.602 3.092 85.166 85.166 0 0 0 2.811 2.207c.529.45 1.094.85 1.652 1.243a47.087 47.087 0 0 0 3.332 2.362c.972.69 1.936 1.326 2.793 1.859.576.395 1.153.766 1.511.956.639.424 1.282.825 1.74 1.064.85.535 1.725 1.015 2.361 1.353.499.32 1.016.611 1.548.874.923.511 1.873 1 2.8 1.476a66.67 66.67 0 0 0 3.938 1.891c.772.373 1.574.714 2.228.978.864.389 1.736.756 2.375.994.385.177.761.318 1.016.406 1.182.48 2.398.915 3.525 1.319.264.117.539.211.82.279 1.223.439 2.457.834 3.905 1.289.295.093.595.179.89.266a98.974 98.974 0 0 1-12.712 23.93 15.376 15.376 0 0 0-.322-.308l-.557-.561a110.97 110.97 0 0 0-11.375-9.661l-2.265-1.628c-1.057-.752-2.106-1.466-2.978-1.994a29.867 29.867 0 0 0-1.803-1.173 103.61 103.61 0 0 0-9.974-5.589c-.854-.439-1.737-.85-2.815-1.352a24.075 24.075 0 0 0-1.644-.738l-.34-.151c-1.064-.472-2.121-.935-3.033-1.271a52.645 52.645 0 0 0-2.697-1.065 52.255 52.255 0 0 0-2.616-.929 48.13 48.13 0 0 0-2.501-.856l-1.382-.428a36.948 36.948 0 0 0-1.677-.491 61.27 61.27 0 0 0-2.453-.692l-1.699-.434a44.656 44.656 0 0 0-1.035-.245c-2.881-.712-5.922-1.315-9.313-1.843l-2.431-.33c-.68-.098-1.378-.17-2.246-.257a34.6 34.6 0 0 0-1.788-.192l-1.759-.145c-.86-.074-1.74-.124-2.59-.168l-1.3-.072a94.62 94.62 0 0 0-9.646-.006c-.4 0-.802.028-1.374.07l-.373.023a94.46 94.46 0 0 0-2.217.145c-.506.032-.986.065-1.245.111-.78.052-1.567.133-2.28.218-.794.081-1.562.164-2.33.267l-2.542.351c-2.827.422-5.742.992-8.915 1.739a92.29 92.29 0 0 0-2.671.666c-.64.165-1.267.344-1.895.523l-.924.263c-.912.268-1.825.537-2.752.834-.913.294-1.821.596-2.671.895a53.24 53.24 0 0 0-2.72.969 95.637 95.637 0 0 0-6.224 2.555c-.613.265-1.223.529-1.67.76a84.495 84.495 0 0 0-4.884 2.396c-.624.31-1.249.648-2.01 1.059-2.19 1.214-4.067 2.325-5.715 3.384-.617.382-1.234.771-1.63 1.066a60.424 60.424 0 0 0-3.213 2.144l-2.331 1.681a20.35 20.35 0 0 1-.887.662l-.569.437c-.48.378-.95.751-1.337 1.076-.976.749-1.95 1.527-2.738 2.23a33.32 33.32 0 0 0-1.555 1.323l-.462.404a150.059 150.059 0 0 0-3.757 3.487l-.525.522c-.428.419-.857.841-1.219 1.219a83.476 83.476 0 0 0-2.098 2.181s-3.64 4.111-3.846 4.338c-1.515 1.71-3.59 4.055-1.463 6.204l.329.413c.233.295.469.598.742.91l2.601 2.942c.043.1.101.193.174.273l3.358 3.71c.107.112.244.19.395.224a113.757 113.757 0 0 0 80.175 33.362h.71a114.036 114.036 0 0 0 65.272-21.24 114.48 114.48 0 0 0 40.911-54.863 114.496 114.496 0 0 0 30.512.565 112.431 112.431 0 0 0 16.861 31.163 114.175 114.175 0 0 0 54.023 38.599 113.07 113.07 0 0 0 63.452 2.322 112.971 112.971 0 0 0 54.679-32.239 120.653 120.653 0 0 0 5.364-6.13l1.322-1.633a.937.937 0 0 0 0-1.186Zm-79.846.171a.943.943 0 0 0 .721-1.736 95.972 95.972 0 0 0-66.115-9.326 97.931 97.931 0 0 1 65.087-17.325 97.89 97.89 0 0 1 60.873 28.802 97.914 97.914 0 0 1-63.639 28.996 97.94 97.94 0 0 1-66.761-20.843 91.475 91.475 0 0 1 69.834-8.568ZM311.047 37.386c0 44.545-31.199 84.363-74.323 95.054a98.849 98.849 0 0 1-2.113-20.301 97.401 97.401 0 0 1 27.733-68.189 95.868 95.868 0 0 1 5.649-5.361 98.34 98.34 0 0 1 14.814-10.74 97.524 97.524 0 0 1 26.134-10.76 98.744 98.744 0 0 1 2.106 20.297ZM186.795 112.14a98.072 98.072 0 0 1-1.881 19.131c-.384-.116-.772-.238-1.164-.361a151.102 151.102 0 0 1-3.76-1.244l-.64-.236a87.056 87.056 0 0 1-3.506-1.376 81.755 81.755 0 0 1-3.428-1.489 17.004 17.004 0 0 1-1.803-.86 43.826 43.826 0 0 1-2.283-1.103 5.13 5.13 0 0 1-.521-.282l-.343-.186c-.946-.451-1.866-.973-2.871-1.565a56.204 56.204 0 0 1-3.436-2.055l-.668-.421a.7.7 0 0 0-.104-.057 121.51 121.51 0 0 1-2.722-1.817l-.307-.201a144.574 144.574 0 0 1-2.819-2.03l-.598-.474a36.973 36.973 0 0 1-2.538-1.99 23.465 23.465 0 0 1-1.168-.941c-.495-.408-.975-.81-1.537-1.312-.598-.502-1.167-1.028-1.939-1.747-.274-.225-.529-.478-.857-.801l-.215-.21a26.42 26.42 0 0 1-1.367-1.321 42.038 42.038 0 0 1-1.647-1.651l-1.67-1.779c-.425-.466-.868-.95-1.385-1.529a10.261 10.261 0 0 1-.566-.657 74.383 74.383 0 0 1-2.146-2.562 15.705 15.705 0 0 1-.65-.797c-.488-.572-.942-1.172-1.541-2-.321-.39-.598-.773-.983-1.325-.472-.62-.923-1.26-1.474-2.066-.21-.279-.395-.555-.657-.945l-.214-.322c-.455-.687-.917-1.377-1.36-2.13l-.222-.33a3.164 3.164 0 0 1-.317-.514l-.181-.309c-.37-.559-.695-1.127-1.09-1.811l-.299-.519a12.846 12.846 0 0 1-.677-1.171 86.513 86.513 0 0 1-1.71-3.242 72.13 72.13 0 0 1-1.592-3.245c-.1-.186-.181-.376-.329-.714a60.422 60.422 0 0 1-1.415-3.276l-.207-.507a.867.867 0 0 0-.059-.119 83.533 83.533 0 0 1-1.156-3.022c-.067-.14-.115-.297-.248-.686a33.797 33.797 0 0 1-.872-2.601c-.517-1.469-1.001-3.088-1.57-5.267a56.154 56.154 0 0 1-.92-3.806 43.83 43.83 0 0 1-.635-3.194c-.181-.747-.296-1.492-.425-2.34a64.796 64.796 0 0 1-.443-3.025 95.6 95.6 0 0 1-.806-12.344c0-.771.022-1.562.041-2.404l.015-.522c.022-.878.048-1.738.122-2.653l.007-.345c.018-.557.063-1.094.115-1.764l.133-1.579c.04-.481.099-.965.162-1.476l.041-.317c.181-1.762.443-3.621.798-5.686.133-.77.269-1.54.447-2.406a98.516 98.516 0 0 1 50.54 35.41 98.32 98.32 0 0 1 19.52 58.495Zm-47.477 53.649c.429.251.832.506 1.26.773l.499.314a.85.85 0 0 0 .137.072.948.948 0 0 0 .147.114 79.457 79.457 0 0 1 3.447 2.28 95.999 95.999 0 0 0-65.578 9.446.926.926 0 0 0-.403 1.175.963.963 0 0 0 1.16.548 91.509 91.509 0 0 1 35.609-2.698 91.459 91.459 0 0 1 33.926 11.139 98.046 98.046 0 0 1-66.862 20.986 98.017 98.017 0 0 1-63.789-29 55.47 55.47 0 0 1 1.286-1.27 95.235 95.235 0 0 1 6.055-5.473c1.145-.941 2.312-1.886 3.546-2.788a92.82 92.82 0 0 1 6.318-4.371c.487-.335.997-.64 1.651-1.033l.425-.26a55.95 55.95 0 0 1 2.18-1.275c.443-.26.875-.494 1.448-.798.262-.15.513-.283.92-.5l.602-.31c.71-.366 1.422-.725 2.205-1.111a40.356 40.356 0 0 1 2.243-1.074l.975-.433c.466-.214.931-.426 1.482-.65a79.036 79.036 0 0 1 2.442-1.005 85.232 85.232 0 0 1 2.42-.923 87.543 87.543 0 0 1 5.046-1.677 35.794 35.794 0 0 1 1.552-.466l1.045-.307c.78-.202 1.566-.407 2.357-.595l2.228-.537a58.67 58.67 0 0 1 2.892-.591l2.483-.453c3.555-.578 7.14-.966 10.736-1.161.462-.035.927-.053 1.46-.076l.46-.02a152.22 152.22 0 0 1 6.514-.005l.336.016a60.24 60.24 0 0 1 1.844.089c1.758.101 3.535.225 5.29.426.876.096 1.722.194 2.608.325l2.601.372c.879.15 1.729.301 2.69.493.447.079.897.173 1.566.312l.968.203c1.696.376 3.395.771 5.08 1.25 1.61.451 3.243.954 4.836 1.486l2.641.916c1.626.604 3.255 1.225 4.899 1.943a92.48 92.48 0 0 1 9.417 4.614c.742.417 1.478.836 2.213 1.271l.598-.743-.325.909c.004.004.211.129.214.131Z" fill="#F4F4F4"/></svg>