<svg width="97" height="82" viewBox="0 0 97 82" fill="none" xmlns="http://www.w3.org/2000/svg">
<path d="M94.3416 12.5185C88.8034 15.4568 84.4766 18.3951 81.3613 21.3333C78.2461 24.0988 76.5153 27.9012 76.1692 32.7407C82.0536 33.7778 86.9861 36.2839 90.9668 40.2593C94.9474 44.2346 96.9377 48.9012 96.9377 54.2593C96.9377 59.963 94.9474 64.8025 90.9668 68.7778C86.9861 72.9259 82.0536 75 76.1692 75C70.4579 75 65.6119 73.0123 61.6312 69.037C57.6506 65.2346 55.4872 60.3086 55.1411 54.2593C54.2757 38.8765 57.391 27.8148 64.4869 21.0741C67.7753 17.4444 71.2367 14.4198 74.8712 12C78.3326 9.40741 81.6209 7.59259 84.7362 6.55556C87.3323 5.51852 89.8418 5 92.2648 5C92.784 5 93.4763 5.17284 94.3416 5.51852C95.0339 5.8642 95.6397 6.20988 96.1589 6.55556C97.7165 8.97531 97.1108 10.963 94.3416 12.5185Z" fill="#EEC2CB"/>
<path d="M39.3416 12.5185C33.8034 15.4568 29.4766 18.3951 26.3613 21.3333C23.2461 24.0988 21.5153 27.9012 21.1692 32.7407C27.0536 33.7778 31.9861 36.2839 35.9668 40.2593C39.9474 44.2346 41.9377 48.9012 41.9377 54.2593C41.9377 59.963 39.9474 64.8025 35.9668 68.7778C31.9861 72.9259 27.0536 75 21.1692 75C15.4579 75 10.6119 73.0123 6.63125 69.037C2.65062 65.2346 0.487233 60.3086 0.141092 54.2593C-0.724259 38.8765 2.39101 27.8148 9.48692 21.0741C12.7753 17.4444 16.2367 14.4198 19.8712 12C23.3326 9.40741 26.6209 7.59259 29.7362 6.55556C32.3323 5.51852 34.8418 5 37.2648 5C37.784 5 38.4763 5.17284 39.3416 5.51852C40.0339 5.8642 40.6397 6.20988 41.1589 6.55556C42.7165 8.97531 42.1108 10.963 39.3416 12.5185Z" fill="#EEC2CB"/>
</svg>
