<svg width="28" height="28" viewBox="0 0 28 28" fill="none" xmlns="http://www.w3.org/2000/svg">
<mask id="mask0_1429_43603" style="mask-type:alpha" maskUnits="userSpaceOnUse" x="0" y="0" width="28" height="28">
<rect width="28" height="28" fill="#D9D9D9"/>
</mask>
<g mask="url(#mask0_1429_43603)">
<path d="M13.4414 16.5365L9.76513 12.8602C9.71442 12.8095 9.67448 12.7529 9.64531 12.6903C9.61615 12.6278 9.60156 12.5607 9.60156 12.4893C9.60156 12.3463 9.6499 12.2221 9.74658 12.1167C9.84324 12.0112 9.97065 11.9585 10.1288 11.9585H17.8736C18.0318 11.9585 18.1592 12.0117 18.2558 12.1182C18.3525 12.2247 18.4009 12.3489 18.4009 12.4908C18.4009 12.5263 18.3463 12.6495 18.2371 12.8604L14.561 16.5365C14.4765 16.621 14.3891 16.6827 14.2989 16.7216C14.2087 16.7605 14.1095 16.7799 14.0012 16.7799C13.893 16.7799 13.7937 16.7605 13.7035 16.7216C13.6133 16.6827 13.5259 16.621 13.4414 16.5365Z" fill="#1D1D1B"/>
</g>
</svg>
