<svg width="40" height="41" viewBox="0 0 40 41" fill="none" xmlns="http://www.w3.org/2000/svg">
<path d="M18.4911 4.81711C15.5503 5.11857 12.8741 6.1706 10.4808 7.95476C9.70565 8.53922 8.03224 10.2065 7.46008 10.9755C5.94047 13.0058 4.96226 15.2206 4.53161 17.5707C3.70721 22.0249 4.72848 26.3684 7.46008 30.0229C8.03224 30.7919 9.70565 32.4592 10.4808 33.0436C12.7202 34.717 15.2058 35.7322 18.0604 36.1382C18.7864 36.2428 21.2042 36.2366 21.9671 36.1382C25.5292 35.646 28.7161 34.0649 31.1401 31.5917C31.9153 30.8042 32.0998 30.595 32.592 29.9429C34.1916 27.8327 35.2375 25.2487 35.6374 22.4371C35.742 21.7112 35.742 19.2872 35.6374 18.5612C35.2805 16.0757 34.4069 13.7194 33.1149 11.7938C30.5864 8.01628 26.6982 5.56768 22.1824 4.89709C21.4257 4.78635 19.2416 4.73713 18.4911 4.81711ZM20.5705 10.5572C20.7059 10.6248 20.8781 10.7971 20.9581 10.9386L21.1058 11.1908V15.5651V19.9455L23.8128 22.1111C25.843 23.7353 26.5443 24.3259 26.6243 24.492C26.6797 24.615 26.7289 24.855 26.7289 25.0334C26.7289 25.624 26.249 26.0977 25.64 26.0977C25.4739 26.0977 25.2524 26.0547 25.1478 26.0055C24.8709 25.8701 19.1986 21.3051 19.0509 21.096C18.9217 20.9237 18.9217 20.8499 18.9033 16.0573L18.891 11.197L19.0263 10.9571C19.2416 10.5695 19.7338 10.3295 20.1522 10.3972C20.2568 10.4095 20.4413 10.4833 20.5705 10.5572Z" fill="#559479"/>
</svg>
