<svg width="40" height="41" viewBox="0 0 40 41" fill="none" xmlns="http://www.w3.org/2000/svg">
<path d="M27.7217 9.42926L35.4278 14.0926L27.7115 14.1225C23.4783 14.1324 16.5429 14.1324 12.2994 14.1225L4.5934 14.0926L11.1898 10.1068C14.8064 7.91469 18.269 5.82218 18.865 5.4535C19.4609 5.08482 19.9746 4.78589 19.9849 4.78589C20.0054 4.77592 23.4886 6.86843 27.7217 9.42926ZM11.4261 18.6263C20.252 23.9672 19.4403 23.5089 19.9952 23.5089C20.3034 23.5089 20.6116 23.4291 20.8788 23.2797C21.1048 23.1501 24.2078 21.2868 27.7628 19.1345C31.3282 16.9822 34.5647 15.0193 34.9551 14.7801L35.6744 14.3516L35.7052 22.074C35.7257 29.7764 35.7257 29.7963 35.51 30.2946C35.2531 30.8725 34.4722 31.5999 33.8968 31.7992C33.5886 31.8988 30.9069 31.9287 19.9541 31.9287C7.56278 31.9287 6.36065 31.9187 6.02158 31.7593C5.4462 31.5102 4.78862 30.8825 4.53175 30.3344L4.28516 29.8362V22.084V14.3218L4.62422 14.5111C4.79889 14.6207 7.87103 16.474 11.4261 18.6263Z" fill="#F4F4F4"/>
<path d="M11.4261 18.6263C20.252 23.9672 19.4403 23.5089 19.9952 23.5089C20.3034 23.5089 20.6116 23.4291 20.8788 23.2797C21.1048 23.1501 24.2078 21.2868 27.7628 19.1345C31.3282 16.9822 34.5647 15.0193 34.9551 14.7801L35.6744 14.3516L35.7052 22.074C35.7257 29.7764 35.7257 29.7963 35.51 30.2946C35.2531 30.8725 34.4722 31.5999 33.8968 31.7992C33.5886 31.8988 30.9069 31.9287 19.9541 31.9287C7.56278 31.9287 6.36065 31.9187 6.02158 31.7593C5.4462 31.5102 4.78862 30.8825 4.53175 30.3344L4.28516 29.8362V22.084V14.3218L4.62422 14.5111C4.79889 14.6207 7.87103 16.474 11.4261 18.6263Z" fill="#559479"/>
<path d="M27.7217 9.42926L35.4278 14.0926L27.7115 14.1225C23.4783 14.1324 16.5429 14.1324 12.2994 14.1225L4.5934 14.0926L11.1898 10.1068C14.8064 7.91469 18.269 5.82218 18.865 5.4535C19.4609 5.08482 19.9746 4.78589 19.9849 4.78589C20.0054 4.77592 23.4886 6.86843 27.7217 9.42926Z" fill="#559479"/>
</svg>
