<svg width="60" height="60" viewBox="0 0 60 60" fill="none" xmlns="http://www.w3.org/2000/svg">
<path d="M30 56.875C15.175 56.875 3.125 44.825 3.125 30C3.125 15.175 15.175 3.125 30 3.125C44.825 3.125 56.875 15.175 56.875 30C56.875 44.825 44.825 56.875 30 56.875ZM30 6.875C17.25 6.875 6.875 17.25 6.875 30C6.875 42.75 17.25 53.125 30 53.125C42.75 53.125 53.125 42.75 53.125 30C53.125 17.25 42.75 6.875 30 6.875Z" fill="#E29AA8"/>
<path d="M22.5016 54.375H20.0016C18.9766 54.375 18.1266 53.525 18.1266 52.5C18.1266 51.475 18.9266 50.65 19.9516 50.625C16.0266 37.225 16.0266 22.775 19.9516 9.375C18.9266 9.35 18.1266 8.525 18.1266 7.5C18.1266 6.475 18.9766 5.625 20.0016 5.625H22.5016C23.1016 5.625 23.6766 5.925 24.0266 6.4C24.3766 6.9 24.4766 7.525 24.2766 8.1C19.5766 22.225 19.5766 37.775 24.2766 51.925C24.4766 52.5 24.3766 53.125 24.0266 53.625C23.6766 54.075 23.1016 54.375 22.5016 54.375Z" fill="#E29AA8"/>
<path d="M37.4981 54.3747C37.2981 54.3747 37.0981 54.3497 36.8981 54.2747C35.9231 53.9497 35.3731 52.8747 35.7231 51.8997C40.4231 37.7747 40.4231 22.2247 35.7231 8.07472C35.3981 7.09972 35.9231 6.02472 36.8981 5.69972C37.8981 5.37472 38.9481 5.89972 39.2731 6.87472C44.2481 21.7747 44.2481 38.1747 39.2731 53.0497C39.0231 53.8747 38.2731 54.3747 37.4981 54.3747Z" fill="#E29AA8"/>
<path d="M30 43C23.025 43 16.075 42.025 9.375 40.05C9.35 41.05 8.525 41.875 7.5 41.875C6.475 41.875 5.625 41.025 5.625 40V37.5C5.625 36.9 5.925 36.325 6.4 35.975C6.9 35.625 7.525 35.525 8.1 35.725C22.225 40.425 37.8 40.425 51.925 35.725C52.5 35.525 53.125 35.625 53.625 35.975C54.125 36.325 54.4 36.9 54.4 37.5V40C54.4 41.025 53.55 41.875 52.525 41.875C51.5 41.875 50.675 41.075 50.65 40.05C43.925 42.025 36.975 43 30 43Z" fill="#E29AA8"/>
<path d="M52.5014 24.3749C52.3014 24.3749 52.1014 24.3499 51.9014 24.2749C37.7764 19.5749 22.2014 19.5749 8.07641 24.2749C7.07641 24.5999 6.02641 24.0749 5.70141 23.0999C5.40141 22.0999 5.92641 21.0499 6.90141 20.7249C21.8014 15.7499 38.2014 15.7499 53.0764 20.7249C54.0514 21.0499 54.6014 22.1249 54.2514 23.0999C54.0264 23.8749 53.2764 24.3749 52.5014 24.3749Z" fill="#E29AA8"/>
</svg>
