<svg width="24" height="24" viewBox="0 0 24 24" fill="none" xmlns="http://www.w3.org/2000/svg">
<path d="M11.8817 14.9901C11.6917 14.9901 11.5017 14.9201 11.3517 14.7701L8.79172 12.2101C8.50172 11.9201 8.50172 11.4401 8.79172 11.1501C9.08172 10.8601 9.56172 10.8601 9.85172 11.1501L11.8817 13.1801L13.9117 11.1501C14.2017 10.8601 14.6817 10.8601 14.9717 11.1501C15.2617 11.4401 15.2617 11.9201 14.9717 12.2101L12.4117 14.7701C12.2617 14.9201 12.0717 14.9901 11.8817 14.9901Z" fill="#2B5644"/>
<path d="M11.8789 14.92C11.4689 14.92 11.1289 14.58 11.1289 14.17L11.1289 4C11.1289 3.59 11.4689 3.25 11.8789 3.25C12.2889 3.25 12.6289 3.59 12.6289 4L12.6289 14.17C12.6289 14.58 12.2889 14.92 11.8789 14.92Z" fill="#2B5644"/>
<path d="M12 20.9302C6.85 20.9302 3.25 17.3302 3.25 12.1802C3.25 11.7702 3.59 11.4302 4 11.4302C4.41 11.4302 4.75 11.7702 4.75 12.1802C4.75 16.4502 7.73 19.4302 12 19.4302C16.27 19.4302 19.25 16.4502 19.25 12.1802C19.25 11.7702 19.59 11.4302 20 11.4302C20.41 11.4302 20.75 11.7702 20.75 12.1802C20.75 17.3302 17.15 20.9302 12 20.9302Z" fill="#2B5644"/>
</svg>
