<svg width="28" height="28" viewBox="0 0 28 28" fill="none" xmlns="http://www.w3.org/2000/svg">
<path d="M13.2623 0.0326767C10.9436 0.262363 9.00217 1.16471 7.41077 2.76158C5.19045 4.97643 4.24436 8.13736 4.8678 11.2163C5.00451 11.8835 5.24514 12.6217 5.52952 13.2288C5.64983 13.4858 7.49827 16.8655 9.64202 20.7428C13.7162 28.1256 13.6397 27.9999 14.0006 27.9999C14.3615 27.9999 14.285 28.1256 18.3647 20.7428C20.503 16.86 22.3569 13.4803 22.4717 13.2288C23.4889 11.0413 23.5928 8.39986 22.7561 6.14127C22.2639 4.8233 21.5694 3.73502 20.5905 2.76158C19.174 1.33971 17.528 0.492052 15.5045 0.131115C15.067 0.0545521 13.6725 -0.0110741 13.2623 0.0326767ZM14.4655 4.70299C15.6412 4.83424 16.5928 5.31002 17.4022 6.16861C18.2881 7.10924 18.6928 8.21939 18.6326 9.53736C18.5944 10.3194 18.5069 10.6803 18.1842 11.3585C17.6045 12.5506 16.5819 13.4202 15.2858 13.8139C14.8483 13.9452 14.7061 13.9616 14.0006 13.9616C13.2951 13.9616 13.153 13.9452 12.7155 13.8139C11.7803 13.5296 10.9764 12.9991 10.3858 12.2608C10.0303 11.8233 9.63108 11.0413 9.48889 10.5272C9.35217 10.0241 9.31936 8.96861 9.42873 8.44361C9.82795 6.45846 11.4686 4.93814 13.4537 4.70846C13.678 4.68111 13.8912 4.65924 13.9186 4.65377C13.9514 4.65377 14.1975 4.67565 14.4655 4.70299Z" fill="white"/>
</svg>
