<svg width="40" height="40" viewBox="0 0 40 40" fill="none" xmlns="http://www.w3.org/2000/svg">
<path d="M18.9445 0.0466805C15.632 0.374805 12.8586 1.66387 10.5851 3.94512C7.41326 7.10918 6.0617 11.6248 6.95232 16.0232C7.14763 16.9764 7.49138 18.0311 7.89763 18.8982C8.06951 19.2654 10.7101 24.0936 13.7726 29.6326C19.5929 40.1795 19.4836 39.9998 19.9992 39.9998C20.5148 39.9998 20.4054 40.1795 26.2336 29.6326C29.2883 24.0857 31.9367 19.2576 32.1008 18.8982C33.5539 15.7732 33.7023 11.9998 32.507 8.77324C31.8039 6.89043 30.8117 5.33574 29.4133 3.94512C27.3898 1.91387 25.0383 0.70293 22.1476 0.187305C21.5226 0.0779305 19.5304 -0.0158195 18.9445 0.0466805ZM20.6633 6.71856C22.3429 6.90606 23.7023 7.58574 24.8586 8.81231C26.1242 10.1561 26.7023 11.742 26.6164 13.6248C26.5617 14.742 26.4367 15.2576 25.9758 16.2264C25.1476 17.9295 23.6867 19.1717 21.8351 19.7342C21.2101 19.9217 21.007 19.9451 19.9992 19.9451C18.9914 19.9451 18.7883 19.9217 18.1633 19.7342C16.8273 19.3279 15.6789 18.5701 14.8351 17.5154C14.3273 16.8904 13.757 15.7732 13.5539 15.0389C13.3586 14.3201 13.3117 12.8123 13.4679 12.0623C14.0383 9.22637 16.382 7.05449 19.2179 6.72637C19.5383 6.68731 19.8429 6.65606 19.882 6.64824C19.9289 6.64824 20.2804 6.67949 20.6633 6.71856Z" fill="#559479"/>
</svg>
