<svg width="36" height="37" viewBox="0 0 36 37" fill="none" xmlns="http://www.w3.org/2000/svg">
<circle cx="18" cy="18.0786" r="18" fill="#2B5644"/>
<path d="M17.4472 8.08965C15.7054 8.27024 14.247 8.9797 13.0516 10.2352C11.3837 11.9766 10.673 14.4619 11.1413 16.8826C11.244 17.4072 11.4248 17.9876 11.6384 18.4649C11.7288 18.667 13.1173 21.3242 14.7277 24.3728C17.7882 30.1774 17.7307 30.0785 18.0018 30.0785C18.2729 30.0785 18.2154 30.1774 21.2801 24.3728C22.8863 21.3199 24.279 18.6627 24.3652 18.4649C25.1293 16.745 25.2074 14.6683 24.5788 12.8925C24.2091 11.8562 23.6874 11.0006 22.952 10.2352C21.8881 9.11729 20.6515 8.45083 19.1315 8.16705C18.8029 8.10685 17.7553 8.05526 17.4472 8.08965ZM18.351 11.7616C19.2342 11.8648 19.949 12.2389 20.557 12.914C21.2225 13.6535 21.5265 14.5264 21.4814 15.5626C21.4526 16.1775 21.3869 16.4612 21.1445 16.9944C20.709 17.9318 19.9408 18.6154 18.9672 18.925C18.6386 19.0282 18.5317 19.0411 18.0018 19.0411C17.4719 19.0411 17.3651 19.0282 17.0364 18.925C16.3339 18.7014 15.73 18.2843 15.2864 17.7039C15.0193 17.3599 14.7194 16.745 14.6126 16.3408C14.5099 15.9453 14.4853 15.1154 14.5674 14.7026C14.8673 13.1418 16.0998 11.9465 17.591 11.7659C17.7594 11.7444 17.9196 11.7272 17.9402 11.7229C17.9648 11.7229 18.1497 11.7401 18.351 11.7616Z" fill="white"/>
</svg>
