<svg width="14" height="22" viewBox="0 0 14 22" fill="none" xmlns="http://www.w3.org/2000/svg">
<path d="M6.44721 0.0110397C4.70539 0.191629 3.24702 0.901085 2.05156 2.15661C0.383683 3.898 -0.327016 6.38325 0.141306 8.804C0.244008 9.32857 0.424764 9.90903 0.638384 10.3863C0.728762 10.5884 2.11729 13.2456 3.72766 16.2941C6.78818 22.0988 6.73067 21.9999 7.0018 21.9999C7.27294 21.9999 7.21543 22.0988 10.2801 16.2941C11.8863 13.2413 13.279 10.5841 13.3652 10.3863C14.1293 8.66641 14.2074 6.58964 13.5788 4.81385C13.2091 3.77761 12.6874 2.92196 11.952 2.15661C10.8881 1.03868 9.65152 0.372217 8.13153 0.0884361C7.80288 0.0282383 6.75532 -0.0233574 6.44721 0.0110397ZM7.35099 3.68302C8.23423 3.78621 8.94904 4.16029 9.55703 4.83534C10.2225 5.5749 10.5265 6.44775 10.4814 7.48398C10.4526 8.09884 10.3869 8.38263 10.1445 8.91579C9.70903 9.85314 8.94082 10.5368 7.9672 10.8464C7.63856 10.9496 7.53175 10.9625 7.0018 10.9625C6.47186 10.9625 6.36505 10.9496 6.03641 10.8464C5.33392 10.6228 4.73003 10.2057 4.28636 9.62525C4.01934 9.28127 3.71945 8.66641 3.61264 8.26223C3.50993 7.86666 3.48529 7.03681 3.56745 6.62403C3.86734 5.06323 5.09976 3.8679 6.591 3.68731C6.75943 3.66582 6.91964 3.64862 6.94018 3.64432C6.96483 3.64432 7.1497 3.66152 7.35099 3.68302Z" fill="white"/>
</svg>
