<svg width="20" height="20" viewBox="0 0 20 20" fill="none" xmlns="http://www.w3.org/2000/svg">
<path fill-rule="evenodd" clip-rule="evenodd" d="M14.6605 2.17464L16.7532 3.87787C16.9552 4.07475 17.0685 4.34537 17.0669 4.62748C17.0652 4.90959 16.9489 5.17889 16.7446 5.37343L15.1543 7.31014L9.74231 13.9132C9.6486 14.0236 9.52246 14.1015 9.38186 14.136L6.57579 14.7815C6.20346 14.7969 5.88237 14.5223 5.83984 14.1521L5.97111 11.3837C5.98084 11.2423 6.03679 11.1081 6.13035 11.0017L11.3089 4.69128L13.1326 2.46622C13.487 1.98391 14.1534 1.85673 14.6605 2.17464Z" stroke="#2B5644" stroke-width="1.25" stroke-linecap="round" stroke-linejoin="round"/>
<path d="M2 17.505C1.65482 17.505 1.375 17.7848 1.375 18.13C1.375 18.4752 1.65482 18.755 2 18.755V17.505ZM16.7405 18.755C17.0857 18.755 17.3655 18.4752 17.3655 18.13C17.3655 17.7848 17.0857 17.505 16.7405 17.505V18.755ZM11.886 4.45747C11.7568 4.13739 11.3926 3.98264 11.0725 4.11184C10.7524 4.24103 10.5977 4.60525 10.7269 4.92534L11.886 4.45747ZM15.2896 7.92313C15.6263 7.84707 15.8376 7.51246 15.7615 7.17577C15.6855 6.83908 15.3509 6.62779 15.0142 6.70385L15.2896 7.92313ZM2 18.755H16.7405V17.505H2V18.755ZM10.7269 4.92534C10.9693 5.52586 11.4691 6.38444 12.209 7.04244C12.9599 7.71019 14.0124 8.21167 15.2896 7.92313L15.0142 6.70385C14.2482 6.87689 13.5931 6.60047 13.0397 6.10835C12.4753 5.60647 12.074 4.92322 11.886 4.45747L10.7269 4.92534Z" fill="#2B5644"/>
</svg>
