<svg width="40" height="41" viewBox="0 0 40 41" fill="none" xmlns="http://www.w3.org/2000/svg">
<mask id="mask0_1576_79910" style="mask-type:alpha" maskUnits="userSpaceOnUse" x="0" y="0" width="40" height="41">
<rect y="0.5" width="40" height="40" fill="#D9D9D9"/>
</mask>
<g mask="url(#mask0_1576_79910)">
<path d="M32.3992 34.6667C29.2582 34.6667 26.1028 33.9365 22.9329 32.476C19.7631 31.0156 16.848 28.9552 14.1878 26.295C11.5382 23.6347 9.48321 20.7223 8.02274 17.5578C6.56227 14.3933 5.83203 11.2405 5.83203 8.09954C5.83203 7.59954 5.9987 7.1802 6.33203 6.84154C6.66536 6.50284 7.08203 6.3335 7.58203 6.3335H13.0179C13.4388 6.3335 13.8101 6.47079 14.1317 6.74537C14.4532 7.01995 14.6578 7.35916 14.7454 7.763L15.7005 12.6668C15.7668 13.1219 15.7529 13.513 15.6589 13.8399C15.5649 14.1668 15.3961 14.4414 15.1524 14.6636L11.3031 18.4104C11.9228 19.545 12.6306 20.6182 13.4265 21.6299C14.2225 22.6417 15.0841 23.6081 16.0114 24.529C16.926 25.4435 17.8982 26.2929 18.9282 27.0771C19.9581 27.8613 21.0703 28.591 22.2647 29.2662L26.0051 25.4937C26.2658 25.2224 26.5815 25.0322 26.9522 24.9232C27.3229 24.8143 27.7081 24.7876 28.1077 24.8431L32.7358 25.7854C33.1567 25.8965 33.5002 26.1113 33.7662 26.4296C34.0323 26.748 34.1653 27.1091 34.1653 27.513V32.9167C34.1653 33.4167 33.9959 33.8334 33.6572 34.1667C33.3186 34.5001 32.8992 34.6667 32.3992 34.6667Z" fill="#559479"/>
</g>
</svg>
