<svg width="24" height="24" viewBox="0 0 24 24" fill="none" xmlns="http://www.w3.org/2000/svg">
<path d="M16.75 7.75L7.25 7.75C6.84 7.75 6.5 7.41 6.5 7V5C6.5 2.44 7.69 1.25 10.25 1.25L13.75 1.25C16.31 1.25 17.5 2.44 17.5 5V7C17.5 7.41 17.16 7.75 16.75 7.75ZM8 6.25L16 6.25V5C16 3.3 15.45 2.75 13.75 2.75H10.25C8.55 2.75 8 3.3 8 5V6.25Z" fill="#2B5644"/>
<path d="M13.2632 22H10.7368C7.68 22 6 20.5918 6 18.0294L6 14.7941C6 14.36 6.42947 14 6.94737 14L17.0526 14C17.5705 14 18 14.36 18 14.7941V18.0294C18 20.5918 16.32 22 13.2632 22ZM7.89474 15.5882L7.89474 18.0294C7.89474 19.7024 8.74105 20.4118 10.7368 20.4118H13.2632C15.2589 20.4118 16.1053 19.7024 16.1053 18.0294V15.5882L7.89474 15.5882Z" fill="#2B5644"/>
<path d="M19 18.75L17 18.75C16.59 18.75 16.25 18.41 16.25 18V15.75L7.75 15.75V18C7.75 18.41 7.41 18.75 7 18.75H5C2.58 18.75 2.25 17.42 2.25 15L2.25 10C2.25 7.58 3.58 6.25 6 6.25L18 6.25C20.42 6.25 21.75 7.58 21.75 10V15C21.75 17.42 21.42 18.75 19 18.75ZM17.75 17.25L19 17.25C20.58 17.25 20.25 16.58 20.25 15V10C20.25 8.42 19.58 7.75 18 7.75L6 7.75C4.42 7.75 3.75 8.42 3.75 10L3.75 15C3.75 16.58 3.42 17.25 5 17.25H6.25V15C6.25 14.59 6.59 14.25 7 14.25L17 14.25C17.41 14.25 17.75 14.59 17.75 15V17.25Z" fill="#2B5644"/>
<path d="M17 15.75L7 15.75C6.59 15.75 6.25 15.41 6.25 15C6.25 14.59 6.59 14.25 7 14.25L17 14.25C17.41 14.25 17.75 14.59 17.75 15C17.75 15.41 17.41 15.75 17 15.75Z" fill="#2B5644"/>
<path d="M10 11.75H7C6.59 11.75 6.25 11.41 6.25 11C6.25 10.59 6.59 10.25 7 10.25H10C10.41 10.25 10.75 10.59 10.75 11C10.75 11.41 10.41 11.75 10 11.75Z" fill="#2B5644"/>
</svg>
