<svg width="60" height="60" viewBox="0 0 60 60" fill="none" xmlns="http://www.w3.org/2000/svg">
<path d="M48.55 29.375H40C38.975 29.375 38.125 28.525 38.125 27.5V10.025C38.125 8.175 38.85 6.45 40.15 5.15C41.45 3.85 43.175 3.125 45.025 3.125H45.05C48.175 3.15 51.1249 4.375 53.3749 6.6C55.6249 8.875 56.85 11.875 56.85 15V21.05C56.875 26.025 53.525 29.375 48.55 29.375ZM41.875 25.625H48.55C51.45 25.625 53.125 23.95 53.125 21.05V15C53.125 12.85 52.275 10.8 50.75 9.25C49.225 7.75 47.2 6.9 45.05 6.875C45.05 6.875 45.05 6.875 45.025 6.875C44.2 6.875 43.4 7.2 42.8 7.8C42.2 8.4 41.875 9.175 41.875 10.025V25.625Z" fill="#E29AA8"/>
<path d="M22.4984 58.325C21.3234 58.325 20.2234 57.875 19.3984 57.025L15.2484 52.85C15.0234 52.625 14.6735 52.6 14.4235 52.8L10.1484 56C8.82341 57 7.07336 57.175 5.57336 56.425C4.07336 55.675 3.14844 54.175 3.14844 52.5V15C3.14844 7.45 7.47344 3.125 15.0234 3.125H45.0234C46.0484 3.125 46.8984 3.975 46.8984 5C46.8984 6.025 46.0484 6.875 45.0234 6.875C43.2984 6.875 41.8984 8.275 41.8984 10V52.5C41.8984 54.175 40.9734 55.675 39.4734 56.425C37.9984 57.175 36.2235 57 34.8985 56L30.6234 52.8C30.3734 52.6 30.0234 52.65 29.8234 52.85L25.6234 57.05C24.7734 57.875 23.6734 58.325 22.4984 58.325ZM14.7733 48.925C15.9233 48.925 17.0483 49.35 17.8983 50.225L22.0484 54.4C22.1984 54.55 22.3984 54.575 22.4984 54.575C22.5984 54.575 22.7984 54.55 22.9484 54.4L27.1484 50.2C28.6984 48.65 31.1485 48.5 32.8735 49.825L37.1234 53C37.3984 53.2 37.6484 53.125 37.7734 53.05C37.8984 52.975 38.1234 52.825 38.1234 52.5V10C38.1234 8.875 38.3984 7.8 38.8734 6.875H14.9984C9.44841 6.875 6.87341 9.45 6.87341 15V52.5C6.87341 52.85 7.09845 53 7.22345 53.075C7.37345 53.15 7.62347 53.2 7.87347 53L12.1484 49.8C12.9234 49.225 13.8483 48.925 14.7733 48.925Z" fill="#E29AA8"/>
<path d="M30 24.375H15C13.975 24.375 13.125 23.525 13.125 22.5C13.125 21.475 13.975 20.625 15 20.625H30C31.025 20.625 31.875 21.475 31.875 22.5C31.875 23.525 31.025 24.375 30 24.375Z" fill="#E29AA8"/>
<path d="M28.125 34.375H16.875C15.85 34.375 15 33.525 15 32.5C15 31.475 15.85 30.625 16.875 30.625H28.125C29.15 30.625 30 31.475 30 32.5C30 33.525 29.15 34.375 28.125 34.375Z" fill="#E29AA8"/>
</svg>
