<svg width="60" height="60" viewBox="0 0 60 60" fill="none" xmlns="http://www.w3.org/2000/svg">
<path d="M36.7484 56.8748H23.2484C10.8984 56.8748 5.64844 51.5998 5.64844 39.2748V28.0498C5.64844 27.0248 6.49844 26.1748 7.52344 26.1748C8.54844 26.1748 9.39844 27.0248 9.39844 28.0498V39.2748C9.39844 49.4998 13.0234 53.1248 23.2484 53.1248H36.7234C46.9484 53.1248 50.5734 49.4998 50.5734 39.2748V28.0498C50.5734 27.0248 51.4234 26.1748 52.4484 26.1748C53.4734 26.1748 54.3234 27.0248 54.3234 28.0498V39.2748C54.3484 51.5998 49.0734 56.8748 36.7484 56.8748Z" fill="#E29AA8"/>
<path d="M29.9995 31.875C27.2495 31.875 24.7495 30.8 22.9745 28.825C21.1995 26.85 20.3745 24.275 20.6495 21.525L22.3245 4.825C22.4245 3.875 23.2245 3.125 24.1995 3.125H35.8745C36.8495 3.125 37.6495 3.85 37.7495 4.825L39.4245 21.525C39.6995 24.275 38.8745 26.85 37.0995 28.825C35.2495 30.8 32.7495 31.875 29.9995 31.875ZM25.8745 6.875L24.3745 21.9C24.1995 23.575 24.6995 25.15 25.7495 26.3C27.8745 28.65 32.1245 28.65 34.2495 26.3C35.2995 25.125 35.7995 23.55 35.6245 21.9L34.1245 6.875H25.8745Z" fill="#E29AA8"/>
<path d="M45.774 31.875C40.699 31.875 36.174 27.775 35.649 22.725L33.899 5.2C33.849 4.675 34.024 4.15 34.374 3.75C34.724 3.35 35.224 3.125 35.774 3.125H43.399C50.749 3.125 54.174 6.2 55.199 13.75L55.899 20.7C56.199 23.65 55.299 26.45 53.374 28.575C51.449 30.7 48.749 31.875 45.774 31.875ZM37.849 6.875L39.399 22.35C39.724 25.475 42.624 28.125 45.774 28.125C47.674 28.125 49.374 27.4 50.599 26.075C51.799 24.75 52.349 22.975 52.174 21.075L51.474 14.2C50.699 8.55 48.874 6.875 43.399 6.875H37.849Z" fill="#E29AA8"/>
<path d="M14.0996 31.875C11.1246 31.875 8.42457 30.7 6.49957 28.575C4.57457 26.45 3.67457 23.65 3.97457 20.7L4.64957 13.825C5.69957 6.2 9.12457 3.125 16.4746 3.125H24.0996C24.6246 3.125 25.1246 3.35 25.4996 3.75C25.8746 4.15 26.0246 4.675 25.9746 5.2L24.2246 22.725C23.6996 27.775 19.1746 31.875 14.0996 31.875ZM16.4746 6.875C10.9996 6.875 9.17457 8.525 8.37457 14.25L7.69957 21.075C7.49957 22.975 8.07457 24.75 9.27457 26.075C10.4746 27.4 12.1746 28.125 14.0996 28.125C17.2496 28.125 20.1746 25.475 20.4746 22.35L22.0246 6.875H16.4746Z" fill="#E29AA8"/>
<path d="M36.25 56.875H23.75C22.725 56.875 21.875 56.025 21.875 55V48.75C21.875 43.5 24.75 40.625 30 40.625C35.25 40.625 38.125 43.5 38.125 48.75V55C38.125 56.025 37.275 56.875 36.25 56.875ZM25.625 53.125H34.375V48.75C34.375 45.6 33.15 44.375 30 44.375C26.85 44.375 25.625 45.6 25.625 48.75V53.125Z" fill="#E29AA8"/>
</svg>
