<svg width="28" height="28" viewBox="0 0 28 28" fill="none" xmlns="http://www.w3.org/2000/svg">
<mask id="mask0_1575_79277" style="mask-type:alpha" maskUnits="userSpaceOnUse" x="0" y="0" width="28" height="28">
<rect width="28" height="28" fill="#D9D9D9"/>
</mask>
<g mask="url(#mask0_1575_79277)">
<path d="M13.4395 16.5365L9.76318 12.8602C9.71246 12.8095 9.67253 12.7529 9.64336 12.6903C9.61419 12.6278 9.59961 12.5607 9.59961 12.4893C9.59961 12.3463 9.64795 12.2221 9.74463 12.1167C9.84128 12.0112 9.96869 11.9585 10.1269 11.9585H17.8717C18.0298 11.9585 18.1572 12.0117 18.2539 12.1182C18.3506 12.2247 18.3989 12.3489 18.3989 12.4908C18.3989 12.5263 18.3443 12.6495 18.2351 12.8604L14.559 16.5365C14.4745 16.621 14.3872 16.6827 14.297 16.7216C14.2067 16.7605 14.1075 16.7799 13.9993 16.7799C13.891 16.7799 13.7918 16.7605 13.7016 16.7216C13.6113 16.6827 13.524 16.621 13.4395 16.5365Z" fill="#1D1D1B"/>
</g>
</svg>
