<svg width="20" height="20" viewBox="0 0 20 20" fill="none" xmlns="http://www.w3.org/2000/svg">
<path d="M9.99935 18.9577C5.05768 18.9577 1.04102 14.941 1.04102 9.99935C1.04102 5.05768 5.05768 1.04102 9.99935 1.04102C14.941 1.04102 18.9577 5.05768 18.9577 9.99935C18.9577 14.941 14.941 18.9577 9.99935 18.9577ZM9.99935 2.29102C5.74935 2.29102 2.29102 5.74935 2.29102 9.99935C2.29102 14.2493 5.74935 17.7077 9.99935 17.7077C14.2493 17.7077 17.7077 14.2493 17.7077 9.99935C17.7077 5.74935 14.2493 2.29102 9.99935 2.29102Z" fill="#898485"/>
<path d="M10 11.4577C9.65833 11.4577 9.375 11.1743 9.375 10.8327V6.66602C9.375 6.32435 9.65833 6.04102 10 6.04102C10.3417 6.04102 10.625 6.32435 10.625 6.66602V10.8327C10.625 11.1743 10.3417 11.4577 10 11.4577Z" fill="#898485"/>
<path d="M9.99935 14.1664C9.89102 14.1664 9.78268 14.1414 9.68268 14.0997C9.58268 14.0581 9.49102 13.9997 9.40768 13.9247C9.33268 13.8414 9.27435 13.7581 9.23268 13.6497C9.19102 13.5497 9.16602 13.4414 9.16602 13.3331C9.16602 13.2247 9.19102 13.1164 9.23268 13.0164C9.27435 12.9164 9.33268 12.8247 9.40768 12.7414C9.49102 12.6664 9.58268 12.6081 9.68268 12.5664C9.88268 12.4831 10.116 12.4831 10.316 12.5664C10.416 12.6081 10.5077 12.6664 10.591 12.7414C10.666 12.8247 10.7243 12.9164 10.766 13.0164C10.8077 13.1164 10.8327 13.2247 10.8327 13.3331C10.8327 13.4414 10.8077 13.5497 10.766 13.6497C10.7243 13.7581 10.666 13.8414 10.591 13.9247C10.5077 13.9997 10.416 14.0581 10.316 14.0997C10.216 14.1414 10.1077 14.1664 9.99935 14.1664Z" fill="#898485"/>
</svg>
