<svg width="20" height="20" fill="none" xmlns="http://www.w3.org/2000/svg"><path d="M0 0h20v20H0z"/><path d="M16.75 3.87a1.052 1.052 0 0 1-.01 1.5l-1.59 1.94-5.41 6.6c-.1.11-.22.19-.37.22l-2.8.65a.727.727 0 0 1-.74-.63l.13-2.77c.01-.14.07-.28.16-.38l5.18-6.31 1.83-2.23c.35-.48 1.02-.61 1.52-.29l2.1 1.7Z" stroke="#2B5644" stroke-width="1.25" stroke-linejoin="round"/><path d="M15.29 7.924q-.89.201-1.738-.082-.711-.238-1.343-.799-.51-.455-.928-1.08-.345-.518-.554-1.037-.023-.057-.034-.118-.012-.06-.011-.122 0-.062.013-.122.012-.06.036-.117.024-.057.059-.108.035-.05.079-.094.043-.043.095-.077.051-.034.108-.057.072-.029.148-.039.077-.01.154-.002.076.008.149.035.072.027.136.07l3.845 2.622q.05.035.094.078.043.044.077.096.034.051.057.108.023.058.034.118.012.06.011.122 0 .062-.013.122-.012.06-.036.117-.024.057-.06.108-.066.098-.164.165-.098.066-.214.093Zm-.275-1.22.137.61-.352.516-3.846-2.623.353-.516.579-.234q.162.4.436.813.327.492.718.837.934.832 1.975.596Z" fill="#2B5644"/></svg>