<svg width="87" height="74" fill="none" xmlns="http://www.w3.org/2000/svg"><path d="m173.529 73.336-.543-.66v-.001a42.496 42.496 0 0 0-2.207-2.492 46.282 46.282 0 0 0-14.985-10.47A47.008 47.008 0 0 0 137.84 55.8a47.041 47.041 0 0 0-18.089 3.26 46.389 46.389 0 0 0-15.37 9.917 38.842 38.842 0 0 1-5.05-9.2c11.818-2.975 21.967-10.402 28.25-20.672 6.283-10.27 8.194-22.556 5.319-34.2a32.2 32.2 0 0 0-.474-1.769 19.662 19.662 0 0 0-.458-1.428l-.293-.806a.389.389 0 0 0-.165-.197.402.402 0 0 0-.254-.053l-.861.12c-.552.076-1.098.16-1.639.254a33.56 33.56 0 0 0-1.626.32 46.415 46.415 0 0 0-16.125 6.8 48.414 48.414 0 0 0-3.107 2.261c-6.629 5.248-11.66 12.186-14.538 20.055a44.758 44.758 0 0 0-1.784 24.554 40.727 40.727 0 0 1-9.253-.205c2.285-11.186.213-22.806-5.804-32.564C70.5 12.487 60.974 5.3 49.82 2.106a.39.39 0 0 0-.238-.158l-2.809-.604s-.996-.208-1.244-.253l-.973-.464a.394.394 0 0 0-.537.217l-.401 1.134-.423 1.478c-.165.563-.31 1.126-.456 1.706a41.108 41.108 0 0 0-.546 2.632c-.043.235-.085.467-.115.67-.056.34-.11.69-.15 1.001a34.527 34.527 0 0 0-.191 1.55c-.055.51-.099 1.034-.135 1.569-.021.316-.043.628-.05.89a11.19 11.19 0 0 0-.027.588l-.011.306c-.01.43-.018.871-.018 1.301 0 .652.009 1.295.044 1.972.02.561.056 1.135.11 1.692l.021.327c.057.522.111 1.034.172 1.503.006.09.018.177.03.267l.017.117c.054.465.132.931.2 1.296.026.239.065.476.117.71.006.05.016.1.028.149.056.339.128.678.205 1.036.047.232.094.462.144.662l.065.282c.102.446.206.89.317 1.275.148.596.315 1.172.485 1.68.037.165.086.328.145.487.137.432.273.866.417 1.242.16.482.34.947.525 1.42l.385.962a57.02 57.02 0 0 0 1.21 2.66c.107.205.205.4.316.627.18.352.358.692.558 1.049.156.283.312.57.454.8a42.536 42.536 0 0 0 1.743 2.807l.294.427c.366.533.743 1.054 1.117 1.548a38.62 38.62 0 0 0 1.186 1.516c.406.496.815.97 1.24 1.45.42.48.862.949 1.292 1.39.419.444.848.868 1.263 1.253.06.071.127.136.2.194.438.42.878.82 1.326 1.209.476.423.972.834 1.478 1.247.391.315.803.633 1.153.89.217.182.449.343.678.502.486.368.965.702 1.367.952.399.279.794.535 1.146.75.236.16.473.31.62.386.262.171.526.332.714.43.348.215.707.409.968.545.205.129.417.246.635.352.38.207.769.404 1.149.596.541.277 1.102.542 1.616.763.316.15.645.288.914.394.354.157.712.305.974.401.158.072.312.128.417.164.485.193.984.369 1.446.532.109.047.221.085.336.112.502.177 1.008.337 1.603.52.12.038.243.073.365.108a39.71 39.71 0 0 1-5.216 9.652 6.839 6.839 0 0 0-.132-.124l-.228-.226a45.312 45.312 0 0 0-4.667-3.898l-.93-.656a20.842 20.842 0 0 0-1.22-.804 12.46 12.46 0 0 0-.74-.474 42.674 42.674 0 0 0-4.093-2.254c-.35-.177-.712-.343-1.155-.545a9.881 9.881 0 0 0-.674-.298l-.14-.06c-.436-.191-.87-.378-1.244-.514-.374-.157-.75-.302-1.106-.429a21.65 21.65 0 0 0-1.073-.375 19.035 19.035 0 0 0-1.027-.345l-.566-.173c-.246-.074-.49-.148-.688-.198-.337-.1-.687-.198-1.007-.279l-.697-.175a17.226 17.226 0 0 0-.424-.099 44.627 44.627 0 0 0-3.822-.743l-.997-.133a21.78 21.78 0 0 0-.921-.104c-.24-.033-.485-.056-.734-.077l-.721-.059a32.27 32.27 0 0 0-1.063-.068l-.533-.029a39.424 39.424 0 0 0-3.958-.002c-.163 0-.329.011-.564.028l-.153.01c-.312.017-.624.035-.909.058a5.794 5.794 0 0 0-.51.045c-.32.02-.643.053-.936.087-.326.033-.641.067-.956.108l-1.043.142c-1.16.17-2.355.4-3.657.702a36.506 36.506 0 0 0-1.874.479l-.379.106a43.255 43.255 0 0 0-2.225.697 22.03 22.03 0 0 0-1.115.391c-.885.323-1.727.662-2.554 1.03-.252.108-.502.214-.685.307-.68.302-1.357.628-2.004.967a26.91 26.91 0 0 0-.824.427c-.9.49-1.67.938-2.345 1.365-.253.154-.506.311-.668.43-.443.268-.873.555-1.32.865l-.955.678c-.117.09-.235.178-.364.267l-.234.176c-.197.153-.39.303-.548.434-.4.302-.8.616-1.123.9-.217.166-.428.35-.639.533l-.189.163a61.33 61.33 0 0 0-1.541 1.407l-.216.21c-.175.17-.351.34-.5.492a33.75 33.75 0 0 0-.86.88l-1.578 1.75c-.622.69-1.474 1.635-.6 2.502l.134.167c.096.119.193.24.305.367l1.067 1.186c.017.04.041.078.071.11l1.378 1.497c.044.045.1.077.162.09 8.718 8.584 20.547 13.423 32.893 13.458h.29c9.612-.085 18.962-3.077 26.78-8.568 7.76-5.524 13.617-13.245 16.784-22.13 4.143.625 8.354.702 12.518.228a45.136 45.136 0 0 0 6.917 12.57c5.654 7.232 13.368 12.651 22.164 15.57a47.147 47.147 0 0 0 26.032.936c8.59-2.139 16.375-6.652 22.432-13.004a48.245 48.245 0 0 0 2.201-2.472l.543-.66a.374.374 0 0 0 0-.478Zm-32.758.07a.394.394 0 0 0 .471-.219.376.376 0 0 0-.176-.482 39.964 39.964 0 0 0-27.124-3.761c7.778-5.36 17.24-7.837 26.703-6.989 9.462.848 18.312 4.965 24.974 11.618-6.939 6.924-16.236 11.089-26.109 11.696-9.873.606-19.626-2.387-27.39-8.407a37.965 37.965 0 0 1 13.973-4.545 38.151 38.151 0 0 1 14.678 1.089Zm-12.676-57.737c0 17.968-12.799 34.03-30.492 38.341a39.22 39.22 0 0 1-.867-8.188c-.013-10.276 4.071-20.15 11.378-27.505a38.97 38.97 0 0 1 2.318-2.163 40.29 40.29 0 0 1 6.078-4.332 40.393 40.393 0 0 1 10.721-4.34c.575 2.692.865 5.436.864 8.187ZM77.119 45.822c0 2.59-.257 5.175-.771 7.717a64.103 64.103 0 0 1-2.02-.647l-.263-.096a35.998 35.998 0 0 1-1.438-.555c-.449-.18-.899-.37-1.407-.6a7.043 7.043 0 0 1-.74-.347c-.263-.115-.527-.24-.936-.445a2.153 2.153 0 0 1-.214-.114l-.14-.075a15.244 15.244 0 0 1-1.178-.631c-.47-.255-.942-.531-1.41-.83l-.274-.17a.289.289 0 0 0-.043-.022c-.373-.237-.74-.48-1.117-.733l-.126-.081a59.85 59.85 0 0 1-1.156-.819l-.245-.191a15.137 15.137 0 0 1-1.042-.803 9.771 9.771 0 0 1-.479-.38 18.01 18.01 0 0 1-.63-.529 20.21 20.21 0 0 1-.796-.704c-.112-.091-.217-.193-.352-.323l-.087-.085c-.173-.154-.35-.318-.561-.533a17.05 17.05 0 0 1-.676-.666l-.685-.717c-.175-.189-.357-.384-.569-.617a4.098 4.098 0 0 1-.232-.265c-.283-.32-.556-.636-.88-1.034a6.377 6.377 0 0 1-.267-.321c-.2-.231-.386-.473-.632-.807a7.843 7.843 0 0 1-.403-.534 19.12 19.12 0 0 1-.605-.834c-.086-.112-.162-.224-.27-.38l-.088-.131c-.186-.277-.376-.555-.557-.859l-.091-.133a1.288 1.288 0 0 1-.13-.208l-.075-.124c-.151-.225-.285-.455-.447-.73l-.123-.21c-.1-.152-.193-.31-.277-.472a34.47 34.47 0 0 1-.702-1.308 29.286 29.286 0 0 1-.653-1.309 3.797 3.797 0 0 1-.135-.288 24.292 24.292 0 0 1-.58-1.321l-.085-.205a.343.343 0 0 0-.025-.048 33.84 33.84 0 0 1-.474-1.219c-.027-.056-.047-.12-.102-.276a13.454 13.454 0 0 1-.357-1.05 25.937 25.937 0 0 1-.645-2.124c-.142-.497-.263-1-.377-1.535-.09-.384-.177-.77-.26-1.289a10.83 10.83 0 0 1-.175-.944c-.07-.397-.129-.801-.182-1.22a38.004 38.004 0 0 1-.33-4.979c0-.31.009-.63.017-.97l.005-.21c.01-.354.02-.701.05-1.07l.004-.14c.007-.224.025-.44.047-.71l.054-.638c.017-.194.041-.389.067-.595l.017-.128c.074-.71.181-1.46.327-2.294.054-.31.11-.621.183-.97 8.292 2.457 15.56 7.463 20.735 14.283 5.175 6.82 7.982 15.09 8.008 23.595Zm-19.477 21.64c.175.101.34.204.516.312l.205.126a.335.335 0 0 0 .056.03.405.405 0 0 0 .06.045c.464.285.933.59 1.415.92a39.976 39.976 0 0 0-26.905 3.81.366.366 0 0 0-.165.474.393.393 0 0 0 .195.2c.088.04.188.048.281.021a38.154 38.154 0 0 1 14.61-1.088 37.968 37.968 0 0 1 13.918 4.493c-7.768 6.047-17.538 9.062-27.431 8.465-9.894-.597-19.215-4.763-26.17-11.698.17-.172.345-.34.527-.512a38.937 38.937 0 0 1 2.484-2.208c.47-.38.949-.76 1.455-1.124.866-.64 1.732-1.23 2.592-1.763.2-.135.41-.258.677-.417l.175-.105c.29-.174.576-.341.894-.514.182-.105.36-.2.594-.322.108-.06.21-.114.378-.202l.247-.125c.29-.147.583-.292.904-.448.303-.154.608-.297.92-.433l.4-.175c.192-.086.382-.172.608-.262.326-.139.653-.27 1.002-.405.326-.13.652-.249.993-.372a35.882 35.882 0 0 1 2.07-.677c.208-.067.422-.129.637-.188l.429-.123c.32-.082.642-.165.967-.24l.914-.218a24.51 24.51 0 0 1 1.186-.238l1.019-.183a42.157 42.157 0 0 1 4.404-.468c.19-.014.38-.021.6-.03l.189-.008c.895-.02 1.822-.02 2.672-.003l.138.007c.244.009.494.019.756.036a39.312 39.312 0 0 1 3.24.303l1.067.15c.361.06.71.121 1.104.199.183.032.368.07.642.125l.398.082c.695.152 1.392.311 2.084.505.66.181 1.33.385 1.984.599l1.083.37c.667.243 1.336.494 2.01.783a38.196 38.196 0 0 1 3.864 1.861c.304.169.606.338.907.513l.246-.3-.133.367c.001.002.086.052.087.053Z" fill="#fff" fill-opacity=".08"/></svg>