<svg width="236" height="199" fill="none" xmlns="http://www.w3.org/2000/svg"><path d="m474.763 199.589-1.489-1.813v-.002c-2.125-2.578-4.108-4.814-6.054-6.835-11.61-12.179-25.591-21.947-41.113-28.726a128.993 128.993 0 0 0-49.259-10.739 129.07 129.07 0 0 0-49.63 8.942c-15.767 6.21-30.106 15.463-42.167 27.211a106.526 106.526 0 0 1-13.856-25.241c32.424-8.164 60.269-28.54 77.507-56.716 17.237-28.176 22.48-61.885 14.592-93.829a88.644 88.644 0 0 0-1.301-4.855 53.829 53.829 0 0 0-1.256-3.918l-.803-2.213a1.066 1.066 0 0 0-.454-.539 1.101 1.101 0 0 0-.698-.145l-2.361.327c-1.514.21-3.012.443-4.496.698a92.34 92.34 0 0 0-4.462.878 127.366 127.366 0 0 0-44.24 18.655 133.03 133.03 0 0 0-8.525 6.206c-18.187 14.397-31.987 33.433-39.886 55.022a122.795 122.795 0 0 0-4.895 67.366 111.7 111.7 0 0 1-25.387-.563c6.269-30.688.587-62.57-15.924-89.343-16.51-26.773-42.648-46.49-73.247-55.254a1.07 1.07 0 0 0-.653-.433L127 2.072s-2.732-.572-3.414-.694L120.917.106a1.082 1.082 0 0 0-1.24.22 1.038 1.038 0 0 0-.232.374l-1.102 3.111-1.16 4.055c-.454 1.544-.849 3.09-1.252 4.682-.532 2.18-1.019 4.51-1.497 7.219-.117.645-.233 1.282-.316 1.838a76.4 76.4 0 0 0-.412 2.748c-.216 1.41-.37 2.817-.524 4.25-.149 1.399-.27 2.838-.37 4.306-.058.868-.116 1.723-.137 2.44a30.776 30.776 0 0 0-.075 1.615l-.029.841a146.46 146.46 0 0 0-.05 3.569c0 1.788.025 3.553.121 5.41.054 1.54.153 3.114.303 4.641l.058.899c.154 1.43.304 2.837.47 4.124.017.245.05.484.083.733l.046.318c.15 1.278.362 2.556.549 3.557.071.655.177 1.306.32 1.95.018.136.045.272.079.406.154.93.35 1.862.562 2.844.129.635.258 1.268.395 1.815l.179.774c.278 1.223.565 2.442.869 3.5a62.17 62.17 0 0 0 1.33 4.605c.102.455.235.903.399 1.34.375 1.184.749 2.374 1.144 3.407a80.56 80.56 0 0 0 1.439 3.894l1.056 2.641a156.836 156.836 0 0 0 3.318 7.3c.296.559.566 1.096.869 1.719.495.963.982 1.896 1.531 2.876.428.778.856 1.562 1.247 2.197a116.92 116.92 0 0 0 4.105 6.697c.224.339.449.671.677 1.004l.807 1.17a109.543 109.543 0 0 0 3.065 4.247 103.65 103.65 0 0 0 3.252 4.159 137.073 137.073 0 0 0 3.401 3.977 94.06 94.06 0 0 0 3.547 3.814 73.624 73.624 0 0 0 3.464 3.44c.166.194.35.372.549.533a98.965 98.965 0 0 0 3.639 3.315 128.022 128.022 0 0 0 4.054 3.422 94.918 94.918 0 0 0 3.164 2.442c.595.498 1.231.941 1.859 1.376a53.026 53.026 0 0 0 3.751 2.614 64.156 64.156 0 0 0 3.144 2.058c.648.436 1.297.847 1.701 1.057.719.47 1.442.913 1.958 1.178a43.327 43.327 0 0 0 2.657 1.497c.562.354 1.144.677 1.743.967 1.039.566 2.108 1.107 3.152 1.634a75.95 75.95 0 0 0 4.432 2.093c.87.412 1.772.79 2.508 1.082.973.43 1.954.837 2.674 1.1.432.196.856.351 1.143.449 1.331.531 2.699 1.013 3.967 1.46.298.13.607.233.924.308 1.376.486 2.765.923 4.395 1.427.333.103.669.198 1.002.294a108.924 108.924 0 0 1-14.309 26.483c-.12-.116-.241-.231-.362-.341l-.627-.621a124.525 124.525 0 0 0-12.804-10.692l-2.549-1.801c-1.189-.833-2.37-1.623-3.352-2.207-.69-.484-1.38-.908-2.029-1.298a117.01 117.01 0 0 0-11.228-6.184c-.96-.486-1.954-.942-3.168-1.497-.674-.318-1.331-.621-1.851-.817l-.382-.167c-1.198-.523-2.387-1.035-3.414-1.407a59.612 59.612 0 0 0-3.036-1.178c-1.069-.4-2.1-.765-2.944-1.029a55.344 55.344 0 0 0-2.815-.947l-1.555-.474a45.076 45.076 0 0 0-1.888-.543 70.522 70.522 0 0 0-2.761-.765l-1.913-.48c-.42-.102-.84-.202-1.165-.272-3.243-.788-6.665-1.456-10.483-2.039l-2.736-.366a60.383 60.383 0 0 0-2.528-.284 38.543 38.543 0 0 0-2.013-.212l-1.979-.161a88.587 88.587 0 0 0-2.915-.186l-1.464-.08c-3.617-.183-7.24-.185-10.858-.006-.449 0-.902.031-1.546.078l-.42.024a104.7 104.7 0 0 0-2.495.162c-.57.034-1.11.071-1.402.122-.877.057-1.763.147-2.566.241-.894.09-1.758.182-2.623.296l-2.861.388c-3.181.468-6.462 1.098-10.034 1.925a101.03 101.03 0 0 0-3.007.737c-.72.182-1.426.38-2.133.578l-1.04.292a129.69 129.69 0 0 0-3.098.923c-1.027.324-2.05.659-3.006.99a60.135 60.135 0 0 0-3.06 1.072 108.716 108.716 0 0 0-7.008 2.828c-.69.294-1.376.586-1.88.841a95.691 95.691 0 0 0-5.496 2.652c-.703.343-1.406.717-2.263 1.172-2.465 1.343-4.578 2.572-6.432 3.744-.695.423-1.39.854-1.834 1.18a68.12 68.12 0 0 0-3.618 2.373l-2.624 1.86c-.32.247-.645.49-.998.733l-.64.484a67.25 67.25 0 0 0-1.506 1.19c-1.098.829-2.195 1.69-3.081 2.468-.595.458-1.173.96-1.75 1.464l-.52.447a168.797 168.797 0 0 0-4.23 3.859l-.59.578a60.15 60.15 0 0 0-1.372 1.349 94.082 94.082 0 0 0-2.362 2.414s-4.096 4.549-4.33 4.8c-1.704 1.892-4.041 4.487-1.646 6.866l.37.457c.262.327.528.662.836 1.007l2.928 3.256c.047.111.113.213.195.302l3.78 4.106a.88.88 0 0 0 .445.247c23.92 23.551 56.372 36.828 90.244 36.922h.799c26.368-.233 52.023-8.441 73.469-23.506 21.294-15.156 37.362-36.34 46.05-60.715a131.033 131.033 0 0 0 34.344.625 123.834 123.834 0 0 0 18.978 34.488c15.511 19.84 36.676 34.708 60.808 42.715a129.353 129.353 0 0 0 71.422 2.57c23.567-5.868 44.927-18.25 61.545-35.677a133.282 133.282 0 0 0 6.038-6.785l1.489-1.807a1.03 1.03 0 0 0 0-1.313Zm-89.874.19c.252.076.525.056.764-.054.239-.111.427-.305.529-.545a1.03 1.03 0 0 0 .018-.753 1.047 1.047 0 0 0-.501-.569c-22.744-12.086-49.153-15.749-74.417-10.321 21.339-14.705 47.299-21.499 73.26-19.173 25.962 2.326 50.241 13.621 68.519 31.875-19.036 18.996-44.544 30.423-71.631 32.088-27.087 1.665-53.847-6.549-75.147-23.066a104.166 104.166 0 0 1 38.336-12.469 104.684 104.684 0 0 1 40.27 2.987ZM350.112 41.374c0 49.296-35.117 93.362-83.657 105.193a107.555 107.555 0 0 1-2.379-22.467c-.038-28.193 11.168-55.28 31.217-75.462a106.783 106.783 0 0 1 6.358-5.933 110.493 110.493 0 0 1 16.675-11.884 110.805 110.805 0 0 1 29.416-11.91 107.514 107.514 0 0 1 2.37 22.463ZM210.255 124.1c.001 7.109-.708 14.2-2.117 21.173a170.13 170.13 0 0 1-5.543-1.777l-.719-.261a99.198 99.198 0 0 1-3.947-1.523 91.302 91.302 0 0 1-3.859-1.648 19.11 19.11 0 0 1-2.029-.951 49.514 49.514 0 0 1-2.57-1.221 5.867 5.867 0 0 1-.586-.312l-.387-.207c-1.064-.498-2.1-1.076-3.231-1.731a63.619 63.619 0 0 1-3.867-2.274l-.753-.466a.868.868 0 0 0-.116-.063 134.778 134.778 0 0 1-3.065-2.011l-.345-.223a162.702 162.702 0 0 1-3.173-2.246l-.674-.524a42.116 42.116 0 0 1-2.856-2.203c-.433-.317-.84-.647-1.314-1.041a54.204 54.204 0 0 1-1.73-1.452c-.674-.555-1.314-1.137-2.183-1.934-.308-.249-.595-.528-.965-.886l-.241-.232a29.384 29.384 0 0 1-1.539-1.462 47.02 47.02 0 0 1-1.855-1.828l-1.879-1.968c-.478-.516-.977-1.051-1.56-1.692a11.38 11.38 0 0 1-.636-.727 85.405 85.405 0 0 1-2.416-2.836 17.585 17.585 0 0 1-.732-.882c-.549-.633-1.06-1.296-1.734-2.213a22.217 22.217 0 0 1-1.106-1.466 53.339 53.339 0 0 1-1.659-2.287c-.237-.308-.445-.614-.74-1.045l-.241-.357c-.512-.76-1.032-1.523-1.531-2.356l-.249-.366a3.575 3.575 0 0 1-.358-.57l-.203-.34c-.416-.62-.782-1.248-1.227-2.005l-.337-.574a13.974 13.974 0 0 1-.761-1.297 92.84 92.84 0 0 1-1.925-3.587 79.926 79.926 0 0 1-1.793-3.591c-.112-.206-.203-.417-.37-.79a67.03 67.03 0 0 1-1.592-3.626l-.233-.562a.93.93 0 0 0-.067-.13 93.724 93.724 0 0 1-1.301-3.345c-.075-.155-.129-.328-.279-.76a36.504 36.504 0 0 1-.981-2.878c-.582-1.625-1.127-3.418-1.768-5.829a61.746 61.746 0 0 1-1.035-4.212 48.24 48.24 0 0 1-.715-3.534c-.204-.827-.333-1.652-.478-2.59a69.493 69.493 0 0 1-.499-3.347c-.602-4.53-.904-9.093-.907-13.661 0-.853.025-1.73.046-2.66l.016-.578c.025-.972.055-1.923.138-2.936l.008-.382c.021-.616.071-1.21.129-1.952l.15-1.747c.045-.533.112-1.068.183-1.634l.045-.35a91.68 91.68 0 0 1 .899-6.293c.149-.852.303-1.705.503-2.663 22.748 6.74 42.69 20.477 56.887 39.187 14.198 18.71 21.9 41.402 21.972 64.734Zm-53.439 59.372c.482.278.935.56 1.418.856l.561.347c.049.031.1.058.154.079.051.048.107.09.166.127a87.706 87.706 0 0 1 3.88 2.524c-25.088-5.239-51.256-1.534-73.815 10.453a1.029 1.029 0 0 0-.482.564c-.084.241-.074.503.029.736.104.241.295.435.536.547.24.112.514.133.77.06a104.679 104.679 0 0 1 40.081-2.986 104.136 104.136 0 0 1 38.187 12.327c-21.311 16.59-48.115 24.861-75.26 23.224-27.145-1.637-52.716-13.067-71.8-32.093.47-.472.948-.936 1.447-1.405a106.945 106.945 0 0 1 6.816-6.058c1.289-1.041 2.603-2.086 3.992-3.085a103.655 103.655 0 0 1 7.11-4.836c.55-.372 1.123-.709 1.86-1.144l.477-.288c.795-.477 1.58-.937 2.454-1.41.499-.288.986-.548 1.63-.884.295-.166.578-.313 1.035-.554l.678-.343a156.85 156.85 0 0 1 2.483-1.229 46.429 46.429 0 0 1 2.524-1.188l1.098-.48a38.237 38.237 0 0 1 1.667-.719 89.585 89.585 0 0 1 2.749-1.112 92.408 92.408 0 0 1 2.724-1.021 98.412 98.412 0 0 1 5.68-1.856c.57-.186 1.156-.353 1.746-.517l1.177-.338c.878-.225 1.763-.452 2.653-.66l2.508-.594a66.967 66.967 0 0 1 3.256-.653l2.794-.503a115.753 115.753 0 0 1 12.084-1.284c.52-.039 1.044-.059 1.643-.084l.52-.022c2.457-.055 4.998-.053 7.331-.006l.378.018c.67.025 1.356.051 2.075.098 1.98.113 3.98.249 5.955.472a78.54 78.54 0 0 1 2.936.359l2.927.413c.99.165 1.946.332 3.028.545.503.088 1.01.192 1.763.345l1.089.224c1.909.417 3.822.854 5.718 1.385 1.813.498 3.651 1.055 5.443 1.643l2.973 1.015c1.83.668 3.664 1.356 5.514 2.15a104.632 104.632 0 0 1 10.6 5.106c.836.461 1.663.925 2.491 1.407l.673-.823-.365 1.006c.004.004.236.143.241.145Z" fill="#fff" fill-opacity=".08"/></svg>