<svg width="344" height="201" fill="none" xmlns="http://www.w3.org/2000/svg"><path d="m.808 104.646 1.832.691v.002a98.598 98.598 0 0 0 7.227 2.421 105.87 105.87 0 0 0 41.681 3.643 107.35 107.35 0 0 0 40.05-12.764 107.415 107.415 0 0 0 32.097-27.156 106.046 106.046 0 0 0 19.08-37.263 89.027 89.027 0 0 1 20.546 12.485c-20 19.421-31.594 45.769-32.271 73.337-.677 27.569 9.618 54.14 28.654 73.961a73.572 73.572 0 0 0 2.968 2.97c.825.806 1.66 1.572 2.543 2.311l1.504 1.267c.155.127.35.197.553.2a.912.912 0 0 0 .564-.186l1.569-1.221a117.924 117.924 0 0 0 2.954-2.379 76.029 76.029 0 0 0 2.854-2.495 106.063 106.063 0 0 0 24.15-31.936 111.54 111.54 0 0 0 3.563-8.044c7.118-17.996 9.13-37.52 5.816-56.43a102.757 102.757 0 0 0-24.603-50.775 92.997 92.997 0 0 1 18.565-10.175c8.291 24.814 25.709 45.509 48.812 57.995 23.103 12.486 50.21 15.855 75.963 9.44a.886.886 0 0 0 .652.041l6.256-2.012s2.211-.726 2.755-.921l2.458-.193a.914.914 0 0 0 .357-.104.912.912 0 0 0 .446-.572.875.875 0 0 0 .012-.367l-.504-2.71-.856-3.418a106.57 106.57 0 0 0-1.052-3.908 94.262 94.262 0 0 0-1.934-5.847c-.186-.515-.368-1.024-.539-1.46a66.026 66.026 0 0 0-.851-2.16 79.752 79.752 0 0 0-1.397-3.294 93.626 93.626 0 0 0-1.531-3.27c-.321-.651-.636-1.294-.92-1.822-.197-.41-.409-.811-.621-1.199l-.33-.62a122.29 122.29 0 0 0-1.455-2.603 86.007 86.007 0 0 0-2.347-3.864 62.677 62.677 0 0 0-2.157-3.23l-.417-.626c-.709-.972-1.405-1.927-2.062-2.788-.114-.17-.238-.33-.366-.496l-.166-.211a45.455 45.455 0 0 0-1.882-2.344 14.884 14.884 0 0 0-1.046-1.277 2.749 2.749 0 0 0-.226-.261 49.01 49.01 0 0 0-1.594-1.824c-.358-.405-.715-.81-1.043-1.148l-.452-.485a56.453 56.453 0 0 0-2.089-2.17 51.781 51.781 0 0 0-2.885-2.777 8.345 8.345 0 0 0-.847-.802c-.765-.701-1.532-1.406-2.249-1.989a67.757 67.757 0 0 0-2.665-2.217l-1.866-1.47a130.27 130.27 0 0 0-5.445-3.898 49.81 49.81 0 0 1-1.345-.881 74.306 74.306 0 0 0-2.306-1.443c-.635-.385-1.271-.773-1.819-1.07a97.653 97.653 0 0 0-5.76-3.133 61.244 61.244 0 0 0-.909-.444l-1.071-.51a91.386 91.386 0 0 0-3.986-1.795 87.49 87.49 0 0 0-4.085-1.653 114.43 114.43 0 0 0-4.117-1.46 78.58 78.58 0 0 0-4.154-1.28 61.178 61.178 0 0 0-3.938-1.045 3.432 3.432 0 0 0-.619-.157 82.349 82.349 0 0 0-4.012-.881 108.054 108.054 0 0 0-4.356-.786 79.46 79.46 0 0 0-3.305-.447c-.637-.113-1.281-.168-1.916-.221a44.01 44.01 0 0 0-3.8-.327 52.535 52.535 0 0 0-3.129-.179c-.651-.045-1.291-.072-1.67-.056a20.468 20.468 0 0 0-1.906-.035 35.632 35.632 0 0 0-2.544.025 15.115 15.115 0 0 0-1.662.026c-.987.024-1.984.078-2.958.132-1.389.07-2.803.185-4.074.334-.8.064-1.609.167-2.263.262-.882.094-1.76.21-2.39.319a10.88 10.88 0 0 0-1.013.151c-1.182.171-2.371.393-3.474.598-.269.03-.535.085-.795.162a97.395 97.395 0 0 0-3.77.8c-.282.064-.566.135-.846.205a91.043 91.043 0 0 1-.73-25.123c.136.034.27.066.404.096l.712.187a103.708 103.708 0 0 0 13.71 2.398l2.593.24c1.206.107 2.389.186 3.341.2.701.062 1.376.081 2.008.093 3.561.127 7.13.058 10.689-.206a74.734 74.734 0 0 0 2.913-.238 22.63 22.63 0 0 0 1.677-.18l.346-.04c1.083-.12 2.156-.245 3.052-.405a48.921 48.921 0 0 0 2.684-.413 48.69 48.69 0 0 0 2.555-.483c.815-.135 1.62-.308 2.429-.488l1.32-.305c.572-.134 1.14-.266 1.59-.394a58.625 58.625 0 0 0 2.314-.598l1.581-.45a37.7 37.7 0 0 0 .954-.289c2.671-.782 5.421-1.725 8.421-2.894l2.128-.876c.597-.24 1.198-.51 1.944-.849a32.585 32.585 0 0 0 1.542-.685l1.496-.708a74.034 74.034 0 0 0 2.182-1.081l1.09-.553a89.947 89.947 0 0 0 7.842-4.521c.324-.187.639-.398 1.084-.701l.293-.193a90.516 90.516 0 0 0 1.734-1.157c.397-.262.772-.514.961-.672.61-.408 1.212-.842 1.752-1.244a70.492 70.492 0 0 0 1.771-1.308l1.903-1.473a103.618 103.618 0 0 0 6.44-5.576 80.215 80.215 0 0 0 1.863-1.786c.444-.431.871-.87 1.299-1.307l.629-.645a107.76 107.76 0 0 0 1.851-1.959 98.15 98.15 0 0 0 1.757-1.97 49.809 49.809 0 0 0 1.762-2.05 90.872 90.872 0 0 0 3.878-4.967c.376-.5.749-.998 1.006-1.392a80.09 80.09 0 0 0 2.861-4.21c.364-.541.715-1.105 1.144-1.79 1.219-2 2.231-3.77 3.08-5.391.325-.596.647-1.197.831-1.618.57-1.038 1.094-2.1 1.622-3.225l1.117-2.44c.128-.311.261-.622.415-.945l.26-.617c.215-.528.424-1.047.589-1.489.447-1.057.88-2.138 1.194-3.07.238-.579.446-1.183.653-1.789l.188-.54c.501-1.483.966-2.972 1.442-4.554l.185-.664a48.34 48.34 0 0 0 .427-1.549 76.55 76.55 0 0 0 .697-2.73s1.058-4.998 1.121-5.277c.44-2.08 1.044-4.931-1.679-5.654l-.458-.176c-.326-.127-.658-.258-1.024-.38l-3.474-1.135a.897.897 0 0 0-.267-.138l-4.444-1.394a.74.74 0 0 0-.425.007c-27.106-7.067-56.082-3.144-80.576 10.907l-.577.333c-18.94 11.16-34.034 27.791-43.227 47.63-9.043 19.84-11.796 41.863-7.888 63.118a109.003 109.003 0 0 0-25.057 13.864 103.495 103.495 0 0 0-28.107-17.038c-19.486-7.888-40.976-9.821-61.744-5.555A107.635 107.635 0 0 0 31.64 42.88C17.075 56.95 6.825 74.81 2.105 94.344a111.324 111.324 0 0 0-1.525 7.425l-.32 1.927a.862.862 0 0 0 .548.95Zm64.809-37.6a.9.9 0 0 0-.529.358.879.879 0 0 0-.154.614.86.86 0 0 0 .3.552c.167.14.38.212.6.203 21.47-.737 42.067-9.096 58.04-23.554-9.265 19.533-25.17 35.27-44.886 44.409-19.715 9.14-41.962 11.089-62.782 5.502 5.809-21.677 19.453-40.576 38.314-53.072C73.381 29.562 96.132 24.35 118.41 27.42a86.701 86.701 0 0 1-22.47 25 87.092 87.092 0 0 1-30.322 14.626Zm91.269 100.098c-20.589-35.662-13.64-82.179 16.464-110.972a89.978 89.978 0 0 1 11.101 15.262c11.803 20.38 15.027 44.647 8.981 67.604a89.469 89.469 0 0 1-2.113 6.942 92.12 92.12 0 0 1-7.075 15.549 92.305 92.305 0 0 1-16.264 20.877 90.038 90.038 0 0 1-11.094-15.262ZM223.31 48.999a89.358 89.358 0 0 1-7.315-16.2c.366-.086.738-.17 1.113-.256 1.234-.283 2.47-.533 3.631-.769l.629-.11a82.85 82.85 0 0 1 3.485-.544 76.322 76.322 0 0 1 3.474-.416 15.94 15.94 0 0 1 1.863-.158 41.234 41.234 0 0 1 2.365-.188c.185-.017.369-.023.554-.018l.365-.012c.977-.084 1.966-.097 3.056-.095a52.765 52.765 0 0 1 3.742.034l.738.023a.675.675 0 0 0 .111-.003c1.009.043 2.018.105 3.052.177l.343.017c1.096.09 2.172.19 3.228.302l.706.1c.952.082 1.871.21 2.982.402.445.049.877.118 1.384.206.591.094 1.167.19 1.855.329.719.12 1.424.275 2.384.488.326.052.65.135 1.067.24l.271.067c.518.107 1.058.23 1.722.416a39.59 39.59 0 0 1 2.102.55l2.179.64c.561.174 1.145.353 1.833.574.209.058.416.132.763.26.927.31 1.83.626 2.928 1.045.249.083.485.167.897.333.661.229 1.307.496 2.176.878.442.161.844.338 1.411.6.671.274 1.333.575 2.153.962.3.125.578.26.971.448l.324.158c.686.336 1.38.672 2.089 1.066l.332.16c.174.073.34.16.497.264l.289.162c.559.274 1.085.576 1.723.939l.483.274c.375.188.739.395 1.091.62.948.568 1.895 1.14 2.888 1.794a66.52 66.52 0 0 1 2.794 1.85c.167.103.321.217.597.418a55.28 55.28 0 0 1 2.665 1.96l.402.308a.838.838 0 0 0 .103.067c.714.55 1.442 1.133 2.336 1.877.119.08.231.184.519.433.607.49 1.211 1.01 1.911 1.673 1.099.934 2.241 2.003 3.71 3.48a51.07 51.07 0 0 1 2.507 2.616 40.371 40.371 0 0 1 1.993 2.259c.492.513.93 1.056 1.427 1.675a59.67 59.67 0 0 1 1.758 2.212 87.295 87.295 0 0 1 6.36 9.505c.357.618.704 1.262 1.078 1.944l.23.425a43.97 43.97 0 0 1 1.127 2.18l.153.28c.243.455.455.906.722 1.466l.622 1.327c.19.405.365.82.55 1.258l.114.273a77.14 77.14 0 0 1 1.98 4.927c.247.678.493 1.36.748 2.135-19.239 4.607-39.374 2.982-57.439-4.635C248.146 79.054 233.107 65.848 223.31 49Zm13.785-65.227c-.465 0-.909-.015-1.381-.028l-.551-.017a.755.755 0 0 0-.144.007.93.93 0 0 0-.173-.023 73.876 73.876 0 0 1-3.855-.208c20.302-6.668 37.647-20.257 48.927-38.331a.855.855 0 0 0 .113-.61.843.843 0 0 0-.328-.52.9.9 0 0 0-.615-.172.917.917 0 0 0-.581.277 87.117 87.117 0 0 1-27.692 18.869 86.721 86.721 0 0 1-32.719 7c8.458-20.886 24.355-38.042 44.637-48.173 20.282-10.13 43.518-12.521 65.243-6.712a49.051 49.051 0 0 1-.458 1.62 89.086 89.086 0 0 1-2.39 7.223c-.496 1.29-1.008 2.594-1.594 3.895a86.48 86.48 0 0 1-3.114 6.463c-.241.498-.514.981-.864 1.602l-.225.408c-.374.677-.75 1.337-1.182 2.043-.24.417-.483.807-.808 1.32-.144.242-.287.466-.517.831l-.346.53c-.407.626-.82 1.249-1.279 1.925a37.669 37.669 0 0 1-1.326 1.912l-.592.804c-.279.39-.56.778-.904 1.215a74.81 74.81 0 0 1-1.519 1.951 80.91 80.91 0 0 1-1.541 1.874 81.221 81.221 0 0 1-3.326 3.71c-.333.372-.687.738-1.045 1.102l-.708.736c-.54.528-1.084 1.061-1.64 1.583l-1.562 1.475a55.974 55.974 0 0 1-2.078 1.83l-1.808 1.528a96.2 96.2 0 0 1-8.188 5.966c-.359.245-.729.478-1.151.745l-.366.233a146.566 146.566 0 0 1-5.29 3.06l-.281.145c-.494.261-1 .528-1.539.794-1.476.744-2.978 1.479-4.497 2.141-.756.334-1.488.653-2.269.964l-2.286.922a86.62 86.62 0 0 1-2.414.867c-.4.147-.809.283-1.417.486l-.88.291c-1.552.495-3.116.976-4.706 1.382a97.342 97.342 0 0 1-4.617 1.08l-2.57.506c-1.6.28-3.212.546-4.879.743a87.29 87.29 0 0 1-9.786.724 99.76 99.76 0 0 1-2.386.02l-.143.877-.156-.88a9.133 9.133 0 0 0-.234-.005Z" fill="#fff" fill-opacity=".08"/></svg>