<svg width="126" height="74" fill="none" xmlns="http://www.w3.org/2000/svg"><path d="m.616 38.142.668.252c.952.357 1.815.645 2.634.883a38.59 38.59 0 0 0 15.192 1.328 39.128 39.128 0 0 0 14.598-4.653 39.153 39.153 0 0 0 11.7-9.898 38.653 38.653 0 0 0 6.953-13.581 32.449 32.449 0 0 1 7.49 4.55c-7.29 7.079-11.516 16.682-11.763 26.73-.247 10.049 3.505 19.734 10.444 26.958.356.375.722.746 1.082 1.083.3.293.605.573.926.842l.549.462a.334.334 0 0 0 .407.005l.572-.445c.366-.285.725-.574 1.076-.867.36-.298.708-.604 1.04-.91a38.66 38.66 0 0 0 8.803-11.64 40.13 40.13 0 0 0 1.298-2.932 38.057 38.057 0 0 0 2.12-20.568 37.458 37.458 0 0 0-8.967-18.507 33.89 33.89 0 0 1 6.767-3.708 37.544 37.544 0 0 0 17.791 21.138c8.421 4.551 18.301 5.78 27.687 3.441.074.035.159.04.238.015l2.28-.733s.806-.265 1.004-.336l.896-.07a.325.325 0 0 0 .234-.126.325.325 0 0 0 .063-.255l-.183-.988-.312-1.245a33.552 33.552 0 0 0-1.089-3.556 20.405 20.405 0 0 0-.196-.532 24.58 24.58 0 0 0-.31-.787c-.158-.405-.332-.8-.51-1.2-.173-.392-.36-.79-.558-1.192a18.82 18.82 0 0 0-.335-.665 9.784 9.784 0 0 0-.226-.437l-.12-.226a43.15 43.15 0 0 0-.531-.949 31.417 31.417 0 0 0-.855-1.408 23.713 23.713 0 0 0-.786-1.177l-.152-.228c-.259-.354-.512-.703-.752-1.017-.042-.062-.087-.12-.133-.18l-.061-.077a16.367 16.367 0 0 0-.686-.855 5.294 5.294 0 0 0-.381-.465.887.887 0 0 0-.083-.095 18.13 18.13 0 0 0-.58-.665c-.131-.148-.261-.295-.381-.418l-.164-.177a20.83 20.83 0 0 0-.762-.79 18.67 18.67 0 0 0-1.051-1.013 3.03 3.03 0 0 0-.309-.293c-.279-.255-.559-.512-.82-.724-.317-.282-.64-.544-.971-.809l-.68-.536a47.67 47.67 0 0 0-1.985-1.42 18.151 18.151 0 0 1-.49-.321 26.62 26.62 0 0 0-.841-.526c-.231-.14-.463-.282-.663-.39a35.54 35.54 0 0 0-2.43-1.304l-.391-.186a32.825 32.825 0 0 0-1.453-.654c-.487-.214-.984-.41-1.489-.603-.5-.19-.993-.361-1.5-.532a28.545 28.545 0 0 0-1.514-.466 22.237 22.237 0 0 0-1.436-.381 1.246 1.246 0 0 0-.225-.057 30.15 30.15 0 0 0-1.462-.322c-.52-.107-1.05-.198-1.588-.286a28.929 28.929 0 0 0-1.205-.163 7.67 7.67 0 0 0-.698-.08c-.505-.064-.99-.106-1.385-.12a19.143 19.143 0 0 0-1.14-.065 6.363 6.363 0 0 0-.61-.02 7.501 7.501 0 0 0-.694-.013 12.98 12.98 0 0 0-.927.009 5.514 5.514 0 0 0-.606.01c-.36.008-.723.028-1.078.048-.506.025-1.022.067-1.485.121-.292.024-.587.061-.825.096a14.43 14.43 0 0 0-.871.116 3.98 3.98 0 0 0-.37.055c-.43.063-.864.143-1.266.218a1.68 1.68 0 0 0-.29.06c-.436.08-.868.176-1.373.29l-.309.075a33.19 33.19 0 0 1-.266-9.157 3.1 3.1 0 0 0 .147.035l.26.069c1.642.402 3.312.694 4.997.874l.945.087c.44.04.87.068 1.218.073.255.023.502.03.732.034a35.56 35.56 0 0 0 3.896-.075 27.2 27.2 0 0 0 1.061-.087 8.23 8.23 0 0 0 .612-.066l.126-.014c.395-.044.785-.09 1.112-.148.336-.042.669-.093.979-.15.342-.057.669-.117.931-.176.297-.05.59-.113.885-.178l.481-.111c.209-.049.416-.097.58-.144.285-.068.578-.143.843-.218l.576-.164c.127-.037.252-.074.348-.105a37.107 37.107 0 0 0 3.069-1.055l.776-.32c.218-.087.437-.186.709-.309.187-.075.373-.162.562-.25l.545-.258c.267-.125.536-.261.795-.394l.398-.201a33 33 0 0 0 2.858-1.648c.118-.068.233-.145.395-.255l.107-.07c.218-.144.436-.287.632-.422.145-.096.281-.188.35-.246.222-.148.442-.306.639-.453.221-.16.435-.315.645-.477l.694-.537a37.7 37.7 0 0 0 2.347-2.032 29.752 29.752 0 0 0 1.153-1.127l.229-.235c.225-.234.45-.47.675-.714.22-.242.439-.486.64-.718.222-.245.445-.504.642-.748.504-.602.97-1.199 1.414-1.81.136-.182.273-.364.366-.507.365-.502.717-1.02 1.043-1.535.133-.197.261-.402.417-.653.444-.728.813-1.373 1.123-1.964a9.27 9.27 0 0 0 .303-.59c.207-.378.398-.766.591-1.175l.407-.89c.047-.113.095-.227.151-.344l.095-.225c.078-.193.155-.382.215-.543.162-.385.32-.78.435-1.119.087-.21.162-.431.238-.652l.068-.197c.183-.54.353-1.083.526-1.66l.067-.242c.057-.195.112-.392.156-.564.087-.314.168-.636.254-.995 0 0 .386-1.822.409-1.924.16-.758.38-1.797-.612-2.06l-.167-.065c-.119-.046-.24-.094-.374-.138l-1.266-.414a.326.326 0 0 0-.097-.05l-1.62-.508a.27.27 0 0 0-.155.002c-9.879-2.575-20.441-1.146-29.369 3.976l-.21.121a39.404 39.404 0 0 0-15.755 17.36C72.5-7.137 71.498.89 72.922 8.637a39.728 39.728 0 0 0-9.132 5.054 37.724 37.724 0 0 0-10.245-6.21C46.443 4.603 38.61 3.9 31.04 5.454a39.231 39.231 0 0 0-19.186 10.174A38.762 38.762 0 0 0 .534 37.093l-.117.703a.314.314 0 0 0 .2.346Zm23.622-13.705a.328.328 0 0 0-.249.354.314.314 0 0 0 .328.276 33.261 33.261 0 0 0 21.155-8.585 33.873 33.873 0 0 1-16.36 16.186c-7.186 3.331-15.295 4.042-22.883 2.005 2.117-7.9 7.09-14.79 13.965-19.344 6.875-4.554 15.167-6.454 23.286-5.335a31.605 31.605 0 0 1-8.19 9.112 31.746 31.746 0 0 1-11.052 5.331Zm33.267 36.484c-7.505-12.998-4.972-29.953 6-40.447a32.819 32.819 0 0 1 4.047 5.562c4.302 7.429 5.477 16.274 3.273 24.641a33.596 33.596 0 0 1-3.349 8.198 33.632 33.632 0 0 1-5.928 7.61 32.803 32.803 0 0 1-4.043-5.564Zm24.21-43.062a32.553 32.553 0 0 1-2.666-5.904l.406-.094c.45-.103.9-.194 1.323-.28l.23-.04c.417-.076.845-.14 1.27-.198a27.74 27.74 0 0 1 1.266-.152 5.85 5.85 0 0 1 .679-.058 14.954 14.954 0 0 1 1.064-.075l.133-.004c.356-.03.716-.036 1.114-.034.445-.012.901-.01 1.364.012l.269.008.04-.001c.368.016.736.038 1.113.065l.124.006c.4.033.792.07 1.177.11l.257.036c.347.03.683.077 1.088.147.162.018.32.043.504.075.215.034.425.07.676.12.262.044.519.1.869.178.119.019.237.049.389.087l.099.025c.188.039.385.084.627.151.255.06.515.127.766.2l.794.234c.205.063.418.128.669.21.076.02.151.047.278.094.338.113.667.228 1.067.38.09.031.177.062.327.122.24.084.476.18.793.32.161.059.308.123.514.219.245.1.486.21.785.35.109.046.211.095.354.164l.118.057c.25.123.503.245.761.39l.122.057c.063.027.123.059.18.096l.106.06c.204.1.396.21.628.342l.176.1c.137.068.269.144.398.226.345.207.69.415 1.052.653a24.7 24.7 0 0 1 1.019.675c.061.037.117.079.217.152.331.227.654.468.972.714l.146.113a.33.33 0 0 0 .038.024c.26.2.525.413.851.684.044.03.084.067.189.158.222.179.442.368.697.61.4.34.817.73 1.352 1.269.31.3.608.613.914.953.225.24.449.483.726.823.18.187.339.385.52.61a31.76 31.76 0 0 1 2.959 4.27c.13.227.257.461.393.71l.084.155c.141.26.278.515.411.795l.056.102c.088.166.165.33.263.534l.227.484c.069.147.133.298.2.458l.041.1c.244.545.479 1.132.722 1.795.09.248.18.496.273.779-7.012 1.679-14.352 1.087-20.936-1.69a32.804 32.804 0 0 1-15.637-13.73ZM86.74-5.915c-.17 0-.332-.005-.504-.01l-.2-.006a.313.313 0 0 0-.053.002.338.338 0 0 0-.063-.008 26.906 26.906 0 0 1-1.405-.076 33.267 33.267 0 0 0 17.833-13.971.31.31 0 0 0 .041-.222.305.305 0 0 0-.119-.19.33.33 0 0 0-.436.038A31.753 31.753 0 0 1 91.74-13.48a31.61 31.61 0 0 1-11.925 2.551c3.082-7.612 8.877-13.866 16.27-17.558 7.392-3.693 15.861-4.564 23.78-2.447-.052.196-.107.39-.167.59a32.55 32.55 0 0 1-.872 2.633c-.18.47-.367.946-.58 1.42a32.019 32.019 0 0 1-1.135 2.356c-.088.181-.188.357-.315.584l-.083.148a19.43 19.43 0 0 1-.43.745 13.02 13.02 0 0 1-.295.48c-.052.09-.104.171-.188.304l-.126.194c-.149.227-.299.454-.466.7a14.09 14.09 0 0 1-.484.698l-.216.293c-.101.142-.203.284-.329.443-.177.236-.359.468-.554.71-.181.23-.367.452-.561.684a29.79 29.79 0 0 1-1.213 1.352c-.121.136-.25.269-.38.402l-.259.268c-.196.192-.395.387-.597.577l-.57.537c-.246.228-.496.45-.757.667l-.659.557a35.05 35.05 0 0 1-2.985 2.175c-.13.09-.265.174-.419.272l-.133.085a53.91 53.91 0 0 1-1.929 1.115l-.102.053c-.18.095-.365.192-.561.29a32.607 32.607 0 0 1-2.466 1.13l-.833.337a31.9 31.9 0 0 1-.88.316c-.146.053-.295.103-.516.177l-.321.106a30.78 30.78 0 0 1-1.716.504 36.66 36.66 0 0 1-1.682.394l-.937.184c-.583.102-1.17.199-1.779.27a31.815 31.815 0 0 1-3.566.265c-.29.005-.579.008-.87.007l-.052.32-.057-.322-.085-.001Z" fill="#fff" fill-opacity=".08"/></svg>