<svg width="126" height="74" viewBox="0 0 126 74" fill="none" xmlns="http://www.w3.org/2000/svg">
<path d="M0.616368 38.1419L1.28413 38.3938L1.28444 38.3943C2.23618 38.7514 3.0985 39.0395 3.91834 39.2768C8.82762 40.7242 13.9936 41.1757 19.1105 40.6047C24.2274 40.0336 29.1912 38.4516 33.7081 35.9524C38.225 33.4531 42.2031 30.0873 45.4071 26.0543C48.6112 22.0212 50.9759 17.4029 52.3613 12.4726C55.0566 13.6467 57.5754 15.1772 59.8501 17.023C52.5603 24.102 48.3346 33.7052 48.0879 43.7536C47.8412 53.8019 51.5933 63.4868 58.5318 70.7114C58.8883 71.0862 59.2539 71.4566 59.6135 71.7938C59.9143 72.0874 60.2186 72.3668 60.5404 72.6361L61.0885 73.0977C61.1452 73.144 61.2163 73.1698 61.2902 73.1707C61.3641 73.1717 61.4366 73.1478 61.4958 73.103L62.0676 72.6581C62.4339 72.3726 62.7928 72.0836 63.1442 71.791C63.5045 71.4925 63.8516 71.1866 64.1847 70.8816C67.8372 67.5875 70.8257 63.6354 72.987 59.2411C73.4623 58.2726 73.8986 57.2871 74.2854 56.3093C76.8799 49.7499 77.6134 42.6339 76.4056 35.7413C75.1978 28.8488 72.0953 22.4458 67.4381 17.2344C69.545 15.7447 71.8157 14.5002 74.2046 13.5259C77.2266 22.5703 83.5753 30.1133 91.9961 34.6643C100.417 39.2153 110.297 40.4431 119.683 38.1051C119.757 38.14 119.842 38.1453 119.921 38.12L122.201 37.3865C122.201 37.3865 123.007 37.1221 123.205 37.0508L124.101 36.9806C124.147 36.9771 124.191 36.9641 124.231 36.9425C124.272 36.921 124.307 36.8912 124.335 36.8553C124.363 36.8194 124.383 36.7781 124.394 36.7341C124.405 36.6902 124.407 36.6446 124.398 36.6003L124.215 35.6124L123.903 34.367C123.787 33.8911 123.656 33.4236 123.519 32.9424C123.328 32.2866 123.101 31.5984 122.814 30.8114C122.747 30.6235 122.68 30.4379 122.618 30.2788C122.516 30.0094 122.409 29.7331 122.308 29.4917C122.15 29.0868 121.976 28.6925 121.798 28.2912C121.625 27.8997 121.438 27.5019 121.24 27.0996C121.124 26.862 121.009 26.6276 120.905 26.4355C120.833 26.2859 120.756 26.1396 120.679 25.9983L120.559 25.772C120.387 25.4564 120.208 25.1346 120.028 24.8234C119.756 24.3518 119.481 23.8905 119.173 23.4151C118.924 23.0174 118.658 22.6175 118.387 22.2376L118.235 22.0096C117.976 21.6556 117.723 21.3074 117.483 20.9935C117.441 20.9314 117.396 20.8735 117.35 20.8129L117.289 20.7358C117.055 20.4216 116.805 20.1168 116.603 19.8814C116.485 19.7194 116.358 19.564 116.222 19.416C116.197 19.3826 116.169 19.3508 116.139 19.3208C115.957 19.0987 115.764 18.8829 115.559 18.6562C115.428 18.5084 115.298 18.3611 115.178 18.2376L115.014 18.0608C114.754 17.7806 114.493 17.5028 114.252 17.2701C113.896 16.9008 113.535 16.5541 113.201 16.2577C113.105 16.1532 113.002 16.0555 112.892 15.9652C112.613 15.7099 112.333 15.4529 112.072 15.2405C111.755 14.9592 111.432 14.6972 111.101 14.4325L110.421 13.8963C109.752 13.393 109.107 12.9294 108.436 12.4759C108.273 12.3733 108.121 12.2727 107.946 12.1547C107.669 11.9758 107.399 11.8036 107.105 11.6286C106.874 11.4886 106.642 11.347 106.442 11.2389C105.738 10.8246 105.049 10.4511 104.343 10.0967C104.232 10.0415 104.123 9.98783 104.012 9.93483L103.621 9.74893C103.135 9.51573 102.645 9.29567 102.168 9.0948C101.681 8.88065 101.184 8.68451 100.679 8.49225C100.179 8.30249 99.6857 8.13069 99.1788 7.96035C98.6749 7.78759 98.1596 7.63292 97.6648 7.49364C97.1772 7.34662 96.6904 7.21857 96.2295 7.11283C96.1564 7.08682 96.0809 7.0677 96.004 7.0557C95.5124 6.93466 95.0282 6.82879 94.5417 6.73425C94.0215 6.62685 93.4921 6.53628 92.9538 6.44798C92.54 6.38326 92.1097 6.32523 91.7493 6.2849C91.517 6.24389 91.2821 6.22373 91.0507 6.20447C90.5456 6.14079 90.0605 6.09927 89.6658 6.08527C89.2618 6.05009 88.8689 6.02925 88.5252 6.02024C88.288 6.0036 88.0548 5.99395 87.9166 5.99979C87.6558 5.98527 87.398 5.97837 87.2219 5.98673C86.8801 5.97592 86.5399 5.98569 86.2948 5.99584C86.093 5.98791 85.8908 5.9911 85.689 6.00538C85.3293 6.0142 84.9657 6.03392 84.6109 6.0536C84.1046 6.07889 83.589 6.121 83.1258 6.17529C82.8343 6.19859 82.5393 6.23609 82.3012 6.27093C81.9795 6.30518 81.6594 6.34715 81.43 6.387C81.2864 6.40103 81.1511 6.42456 81.0607 6.44231C80.6297 6.50451 80.1963 6.58533 79.7945 6.66012C79.6964 6.6712 79.5994 6.69093 79.5046 6.71909C79.0685 6.80008 78.6364 6.8959 78.1307 7.01059C78.0276 7.03422 77.9244 7.06009 77.8222 7.08534C77.3108 4.06543 77.2213 0.984314 77.5561 -2.07156C77.6056 -2.05919 77.6547 -2.04737 77.7032 -2.03662L77.9629 -1.96837C79.6054 -1.56576 81.2748 -1.27375 82.96 -1.09433L83.905 -1.00681C84.3447 -0.967855 84.7758 -0.938937 85.123 -0.934073C85.3783 -0.911362 85.6246 -0.904272 85.8546 -0.900006C87.1527 -0.853817 88.4534 -0.878912 89.7507 -0.975186C90.0775 -0.993004 90.4083 -1.02395 90.8124 -1.062C91.0381 -1.08037 91.257 -1.10052 91.4237 -1.12782L91.5498 -1.1418C91.9445 -1.18594 92.3355 -1.2315 92.6624 -1.28958C92.9983 -1.33204 93.3306 -1.38322 93.6406 -1.44017C93.9827 -1.49702 94.3097 -1.55734 94.572 -1.61615C94.8688 -1.66552 95.1621 -1.72862 95.457 -1.79409L95.9384 -1.90548C96.1468 -1.95399 96.3537 -2.00242 96.5179 -2.04912C96.8028 -2.1167 97.0963 -2.19212 97.361 -2.26675L97.9375 -2.43085C98.0635 -2.46775 98.1893 -2.50518 98.2852 -2.53614C99.2587 -2.82113 100.261 -3.16506 101.354 -3.59107L102.13 -3.91043C102.348 -3.99814 102.567 -4.09656 102.839 -4.21973C103.026 -4.29533 103.212 -4.38151 103.401 -4.46952L103.946 -4.72773C104.213 -4.85341 104.482 -4.98923 104.741 -5.12163L105.139 -5.32302C106.118 -5.82407 107.072 -6.37412 107.997 -6.97102C108.115 -7.03925 108.23 -7.11619 108.392 -7.2265L108.499 -7.29677C108.717 -7.43984 108.935 -7.58291 109.131 -7.71837C109.276 -7.81408 109.412 -7.9059 109.481 -7.96359C109.703 -8.11197 109.923 -8.27022 110.12 -8.41692C110.341 -8.57645 110.555 -8.73208 110.765 -8.89364L111.459 -9.43061C112.225 -10.0372 112.992 -10.702 113.806 -11.4628C114.044 -11.6854 114.273 -11.9025 114.485 -12.1139C114.647 -12.2711 114.803 -12.4307 114.959 -12.5904L115.188 -12.8253C115.413 -13.0594 115.638 -13.2941 115.863 -13.5393C116.083 -13.781 116.302 -14.0247 116.503 -14.2572C116.725 -14.5023 116.948 -14.7608 117.145 -15.0048C117.649 -15.6074 118.115 -16.2036 118.559 -16.815C118.695 -16.9974 118.832 -17.1786 118.925 -17.3224C119.29 -17.8235 119.642 -18.3422 119.968 -18.8569C120.101 -19.0541 120.229 -19.2594 120.385 -19.5096C120.829 -20.2385 121.198 -20.8835 121.508 -21.4743C121.626 -21.6913 121.743 -21.9104 121.811 -22.0641C122.018 -22.4424 122.209 -22.8296 122.402 -23.2393L122.809 -24.1284C122.856 -24.2422 122.904 -24.3556 122.96 -24.4733L123.055 -24.6982C123.133 -24.8907 123.21 -25.0797 123.27 -25.2408C123.432 -25.6261 123.59 -26.0201 123.705 -26.3598C123.792 -26.5707 123.867 -26.791 123.943 -27.0118L124.011 -27.2086C124.194 -27.7491 124.364 -28.292 124.537 -28.8686L124.604 -29.1107C124.661 -29.3062 124.716 -29.5028 124.76 -29.675C124.847 -29.9894 124.928 -30.3107 125.014 -30.6702C125.014 -30.6702 125.4 -32.492 125.423 -32.5936C125.583 -33.3517 125.803 -34.391 124.811 -34.6542L124.644 -34.7186C124.525 -34.7649 124.404 -34.8128 124.27 -34.857L123.004 -35.2709C122.975 -35.2928 122.942 -35.3097 122.907 -35.3209L121.287 -35.8292C121.237 -35.8435 121.183 -35.8427 121.132 -35.8267C111.253 -38.4023 100.691 -36.9726 91.7633 -31.8511L91.5532 -31.7298C84.6496 -27.6622 79.148 -21.6002 75.7977 -14.3693C72.5013 -7.13781 71.4981 0.889359 72.9224 8.63648C69.6698 9.91154 66.5982 11.6111 63.7896 13.6897C60.7343 11.0914 57.2766 8.99534 53.5449 7.47946C46.4427 4.60446 38.6097 3.89978 31.0402 5.45486C23.8212 6.96985 17.1626 10.5007 11.854 15.6287C6.54542 20.7567 2.8095 27.2667 1.08927 34.3868C0.858898 35.3525 0.676957 36.2377 0.533189 37.0931L0.416503 37.7957C0.404396 37.868 0.417646 37.9418 0.454036 38.0048C0.490426 38.0679 0.547744 38.1163 0.616368 38.1419ZM24.2384 24.437C24.1604 24.4554 24.0916 24.502 24.0456 24.5675C23.9996 24.633 23.9796 24.7129 23.9894 24.7915C23.9993 24.8701 24.0384 24.9418 24.099 24.9927C24.1597 25.0436 24.2375 25.07 24.3175 25.0668C32.1429 24.798 39.6502 21.7513 45.4722 16.4816C42.0952 23.6011 36.298 29.3367 29.112 32.6679C21.926 35.9991 13.8173 36.7097 6.22864 34.6734C8.34605 26.7723 13.319 19.8839 20.1937 15.3294C27.0685 10.7749 35.3609 8.87504 43.4804 9.99415C41.3767 13.5302 38.593 16.6272 35.2902 19.1063C31.9874 21.5853 28.2311 23.3971 24.2384 24.437ZM57.5048 60.9214C50.0002 47.9231 52.5332 30.9685 63.5057 20.4739C65.0461 22.182 66.4021 24.0461 67.5519 26.0364C71.8539 33.4647 73.0288 42.3096 70.825 50.6771C70.6095 51.5093 70.3499 52.3611 70.0551 53.2075C69.5293 54.7217 68.8949 56.198 68.1567 57.6248C67.9379 58.0469 67.7125 58.4627 67.4762 58.8747C65.8796 61.6784 63.8826 64.2418 61.5482 66.4842C60.0086 64.7759 58.6536 62.9117 57.5048 60.9214ZM81.7153 17.8592C80.6327 15.9851 79.7397 14.0075 79.0492 11.9549C79.1826 11.9231 79.318 11.8923 79.4548 11.8614C79.9045 11.7583 80.355 11.6668 80.7783 11.5811L81.0074 11.5407C81.4247 11.4649 81.8533 11.4012 82.2777 11.3428C82.6765 11.2855 83.0814 11.2362 83.5441 11.1909C83.7692 11.1586 83.9959 11.1394 84.2229 11.1335C84.4612 11.1064 84.7038 11.0869 85.0851 11.0649C85.1522 11.0589 85.2196 11.0566 85.2869 11.0582L85.4201 11.0538C85.776 11.0235 86.1365 11.0185 86.5339 11.0195C86.9794 11.0077 87.4351 11.0109 87.8978 11.0316L88.1668 11.04C88.1802 11.0408 88.1937 11.0404 88.2071 11.039C88.5751 11.0548 88.9426 11.0773 89.3197 11.1036L89.4444 11.1099C89.8441 11.1426 90.2364 11.1793 90.6212 11.22L90.8784 11.256C91.2255 11.286 91.5605 11.3331 91.9655 11.4028C92.1275 11.4206 92.2851 11.4459 92.4699 11.4778C92.6852 11.5121 92.8952 11.5473 93.1461 11.5977C93.4079 11.6418 93.665 11.6979 94.0149 11.7758C94.1338 11.7947 94.2519 11.8249 94.4037 11.8629L94.5026 11.8876C94.6914 11.9265 94.8881 11.9715 95.13 12.0393C95.3848 12.0989 95.645 12.1655 95.8963 12.2393L96.6905 12.4727C96.895 12.5363 97.1077 12.6015 97.3585 12.6821C97.435 12.7033 97.5103 12.7301 97.6366 12.7771C97.9746 12.8899 98.3036 13.005 98.7041 13.1578C98.7946 13.1881 98.8808 13.2187 99.031 13.2791C99.2718 13.3626 99.5074 13.4599 99.8242 13.5993C99.985 13.6579 100.132 13.7225 100.338 13.8177C100.583 13.9177 100.824 14.0275 101.123 14.1686C101.232 14.2139 101.334 14.263 101.477 14.3318L101.595 14.3893C101.845 14.5119 102.098 14.6343 102.356 14.7781L102.478 14.8365C102.541 14.8627 102.601 14.8948 102.658 14.9324L102.764 14.9914C102.968 15.0913 103.16 15.2015 103.392 15.3336L103.568 15.4337C103.705 15.5021 103.837 15.5776 103.966 15.66C104.311 15.8667 104.656 16.0752 105.018 16.3133C105.337 16.5118 105.652 16.7217 106.037 16.988C106.098 17.0253 106.154 17.0668 106.254 17.1401C106.585 17.3668 106.908 17.6075 107.226 17.8542L107.372 17.9669C107.384 17.9759 107.397 17.984 107.41 17.9912C107.67 18.1919 107.935 18.404 108.261 18.6753C108.305 18.7048 108.345 18.7424 108.45 18.8332C108.672 19.0119 108.892 19.2013 109.147 19.4432C109.547 19.7832 109.964 20.1731 110.499 20.7116C110.809 21.0113 111.107 21.3247 111.413 21.6649C111.638 21.9049 111.862 22.1477 112.139 22.4881C112.319 22.6752 112.478 22.8731 112.659 23.0987C112.876 23.3571 113.087 23.6247 113.3 23.9052C114.148 25.0082 114.922 26.1654 115.618 27.3695C115.748 27.5946 115.875 27.8293 116.011 28.0779L116.095 28.2328C116.236 28.4929 116.373 28.7482 116.506 29.0278L116.562 29.1297C116.65 29.2955 116.727 29.4597 116.825 29.664L117.052 30.1476C117.121 30.295 117.185 30.4462 117.252 30.606L117.293 30.7056C117.537 31.2507 117.772 31.8382 118.015 32.5012C118.105 32.7485 118.195 32.9969 118.288 33.2797C111.276 34.9587 103.936 34.3665 97.3521 31.5903C90.7677 28.814 85.2862 24.0006 81.7153 17.8592ZM86.7396 -5.91509C86.5704 -5.91501 86.4082 -5.92044 86.2362 -5.92521L86.0357 -5.93144C86.0181 -5.93232 86.0005 -5.93152 85.9831 -5.92905C85.9624 -5.93373 85.9413 -5.93645 85.92 -5.93717C85.4664 -5.94949 85.0012 -5.97445 84.5149 -6.0131C91.9145 -8.44343 98.2367 -13.3964 102.348 -19.9843C102.389 -20.0511 102.404 -20.1303 102.389 -20.2064C102.375 -20.2826 102.332 -20.3502 102.27 -20.3961C102.205 -20.4436 102.126 -20.4659 102.045 -20.4588C101.965 -20.4518 101.89 -20.4157 101.834 -20.3576C98.9487 -17.4354 95.5188 -15.0984 91.7405 -13.4805C87.9622 -11.8626 83.9096 -10.9955 79.8149 -10.929C82.8975 -18.5415 88.6918 -24.7948 96.0844 -28.4873C103.477 -32.1798 111.946 -33.0511 119.865 -30.9337C119.813 -30.738 119.758 -30.5431 119.698 -30.3435C119.452 -29.4752 119.158 -28.5886 118.826 -27.7107C118.646 -27.2403 118.459 -26.765 118.246 -26.2907C117.888 -25.4665 117.509 -24.6782 117.111 -23.935C117.023 -23.7537 116.923 -23.5776 116.796 -23.3512L116.713 -23.2026C116.577 -22.956 116.44 -22.7154 116.283 -22.4578C116.195 -22.3061 116.107 -22.1638 115.988 -21.9771C115.936 -21.8886 115.884 -21.8069 115.8 -21.6739L115.674 -21.4805C115.525 -21.2526 115.375 -21.0256 115.208 -20.7792C115.053 -20.5414 114.893 -20.3105 114.724 -20.0824L114.508 -19.7891C114.407 -19.647 114.305 -19.5055 114.179 -19.3462C114.002 -19.1097 113.82 -18.8785 113.625 -18.6352C113.444 -18.4057 113.258 -18.1837 113.064 -17.9522C112.691 -17.5087 112.296 -17.0682 111.851 -16.5998C111.73 -16.4643 111.601 -16.3311 111.471 -16.1983L111.212 -15.9301C111.016 -15.7376 110.817 -15.5433 110.615 -15.3532L110.045 -14.8155C109.799 -14.5878 109.549 -14.3666 109.288 -14.1486L108.629 -13.5916C107.673 -12.815 106.677 -12.0891 105.644 -11.417C105.514 -11.3278 105.379 -11.2428 105.225 -11.1453L105.092 -11.0604C104.453 -10.6725 103.784 -10.287 103.163 -9.94497L103.061 -9.89233C102.881 -9.79707 102.696 -9.69982 102.5 -9.6029C101.962 -9.33178 101.415 -9.06396 100.861 -8.82254C100.586 -8.7008 100.319 -8.58465 100.034 -8.47124L99.2007 -8.1352C98.9151 -8.02844 98.6379 -7.92727 98.3211 -7.81899C98.1753 -7.76569 98.0259 -7.71608 97.8045 -7.6421L97.4836 -7.53579C96.918 -7.35562 96.3481 -7.1802 95.7683 -7.03208C95.2153 -6.88797 94.6468 -6.75569 94.0856 -6.63843L93.1487 -6.45426C92.5656 -6.35231 91.9783 -6.25512 91.3704 -6.18339C90.1866 -6.02851 88.9957 -5.94035 87.8037 -5.91935C87.5135 -5.91403 87.2252 -5.91052 86.9341 -5.91183L86.8821 -5.59253L86.8251 -5.91353C86.8234 -5.91395 86.741 -5.91518 86.7396 -5.91509Z" fill="white" fill-opacity="0.08"/>
</svg>
