<svg width="87" height="74" viewBox="0 0 87 74" fill="none" xmlns="http://www.w3.org/2000/svg">
<path d="M173.529 73.3364L172.986 72.6756V72.6748C172.212 71.7349 171.489 70.9201 170.779 70.1833C166.548 65.7444 161.452 62.1841 155.794 59.7134C150.136 57.2426 144.031 55.9116 137.84 55.7991C131.649 55.6865 125.498 56.7947 119.751 59.0582C114.004 61.3216 108.778 64.6942 104.381 68.9763C102.286 66.1458 100.587 63.0513 99.3312 59.7763C111.149 56.8006 121.298 49.3739 127.581 39.1041C133.864 28.8344 135.775 16.5479 132.9 4.90483C132.755 4.3028 132.597 3.70003 132.426 3.13522C132.289 2.65077 132.141 2.17898 131.968 1.70718L131.675 0.900506C131.644 0.818549 131.586 0.749322 131.51 0.704067C131.433 0.658811 131.344 0.640187 131.256 0.651215L130.395 0.770276C129.843 0.84693 129.297 0.931763 128.756 1.02478C128.203 1.11854 127.659 1.22793 127.13 1.34477C121.36 2.57363 115.885 4.88214 111.005 8.14417C109.93 8.86377 108.886 9.6243 107.898 10.4064C101.269 15.6538 96.2388 22.5922 93.3597 30.4609C90.4806 38.3296 89.8633 46.8248 91.5756 55.0151C88.4935 55.2985 85.3884 55.2296 82.3225 54.8098C84.6075 43.6243 82.5364 32.0042 76.5185 22.2457C70.5006 12.4873 60.9737 5.3006 49.8207 2.10604C49.7647 2.02561 49.6796 1.96919 49.5827 1.94828L46.7742 1.34402C46.7742 1.34402 45.7784 1.13566 45.5299 1.09101L44.5568 0.627397C44.5076 0.603831 44.4538 0.590765 44.399 0.589059C44.3443 0.587353 44.2898 0.597046 44.2391 0.617499C44.1884 0.637952 44.1427 0.668703 44.105 0.707731C44.0673 0.74676 44.0384 0.793182 44.0203 0.843948L43.6186 1.97805L43.1958 3.45595C43.0306 4.01854 42.8866 4.58187 42.7395 5.16231C42.5455 5.95708 42.3682 6.80617 42.1939 7.79367C42.1515 8.02882 42.1091 8.261 42.0787 8.46341C42.0227 8.8035 41.9681 9.15399 41.9287 9.46505C41.8499 9.97927 41.7938 10.492 41.7377 11.0144C41.6831 11.5241 41.6392 12.0488 41.6028 12.5838C41.5816 12.9001 41.5604 13.2119 41.5528 13.4731C41.5376 13.6711 41.5301 13.869 41.5255 14.0617L41.5149 14.3683C41.5043 14.7985 41.4967 15.239 41.4967 15.6691C41.4967 16.321 41.5058 16.964 41.5407 17.6412C41.5604 18.2022 41.5968 18.776 41.6513 19.3326L41.6725 19.6601C41.7286 20.1817 41.7832 20.6944 41.8438 21.1633C41.8499 21.2526 41.862 21.3396 41.8741 21.4304L41.8908 21.5465C41.9454 22.0124 42.0227 22.4782 42.0909 22.8428C42.1165 23.0816 42.1555 23.3189 42.2076 23.5535C42.2141 23.6034 42.2237 23.6529 42.2364 23.7016C42.2924 24.0409 42.3637 24.3803 42.441 24.7382C42.488 24.9696 42.5349 25.2003 42.585 25.3998L42.6501 25.6818C42.7517 26.1276 42.8563 26.5718 42.9669 26.9573C43.1154 27.5534 43.2822 28.1286 43.4519 28.6361C43.489 28.8019 43.5376 28.965 43.5974 29.1243C43.7338 29.5559 43.8702 29.9897 44.0142 30.3663C44.1749 30.8477 44.3537 31.3128 44.5386 31.7854L44.9236 32.7483C45.3162 33.6704 45.7087 34.5373 46.1331 35.4087C46.2407 35.6126 46.3392 35.8083 46.4499 36.0353C46.6302 36.3865 46.8076 36.7266 47.0076 37.0838C47.1638 37.3673 47.3199 37.6531 47.4623 37.8845C47.9458 38.7359 48.4369 39.5351 48.9583 40.3254C49.0401 40.4489 49.122 40.5702 49.2053 40.6915L49.4994 41.1179C49.8647 41.6507 50.2421 42.1724 50.6164 42.6658C50.9938 43.1792 51.3924 43.6801 51.8017 44.1816C52.2079 44.678 52.6171 45.1513 53.0415 45.6313C53.4613 46.112 53.9039 46.5808 54.3343 47.0213C54.7527 47.4656 55.1816 47.8898 55.5969 48.2752C55.6573 48.346 55.7242 48.411 55.797 48.4695C56.235 48.8892 56.6745 49.2888 57.1232 49.678C57.5991 50.1007 58.0947 50.5115 58.6009 50.9252C58.992 51.24 59.4042 51.5577 59.7543 51.8152C59.9711 51.9968 60.203 52.1583 60.4318 52.3168C60.9184 52.6851 61.3973 53.0185 61.799 53.2693C62.1976 53.5476 62.5932 53.8044 62.9448 54.0194C63.1812 54.1787 63.4177 54.3283 63.5647 54.4049C63.8269 54.5761 64.0906 54.7375 64.2786 54.8343C64.6272 55.0501 64.9864 55.2436 65.2471 55.3798C65.452 55.5088 65.664 55.6265 65.8821 55.7325C66.2611 55.9386 66.6506 56.1358 67.031 56.3278C67.5721 56.6046 68.1329 56.8696 68.6467 57.0906C68.9635 57.2409 69.2924 57.3786 69.5607 57.485C69.9153 57.642 70.273 57.7901 70.5352 57.8861C70.6928 57.9575 70.8474 58.0141 70.952 58.0498C71.437 58.2433 71.9357 58.4189 72.398 58.5819C72.5065 58.6291 72.6191 58.6667 72.7344 58.6943C73.2361 58.8714 73.7424 59.0306 74.3365 59.2144C74.4577 59.2516 74.5805 59.2866 74.7018 59.3216C73.4218 62.7585 71.6669 66.0064 69.4864 68.9741C69.4424 68.9317 69.3985 68.89 69.3545 68.8498L69.1257 68.6236C67.661 67.2231 66.1019 65.9211 64.4589 64.7264L63.5298 64.0701C63.0964 63.7665 62.6659 63.4785 62.3082 63.2656C62.0566 63.0893 61.805 62.9345 61.5686 62.7924C60.2478 61.9675 58.8817 61.215 57.4763 60.5383C57.1262 60.3612 56.7639 60.1952 56.3214 59.9928C56.0758 59.8767 55.8364 59.7666 55.6469 59.6952L55.5074 59.6342C55.071 59.4437 54.6375 59.2569 54.2631 59.1214C53.8887 58.9644 53.5128 58.8186 53.1567 58.6921C52.7671 58.5462 52.3912 58.413 52.0836 58.317C51.7456 58.1905 51.403 58.0803 51.0575 57.9717L50.4906 57.7991C50.2451 57.7247 50.001 57.651 49.8025 57.6011C49.466 57.5007 49.1159 57.4032 48.7961 57.3221L48.0989 57.1472C47.9458 57.11 47.7927 57.0735 47.6745 57.0482C46.4923 56.7609 45.2449 56.5176 43.8535 56.3048L42.8562 56.1716C42.5774 56.1321 42.2909 56.1031 41.9347 56.0681C41.6952 56.0347 41.4497 56.0123 41.2011 55.9907L40.4797 55.932C40.1265 55.9022 39.7658 55.8821 39.4172 55.8642L38.8837 55.8352C37.5655 55.7682 36.2446 55.7675 34.9263 55.833C34.7626 55.833 34.5974 55.8441 34.3625 55.8613L34.2094 55.8702C33.8972 55.888 33.5849 55.9059 33.3 55.929C33.0924 55.9416 32.8953 55.955 32.7892 55.9736C32.4694 55.9945 32.1466 56.0272 31.8541 56.0614C31.5282 56.0942 31.2129 56.1277 30.8977 56.1693L29.8549 56.3107C28.6954 56.4812 27.4996 56.7111 26.1976 57.0125C25.8172 57.101 25.4489 57.1888 25.1018 57.2811C24.8396 57.3473 24.5819 57.4195 24.3243 57.4917L23.9453 57.5981C23.571 57.706 23.1966 57.8147 22.8162 57.9345C22.4418 58.0528 22.069 58.1748 21.7204 58.2954C21.343 58.4167 20.9565 58.5514 20.6048 58.6861C19.7197 59.0091 18.8785 59.3484 18.051 59.7168C17.7993 59.8239 17.5493 59.9303 17.3659 60.0234C16.6869 60.3247 16.0094 60.6514 15.3622 60.99C15.106 61.115 14.8499 61.2512 14.5377 61.4172C13.6389 61.9068 12.8689 62.3548 12.1929 62.782C11.9398 62.936 11.6867 63.093 11.5245 63.2121C11.0819 63.48 10.6515 63.7672 10.2059 64.0768L9.24951 64.7548C9.13281 64.8448 9.01459 64.9333 8.88577 65.0219L8.65236 65.1983C8.45532 65.3508 8.26283 65.5011 8.10369 65.6321C7.70357 65.9342 7.30342 66.2483 6.98058 66.5318C6.76384 66.6985 6.55316 66.8816 6.34248 67.0654L6.15303 67.2283C5.63922 67.6793 5.13754 68.1407 4.6116 68.6348L4.39638 68.8454C4.22056 69.0143 4.04476 69.1847 3.89621 69.3373C3.61734 69.6111 3.33996 69.8954 3.03532 70.2169C3.03532 70.2169 1.54239 71.8749 1.45751 71.9664C0.836093 72.6563 -0.0157052 73.6021 0.857312 74.469L0.992206 74.6357C1.0877 74.7548 1.18469 74.8768 1.29685 75.0026L2.36388 76.1895C2.38123 76.2299 2.4053 76.2671 2.43511 76.2997L3.81285 77.7962C3.85668 77.8412 3.91311 77.8726 3.97502 77.8862C12.6934 86.47 24.5219 91.3094 36.8679 91.3436H37.1589C46.7698 91.2589 56.1205 88.2672 63.9375 82.7761C71.6988 77.252 77.5552 69.5305 80.7219 60.6463C84.8654 61.2712 89.0755 61.3478 93.2398 60.874C94.8552 65.3965 97.19 69.6392 100.157 73.4443C105.811 80.676 113.525 86.0951 122.321 89.0137C130.728 91.764 139.763 92.089 148.353 89.9502C156.943 87.8113 164.728 83.2983 170.785 76.9464C171.604 76.0831 172.324 75.2742 172.986 74.4735L173.529 73.8149C173.585 73.7473 173.615 73.6628 173.615 73.5757C173.615 73.4885 173.585 73.404 173.529 73.3364ZM140.771 73.4056C140.863 73.4331 140.962 73.426 141.049 73.3857C141.137 73.3453 141.205 73.2745 141.242 73.1871C141.279 73.0997 141.281 73.002 141.249 72.9129C141.216 72.8238 141.151 72.7498 141.066 72.7053C132.776 68.3 123.151 66.965 113.942 68.9436C121.72 63.5838 131.182 61.1075 140.645 61.9552C150.107 62.8029 158.957 66.9197 165.619 73.573C158.68 80.4969 149.383 84.6618 139.51 85.2686C129.637 85.8755 119.884 82.8817 112.12 76.8615C116.426 74.4548 121.176 72.9101 126.093 72.317C131.011 71.7238 136 72.0938 140.771 73.4056ZM128.095 15.6691C128.095 33.6369 115.296 49.6981 97.6034 54.0105C97.0277 51.3176 96.7372 48.5734 96.7364 45.8218C96.7226 35.5456 100.807 25.6726 108.114 18.3168C108.837 17.5831 109.618 16.8553 110.432 16.1543C111.886 14.8991 113.431 13.7484 115.053 12.7111C115.534 12.4045 116.017 12.1083 116.51 11.8225C119.85 9.87154 123.462 8.40926 127.231 7.48183C127.806 10.1744 128.096 12.9181 128.095 15.6691ZM77.1192 45.8218C77.1199 48.4127 76.8615 50.9974 76.3478 53.5387C76.1901 53.4918 76.031 53.4427 75.8703 53.3929C75.3414 53.2306 74.8185 53.0557 74.3274 52.8913L74.0652 52.796C73.5862 52.6249 73.1027 52.4344 72.6268 52.2409C72.1782 52.0616 71.728 51.8703 71.2203 51.6404C70.967 51.5391 70.72 51.4233 70.4806 51.2936C70.2169 51.179 69.9532 51.054 69.544 50.8486C69.4706 50.8146 69.3992 50.7766 69.3303 50.7347L69.1893 50.6596C68.8013 50.478 68.4239 50.2674 68.0116 50.0285C67.5418 49.774 67.0704 49.4979 66.6021 49.1995L66.3277 49.0298C66.3143 49.021 66.3001 49.0133 66.2853 49.0068C65.9124 48.7701 65.5441 48.5268 65.1683 48.2738L65.0425 48.1927C64.6469 47.9195 64.2614 47.6467 63.886 47.3741L63.6405 47.1828C63.2979 46.944 62.9781 46.6947 62.5992 46.3799C62.4416 46.2645 62.293 46.144 62.1203 46.0004C61.9172 45.8359 61.7201 45.6737 61.4897 45.4713C61.2442 45.2689 61.0108 45.0568 60.694 44.7665C60.5818 44.6758 60.4773 44.5738 60.3424 44.4436L60.2545 44.3587C60.0817 44.2054 59.9044 44.041 59.6937 43.8259C59.4648 43.6116 59.2344 43.3869 59.0177 43.1599L58.3326 42.4425C58.1583 42.2543 57.9764 42.0593 57.7642 41.8256C57.6976 41.7579 57.6354 41.685 57.5324 41.5607C57.2489 41.2415 56.9761 40.9252 56.6518 40.5271C56.576 40.4415 56.5047 40.3581 56.385 40.2056C56.1849 39.9749 55.9985 39.733 55.753 39.3989C55.6211 39.2419 55.5074 39.0871 55.3498 38.8646C55.1558 38.6146 54.9709 38.3564 54.7451 38.0312C54.6587 37.9188 54.5829 37.8072 54.4753 37.6502L54.3874 37.5199C54.2009 37.2431 54.0115 36.9648 53.8296 36.6612L53.7387 36.528C53.6886 36.4629 53.645 36.3934 53.6083 36.3203L53.5341 36.1961C53.3825 35.9706 53.2491 35.7414 53.0869 35.4653L52.9642 35.2562C52.8633 35.1036 52.7707 34.9459 52.6868 34.7836C52.4519 34.3624 52.2185 33.9398 51.985 33.4762C51.7729 33.0795 51.5713 32.6732 51.3318 32.1672C51.2909 32.092 51.2575 32.0154 51.1969 31.8792C50.9893 31.4461 50.7983 31.0033 50.6164 30.5576L50.5315 30.3529C50.5247 30.3365 50.5166 30.3205 50.5073 30.3053C50.3572 29.9414 50.2087 29.5626 50.0329 29.0864C50.0056 29.0298 49.9859 28.9665 49.9313 28.8095C49.8086 28.4918 49.6934 28.1636 49.5736 27.7603C49.3614 27.1679 49.1629 26.5145 48.9295 25.6357C48.787 25.1393 48.6658 24.6363 48.5521 24.1005C48.4627 23.7172 48.3748 23.331 48.2914 22.8123C48.2171 22.5109 48.1701 22.2103 48.1171 21.868C48.0474 21.4706 47.9883 21.0665 47.9352 20.6483C47.7161 18.9973 47.6057 17.3341 47.6048 15.6691C47.6048 15.3581 47.6139 15.0388 47.6215 14.6995L47.6275 14.4889C47.6366 14.1347 47.6472 13.7879 47.6776 13.4188L47.6806 13.2796C47.6882 13.0549 47.7064 12.8383 47.7276 12.5682L47.7821 11.9312C47.7988 11.737 47.8231 11.542 47.8488 11.3359L47.8655 11.2079C47.9398 10.4972 48.0474 9.74709 48.1929 8.91438C48.2474 8.60406 48.3035 8.293 48.3763 7.94399C56.6677 10.4006 63.9363 15.4074 69.1111 22.2268C74.2858 29.0462 77.0931 37.3174 77.1192 45.8218ZM57.6415 67.462C57.8173 67.5632 57.9825 67.6659 58.1583 67.7738L58.3629 67.9003C58.3806 67.9117 58.3994 67.9214 58.419 67.9293C58.4377 67.9465 58.458 67.962 58.4796 67.9754C58.9434 68.2597 59.4118 68.5641 59.8938 68.8952C50.7495 66.9857 41.2115 68.3364 32.9893 72.7053C32.9067 72.75 32.8439 72.8233 32.8134 72.911C32.7829 72.9986 32.7867 73.0943 32.8241 73.1793C32.8622 73.2669 32.9316 73.3378 33.0193 73.3785C33.107 73.4193 33.2069 73.427 33.3 73.4004C38.0495 72.0976 43.014 71.7277 47.9093 72.3119C52.8045 72.8961 57.5343 74.4229 61.8277 76.8049C54.06 82.8518 44.2905 85.8666 34.3966 85.2699C24.5026 84.6732 15.1823 80.5072 8.22647 73.5723C8.39774 73.4004 8.57204 73.2314 8.75391 73.0603C9.52993 72.3072 10.3666 71.5638 11.2381 70.8524C11.7079 70.4729 12.1869 70.0918 12.6931 69.7279C13.5586 69.0872 14.4255 68.4971 15.2849 67.965C15.485 67.8296 15.6941 67.7068 15.9624 67.5483L16.1367 67.4434C16.4262 67.2693 16.7126 67.1018 17.0309 66.9292C17.2128 66.8242 17.3901 66.7297 17.6251 66.6069C17.7327 66.5467 17.8357 66.4931 18.0025 66.4053L18.2495 66.2803C18.5405 66.1329 18.833 65.9878 19.1544 65.8323C19.4575 65.6782 19.7621 65.5346 20.0744 65.3992L20.4745 65.2243C20.6655 65.138 20.8564 65.0524 21.0823 64.9624C21.4081 64.8232 21.7355 64.6922 22.0841 64.5568C22.41 64.4273 22.7359 64.3082 23.0769 64.1847C23.7301 63.9481 24.4046 63.7278 25.1473 63.5083C25.3549 63.4406 25.5686 63.3795 25.7839 63.32L26.2128 63.1965C26.5326 63.1146 26.8554 63.032 27.1798 62.9561L28.0937 62.7395C28.4863 62.651 28.8788 62.5714 29.2805 62.5014L30.299 62.3184C31.7576 62.0853 33.2279 61.9291 34.7035 61.8503C34.893 61.8361 35.0839 61.8287 35.3022 61.8198L35.4917 61.8116C36.3874 61.7915 37.3135 61.7922 38.1638 61.8093L38.3017 61.8161C38.5457 61.825 38.7958 61.8346 39.058 61.8518C39.7795 61.8927 40.5085 61.9426 41.2284 62.0237C41.5876 62.0624 41.9347 62.1018 42.2985 62.1546L43.3655 62.305C43.7262 62.3652 44.0748 62.4263 44.4689 62.5036C44.6523 62.5356 44.8372 62.5736 45.1115 62.6294L45.5086 62.7113C46.2043 62.8631 46.9015 63.0223 47.5927 63.2158C48.2535 63.3974 48.9234 63.6006 49.5767 63.8149L50.6604 64.1847C51.3273 64.4281 51.9957 64.6788 52.6701 64.9683C53.9928 65.5164 55.2827 66.1377 56.5336 66.8295C56.8382 66.9976 57.1398 67.1666 57.4414 67.3422L57.687 67.0423L57.5536 67.4092C57.5551 67.4106 57.64 67.4612 57.6415 67.462Z" fill="white" fill-opacity="0.08"/>
</svg>
