<svg width="344" height="201" viewBox="0 0 344 201" fill="none" xmlns="http://www.w3.org/2000/svg">
<path d="M0.807815 104.646L2.63987 105.337L2.64072 105.339C5.25191 106.318 7.61777 107.109 9.86708 107.76C23.3361 111.731 37.5094 112.97 51.5481 111.403C65.5867 109.836 79.2053 105.496 91.5978 98.639C103.99 91.782 114.905 82.5477 123.695 71.4827C132.486 60.4176 138.974 47.7467 142.775 34.22C150.17 37.4413 157.08 41.6405 163.321 46.7046C143.321 66.1264 131.727 92.4737 131.05 120.042C130.373 147.611 140.668 174.182 159.704 194.003C160.682 195.032 161.685 196.048 162.672 196.973C163.497 197.779 164.332 198.545 165.215 199.284L166.719 200.551C166.874 200.678 167.069 200.748 167.272 200.751C167.475 200.754 167.674 200.688 167.836 200.565L169.405 199.344C170.41 198.561 171.394 197.768 172.359 196.965C173.347 196.147 174.299 195.307 175.213 194.47C185.234 185.433 193.433 174.59 199.363 162.534C200.667 159.876 201.864 157.173 202.926 154.49C210.044 136.494 212.056 116.97 208.742 98.06C205.429 79.1497 196.917 61.5826 184.139 47.2847C189.92 43.1975 196.15 39.7831 202.704 37.1101C210.995 61.924 228.413 82.619 251.516 95.1051C274.619 107.591 301.726 110.96 327.479 104.545C327.682 104.641 327.915 104.656 328.131 104.586L334.387 102.574C334.387 102.574 336.598 101.848 337.142 101.653L339.6 101.46C339.725 101.45 339.846 101.415 339.957 101.356C340.067 101.296 340.164 101.215 340.241 101.116C340.318 101.018 340.373 100.904 340.403 100.784C340.433 100.663 340.437 100.538 340.415 100.417L339.911 97.7063L339.055 94.2894C338.738 92.9838 338.377 91.7011 338.003 90.3809C337.477 88.5816 336.855 86.6935 336.069 84.5342C335.883 84.0189 335.701 83.5096 335.53 83.0731C335.251 82.334 334.957 81.5759 334.679 80.9135C334.246 79.8028 333.769 78.721 333.282 77.62C332.806 76.5458 332.292 75.4543 331.751 74.3507C331.43 73.6987 331.115 73.0556 330.831 72.5285C330.634 72.1183 330.422 71.7167 330.21 71.329L329.88 70.7083C329.408 69.8425 328.918 68.9594 328.425 68.1057C327.678 66.8119 326.924 65.5461 326.078 64.2419C325.396 63.1508 324.667 62.0537 323.921 61.0113L323.504 60.3857C322.795 59.4144 322.099 58.4592 321.442 57.598C321.328 57.4277 321.204 57.2687 321.076 57.1024L320.91 56.891C320.268 56.0288 319.581 55.1927 319.028 54.5469C318.703 54.1023 318.354 53.676 317.982 53.2699C317.912 53.1783 317.837 53.0911 317.756 53.0089C317.256 52.3995 316.726 51.8074 316.162 51.1854C315.804 50.7798 315.447 50.3757 315.119 50.037L314.667 49.5518C313.955 48.7832 313.239 48.021 312.578 47.3825C311.601 46.3693 310.611 45.4182 309.693 44.605C309.43 44.3183 309.147 44.0502 308.846 43.8025C308.081 43.1019 307.314 42.3968 306.597 41.8141C305.727 41.0423 304.84 40.3237 303.932 39.5972L302.066 38.1263C300.232 36.7452 298.461 35.4735 296.621 34.2292C296.175 33.9476 295.755 33.6718 295.276 33.3479C294.516 32.857 293.775 32.3848 292.97 31.9047C292.335 31.5205 291.699 31.1318 291.151 30.8354C289.218 29.6987 287.329 28.674 285.391 27.7017C285.087 27.5501 284.786 27.403 284.482 27.2576L283.411 26.7475C282.077 26.1077 280.732 25.504 279.425 24.9528C278.089 24.3653 276.725 23.8272 275.34 23.2997C273.966 22.7791 272.613 22.3077 271.223 21.8404C269.84 21.3664 268.426 20.942 267.069 20.5599C265.731 20.1566 264.395 19.8052 263.131 19.5151C262.93 19.4438 262.723 19.3913 262.512 19.3584C261.164 19.0263 259.835 18.7358 258.5 18.4765C257.073 18.1818 255.621 17.9333 254.144 17.691C253.009 17.5135 251.828 17.3543 250.839 17.2436C250.202 17.1311 249.558 17.0758 248.923 17.023C247.537 16.8483 246.206 16.7343 245.123 16.6959C244.014 16.5994 242.937 16.5422 241.994 16.5175C241.343 16.4718 240.703 16.4454 240.324 16.4614C239.608 16.4216 238.901 16.4027 238.418 16.4256C237.48 16.3959 236.547 16.4227 235.874 16.4506C235.321 16.4288 234.766 16.4376 234.212 16.4768C233.225 16.5009 232.228 16.555 231.254 16.6091C229.865 16.6784 228.451 16.794 227.18 16.9429C226.38 17.0068 225.571 17.1097 224.917 17.2053C224.035 17.2993 223.157 17.4144 222.527 17.5238C222.133 17.5622 221.762 17.6268 221.514 17.6755C220.332 17.8461 219.143 18.0679 218.04 18.2731C217.771 18.3035 217.505 18.3576 217.245 18.4349C216.048 18.6571 214.863 18.92 213.475 19.2346C213.193 19.2995 212.909 19.3704 212.629 19.4397C211.226 11.1543 210.98 2.701 211.899 -5.68305C212.035 -5.64913 212.169 -5.61669 212.303 -5.5872L213.015 -5.39996C217.521 -4.29537 222.102 -3.49422 226.725 -3.00196L229.318 -2.76182C230.524 -2.65495 231.707 -2.57561 232.659 -2.56227C233.36 -2.49996 234.035 -2.48051 234.667 -2.4688C238.228 -2.34208 241.797 -2.41093 245.356 -2.67507C246.252 -2.72395 247.16 -2.80885 248.269 -2.91326C248.888 -2.96365 249.489 -3.01893 249.946 -3.09383L250.292 -3.13218C251.375 -3.25328 252.448 -3.3783 253.344 -3.53763C254.266 -3.65413 255.178 -3.79453 256.028 -3.95078C256.967 -4.10677 257.864 -4.27225 258.583 -4.4336C259.398 -4.56905 260.203 -4.74219 261.012 -4.92179L262.332 -5.22741C262.904 -5.36052 263.472 -5.49337 263.922 -5.62149C264.704 -5.8069 265.509 -6.01382 266.236 -6.21857L267.817 -6.66882C268.163 -6.77004 268.508 -6.87274 268.771 -6.95768C271.442 -7.73959 274.192 -8.68317 277.192 -9.85198L279.32 -10.7282C279.917 -10.9688 280.518 -11.2388 281.264 -11.5768C281.777 -11.7842 282.288 -12.0206 282.806 -12.2621L284.302 -12.9705C285.036 -13.3153 285.773 -13.688 286.484 -14.0512L287.574 -14.6038C290.262 -15.9784 292.88 -17.4875 295.416 -19.1252C295.74 -19.3124 296.055 -19.5235 296.5 -19.8261L296.793 -20.0189C297.391 -20.4114 297.989 -20.8039 298.527 -21.1756C298.924 -21.4382 299.299 -21.6901 299.488 -21.8484C300.098 -22.2555 300.7 -22.6897 301.24 -23.0921C301.848 -23.5298 302.434 -23.9568 303.011 -24.4001L304.914 -25.8733C307.016 -27.5376 309.121 -29.3616 311.354 -31.4487C312.007 -32.0595 312.636 -32.655 313.217 -33.2351C313.661 -33.6665 314.088 -34.1044 314.516 -34.5423L315.145 -35.1869C315.763 -35.8292 316.38 -36.473 316.996 -37.1459C317.602 -37.8089 318.201 -38.4775 318.753 -39.1155C319.362 -39.7878 319.973 -40.4972 320.515 -41.1666C321.898 -42.82 323.176 -44.4555 324.393 -46.133C324.769 -46.6335 325.142 -47.1307 325.399 -47.525C326.398 -48.8998 327.366 -50.323 328.26 -51.7352C328.624 -52.2763 328.975 -52.8395 329.404 -53.5259C330.623 -55.5257 331.635 -57.2954 332.484 -58.9163C332.809 -59.5115 333.131 -60.1126 333.315 -60.5344C333.885 -61.5723 334.409 -62.6347 334.937 -63.7588L336.054 -66.1981C336.182 -66.5103 336.315 -66.8212 336.469 -67.1443L336.729 -67.7613C336.944 -68.2894 337.153 -68.8079 337.318 -69.2499C337.765 -70.3071 338.198 -71.3881 338.512 -72.32C338.75 -72.8987 338.958 -73.503 339.165 -74.1088L339.353 -74.6489C339.854 -76.1316 340.319 -77.6211 340.795 -79.2033L340.98 -79.8674C341.135 -80.4038 341.288 -80.943 341.407 -81.4157C341.646 -82.2782 341.869 -83.1596 342.104 -84.1461C342.104 -84.1461 343.162 -89.1442 343.225 -89.423C343.665 -91.5029 344.269 -94.3543 341.546 -95.0766L341.088 -95.2531C340.762 -95.3802 340.43 -95.5115 340.064 -95.6329L336.59 -96.7684C336.51 -96.8286 336.419 -96.875 336.323 -96.9055L331.879 -98.3001C331.74 -98.3395 331.593 -98.3371 331.454 -98.2934C304.348 -105.36 275.372 -101.437 250.878 -87.3858L250.301 -87.053C231.361 -75.8933 216.267 -59.2616 207.074 -39.423C198.031 -19.5828 195.278 2.44048 199.186 23.6954C190.262 27.1937 181.835 31.8565 174.129 37.5594C165.747 30.4307 156.26 24.68 146.022 20.521C126.536 12.6332 105.046 10.6999 84.2784 14.9663C64.4725 19.1229 46.204 28.81 31.6394 42.8792C17.0747 56.9483 6.82488 74.8092 2.10527 94.3438C1.47322 96.9931 0.974045 99.422 0.579605 101.769L0.259466 103.696C0.22625 103.895 0.262603 104.097 0.362442 104.27C0.462281 104.443 0.619539 104.576 0.807815 104.646ZM65.617 67.0455C65.4029 67.0962 65.2144 67.2238 65.0881 67.4036C64.9618 67.5834 64.9068 67.8024 64.9339 68.0181C64.961 68.2337 65.0682 68.4305 65.2345 68.5701C65.4009 68.7097 65.6146 68.7822 65.834 68.7733C87.3037 68.036 107.901 59.6772 123.874 45.2191C114.609 64.7522 98.7036 80.4884 78.9881 89.6278C59.2727 98.7671 37.0257 100.717 16.2056 95.1301C22.0149 73.4527 35.6587 54.5537 54.5201 42.0581C73.3815 29.5624 96.1324 24.3499 118.409 27.4203C112.638 37.1217 105 45.6187 95.9386 52.4202C86.8771 59.2217 76.5713 64.1926 65.617 67.0455ZM156.886 167.144C136.297 131.482 143.246 84.9652 173.35 56.1723C177.577 60.8588 181.297 65.9732 184.451 71.4337C196.254 91.8139 199.478 116.081 193.432 139.038C192.84 141.321 192.128 143.658 191.319 145.98C189.877 150.134 188.136 154.185 186.111 158.099C185.51 159.257 184.892 160.398 184.244 161.529C179.863 169.221 174.384 176.254 167.98 182.406C163.756 177.719 160.038 172.604 156.886 167.144ZM223.31 48.9986C220.34 43.857 217.89 38.4314 215.995 32.7999C216.361 32.7127 216.733 32.6281 217.108 32.5433C218.342 32.2604 219.578 32.0095 220.739 31.7743L221.368 31.6634C222.513 31.4554 223.689 31.2806 224.853 31.1203C225.947 30.9632 227.058 30.828 228.327 30.7037C228.945 30.615 229.567 30.5624 230.19 30.5461C230.844 30.4719 231.509 30.4185 232.555 30.3581C232.74 30.3415 232.924 30.3353 233.109 30.3397L233.474 30.3276C234.451 30.2443 235.44 30.2307 236.53 30.2333C237.753 30.2011 239.003 30.21 240.272 30.2667L241.01 30.2897C241.047 30.2918 241.084 30.2909 241.121 30.2869C242.13 30.3302 243.139 30.392 244.173 30.4643L244.516 30.4814C245.612 30.571 246.688 30.6717 247.744 30.7835L248.45 30.8823C249.402 30.9647 250.321 31.0937 251.432 31.2852C251.877 31.3338 252.309 31.4032 252.816 31.4907C253.407 31.5848 253.983 31.6815 254.671 31.8197C255.39 31.9407 256.095 32.0947 257.055 32.3084C257.381 32.3604 257.705 32.4431 258.122 32.5473L258.393 32.6152C258.911 32.7218 259.451 32.8454 260.115 33.0313C260.813 33.195 261.527 33.3776 262.217 33.5802L264.396 34.2205C264.957 34.3949 265.541 34.5738 266.229 34.7949C266.438 34.8531 266.645 34.9267 266.992 35.0555C267.919 35.365 268.822 35.6807 269.92 36.1C270.169 36.1832 270.405 36.2671 270.817 36.433C271.478 36.662 272.124 36.9289 272.993 37.3112C273.435 37.4721 273.837 37.6493 274.404 37.9106C275.075 38.185 275.737 38.4861 276.557 38.8733C276.857 38.9975 277.135 39.1324 277.528 39.3209L277.852 39.4789C278.538 39.8151 279.232 40.1508 279.941 40.5454L280.273 40.7058C280.447 40.7777 280.613 40.8657 280.77 40.9688L281.059 41.1306C281.618 41.4048 282.144 41.7071 282.782 42.0696L283.265 42.3443C283.64 42.5317 284.004 42.7389 284.356 42.9649C285.304 43.5323 286.251 44.1043 287.244 44.7575C288.119 45.3021 288.984 45.878 290.038 46.6085C290.205 46.7108 290.359 46.8248 290.635 47.0258C291.543 47.6479 292.429 48.3083 293.3 48.9851L293.702 49.2942C293.735 49.319 293.769 49.3413 293.805 49.3609C294.519 49.9116 295.247 50.4935 296.141 51.2377C296.26 51.3188 296.372 51.4218 296.66 51.671C297.267 52.1613 297.871 52.6809 298.571 53.3445C299.67 54.2776 300.812 55.3473 302.281 56.8247C303.132 57.6469 303.949 58.5067 304.788 59.4402C305.404 60.0985 306.021 60.7646 306.781 61.6987C307.273 62.212 307.711 62.7549 308.208 63.3737C308.801 64.0827 309.382 64.8171 309.966 65.5865C312.292 68.6128 314.416 71.7876 316.326 75.0912C316.683 75.7086 317.03 76.3526 317.404 77.0348L317.634 77.4597C318.021 78.1732 318.398 78.8736 318.761 79.6409L318.914 79.9205C319.157 80.3752 319.369 80.8258 319.636 81.3863L320.258 82.713C320.448 83.1176 320.623 83.5322 320.808 83.9708L320.922 84.2439C321.589 85.7394 322.236 87.3513 322.902 89.1705C323.149 89.8488 323.395 90.5303 323.65 91.3062C304.411 95.9129 284.276 94.288 266.211 86.6711C248.146 79.0543 233.107 65.8481 223.31 48.9986ZM237.095 -16.2281C236.63 -16.2279 236.186 -16.2428 235.714 -16.2559L235.163 -16.273C235.115 -16.2754 235.067 -16.2732 235.019 -16.2664C234.962 -16.2793 234.904 -16.2867 234.846 -16.2887C233.602 -16.3225 232.325 -16.391 230.991 -16.497C251.293 -23.1649 268.638 -36.7538 279.918 -54.8284C280.031 -55.0116 280.071 -55.2289 280.031 -55.4378C279.991 -55.6467 279.874 -55.8322 279.703 -55.9582C279.527 -56.0885 279.308 -56.1497 279.088 -56.1302C278.867 -56.1108 278.66 -56.012 278.507 -55.8526C270.591 -47.8352 261.181 -41.4234 250.815 -36.9845C240.449 -32.5455 229.33 -30.1667 218.096 -29.9843C226.554 -50.8697 242.451 -68.0262 262.733 -78.157C283.015 -88.2879 306.251 -90.6783 327.976 -84.869C327.834 -84.3319 327.683 -83.7973 327.518 -83.2496C326.844 -80.8674 326.039 -78.435 325.128 -76.0263C324.632 -74.7357 324.12 -73.4318 323.534 -72.1306C322.554 -69.8691 321.513 -67.7064 320.42 -65.6675C320.179 -65.1699 319.906 -64.6869 319.556 -64.0656L319.331 -63.658C318.957 -62.9813 318.581 -62.3213 318.149 -61.6147C317.909 -61.1984 317.666 -60.808 317.341 -60.2957C317.197 -60.053 317.054 -59.8287 316.824 -59.4638L316.478 -58.9331C316.071 -58.3079 315.658 -57.6853 315.199 -57.0091C314.775 -56.3567 314.337 -55.7233 313.873 -55.0973L313.281 -54.2926C313.002 -53.9029 312.721 -53.5146 312.377 -53.0777C311.891 -52.4288 311.393 -51.7944 310.858 -51.1269C310.36 -50.4973 309.851 -49.8883 309.317 -49.2531C308.295 -48.0363 307.211 -46.8278 305.991 -45.5427C305.658 -45.1708 305.304 -44.8053 304.946 -44.441L304.238 -43.7053C303.698 -43.177 303.154 -42.6439 302.598 -42.1223L301.036 -40.6473C300.36 -40.0226 299.673 -39.4156 298.958 -38.8174L297.15 -37.2892C294.528 -35.1586 291.795 -33.167 288.962 -31.323C288.603 -31.0783 288.233 -30.8451 287.811 -30.5778L287.445 -30.3449C285.694 -29.2806 283.858 -28.2229 282.155 -27.2845L281.874 -27.14C281.38 -26.8787 280.874 -26.6119 280.335 -26.346C278.859 -25.6021 277.357 -24.8673 275.838 -24.205C275.082 -23.871 274.35 -23.5523 273.569 -23.2412L271.283 -22.3192C270.499 -22.0263 269.739 -21.7487 268.869 -21.4517C268.469 -21.3054 268.06 -21.1693 267.452 -20.9663L266.572 -20.6747C265.02 -20.1804 263.456 -19.6991 261.866 -19.2927C260.349 -18.8973 258.789 -18.5344 257.249 -18.2127L254.679 -17.7074C253.079 -17.4277 251.467 -17.161 249.8 -16.9642C246.552 -16.5393 243.285 -16.2974 240.014 -16.2398C239.218 -16.2252 238.427 -16.2156 237.628 -16.2192L237.485 -15.3432L237.329 -16.2238C237.325 -16.225 237.099 -16.2284 237.095 -16.2281Z" fill="white" fill-opacity="0.08"/>
</svg>
