<svg width="236" height="199" viewBox="0 0 236 199" fill="none" xmlns="http://www.w3.org/2000/svg">
<path d="M474.763 199.589L473.274 197.776V197.774C471.149 195.196 469.166 192.96 467.22 190.939C455.61 178.76 441.629 168.992 426.107 162.213C410.584 155.435 393.834 151.783 376.848 151.474C359.862 151.165 342.986 154.206 327.218 160.416C311.451 166.626 297.112 175.879 285.051 187.627C279.301 179.861 274.641 171.371 271.195 162.386C303.619 154.222 331.464 133.846 348.702 105.67C365.939 77.494 371.182 43.7851 363.294 11.8412C362.895 10.1895 362.463 8.53575 361.993 6.98615C361.618 5.65702 361.211 4.36263 360.737 3.06819L359.934 0.855009C359.849 0.630154 359.689 0.440222 359.48 0.31606C359.271 0.191898 359.025 0.1408 358.782 0.171057L356.421 0.497713C354.907 0.708018 353.409 0.940765 351.925 1.19596C350.408 1.45321 348.915 1.75333 347.463 2.07388C331.634 5.44537 316.613 11.779 303.223 20.7286C300.274 22.7029 297.409 24.7895 294.698 26.9353C276.511 41.3321 262.711 60.3681 254.812 81.9566C246.913 103.545 245.219 126.852 249.917 149.323C241.461 150.101 232.942 149.912 224.53 148.76C230.799 118.072 225.117 86.1907 208.606 59.4175C192.096 32.6443 165.958 12.9271 135.359 4.16251C135.205 3.94184 134.972 3.78703 134.706 3.72968L127 2.07184C127 2.07184 124.268 1.50018 123.586 1.37767L120.917 0.105711C120.782 0.0410553 120.634 0.00520721 120.484 0.000526199C120.334 -0.00415481 120.184 0.0224393 120.045 0.0785534C119.906 0.134667 119.781 0.219036 119.677 0.326114C119.574 0.433192 119.494 0.560555 119.445 0.699837L118.343 3.81134L117.183 7.8661C116.729 9.40961 116.334 10.9552 115.931 12.5477C115.399 14.7282 114.912 17.0577 114.434 19.767C114.317 20.4122 114.201 21.0492 114.118 21.6045C113.964 22.5376 113.814 23.4992 113.706 24.3526C113.49 25.7634 113.336 27.1701 113.182 28.6034C113.033 30.0019 112.912 31.4413 112.812 32.9093C112.754 33.777 112.696 34.6324 112.675 35.3491C112.633 35.8921 112.613 36.4352 112.6 36.964L112.571 37.8052C112.542 38.9853 112.521 40.1939 112.521 41.374C112.521 43.1625 112.546 44.9266 112.642 46.7845C112.696 48.3239 112.795 49.898 112.945 51.4252L113.003 52.3235C113.157 53.7547 113.307 55.1615 113.473 56.4477C113.49 56.6927 113.523 56.9316 113.556 57.1807L113.602 57.4992C113.752 58.7773 113.964 60.0553 114.151 61.0558C114.222 61.7109 114.328 62.3618 114.471 63.0055C114.489 63.1424 114.516 63.2781 114.55 63.4118C114.704 64.3429 114.9 65.2739 115.112 66.2559C115.241 66.8909 115.37 67.5238 115.507 68.0709L115.686 68.8447C115.964 70.0677 116.251 71.2866 116.555 72.3442C116.962 73.9796 117.42 75.5578 117.885 76.9502C117.987 77.4051 118.12 77.8525 118.284 78.2895C118.659 79.4736 119.033 80.664 119.428 81.697C119.869 83.0179 120.359 84.294 120.867 85.5905L121.923 88.2324C123 90.762 124.077 93.1406 125.241 95.5314C125.537 96.0908 125.807 96.6278 126.11 97.2505C126.605 98.2141 127.092 99.1472 127.641 100.127C128.069 100.905 128.497 101.689 128.888 102.324C130.215 104.66 131.562 106.852 132.993 109.021C133.217 109.36 133.442 109.692 133.67 110.025L134.477 111.195C135.479 112.657 136.515 114.088 137.542 115.442C138.577 116.851 139.671 118.225 140.794 119.601C141.908 120.962 143.031 122.261 144.195 123.578C145.347 124.897 146.561 126.183 147.742 127.392C148.89 128.611 150.067 129.774 151.206 130.832C151.372 131.026 151.556 131.204 151.755 131.365C152.957 132.516 154.163 133.613 155.394 134.68C156.699 135.84 158.059 136.967 159.448 138.102C160.521 138.966 161.652 139.838 162.612 140.544C163.207 141.042 163.843 141.485 164.471 141.92C165.806 142.931 167.12 143.845 168.222 144.534C169.316 145.297 170.401 146.001 171.366 146.592C172.014 147.028 172.663 147.439 173.067 147.649C173.786 148.119 174.509 148.562 175.025 148.827C175.982 149.419 176.967 149.95 177.682 150.324C178.244 150.678 178.826 151.001 179.425 151.291C180.464 151.857 181.533 152.398 182.577 152.925C184.061 153.684 185.6 154.411 187.009 155.018C187.879 155.43 188.781 155.808 189.517 156.1C190.49 156.53 191.471 156.937 192.191 157.2C192.623 157.396 193.047 157.551 193.334 157.649C194.665 158.18 196.033 158.662 197.301 159.109C197.599 159.239 197.908 159.342 198.225 159.417C199.601 159.903 200.99 160.34 202.62 160.844C202.953 160.947 203.289 161.042 203.622 161.138C200.11 170.568 195.296 179.479 189.313 187.621C189.193 187.505 189.072 187.39 188.951 187.28L188.324 186.659C184.305 182.817 180.027 179.245 175.52 175.967L172.971 174.166C171.782 173.333 170.601 172.543 169.619 171.959C168.929 171.475 168.239 171.051 167.59 170.661C163.966 168.398 160.218 166.333 156.362 164.477C155.402 163.991 154.408 163.535 153.194 162.98C152.52 162.662 151.863 162.359 151.343 162.163L150.961 161.996C149.763 161.473 148.574 160.961 147.547 160.589C146.52 160.159 145.488 159.758 144.511 159.411C143.442 159.011 142.411 158.646 141.567 158.382C140.64 158.035 139.7 157.733 138.752 157.435L137.197 156.961C136.523 156.757 135.853 156.555 135.309 156.418C134.386 156.143 133.425 155.875 132.548 155.653L130.635 155.173C130.215 155.071 129.795 154.971 129.47 154.901C126.227 154.113 122.805 153.445 118.987 152.862L116.251 152.496C115.486 152.388 114.7 152.308 113.723 152.212C113.066 152.12 112.392 152.059 111.71 152L109.731 151.839C108.762 151.757 107.772 151.702 106.816 151.653L105.352 151.573C101.735 151.39 98.1114 151.388 94.4945 151.567C94.0454 151.567 93.5921 151.598 92.9476 151.645L92.5276 151.669C91.671 151.718 90.8144 151.767 90.0326 151.831C89.4629 151.865 88.9223 151.902 88.6312 151.953C87.7538 152.01 86.8681 152.1 86.0655 152.194C85.1715 152.284 84.3066 152.376 83.4416 152.49L80.5807 152.878C77.3995 153.346 74.1186 153.976 70.5466 154.803C69.5028 155.046 68.4924 155.287 67.5401 155.54C66.8207 155.722 66.1138 155.92 65.4069 156.118L64.3673 156.41C63.3402 156.706 62.3131 157.004 61.2693 157.333C60.2422 157.657 59.2192 157.992 58.2628 158.323C57.2274 158.656 56.167 159.025 55.2023 159.395C52.7738 160.281 50.4659 161.212 48.1955 162.223C47.5052 162.517 46.8191 162.809 46.3159 163.064C44.453 163.891 42.5942 164.787 40.8186 165.716C40.1158 166.059 39.413 166.433 38.5564 166.888C36.0905 168.231 33.9781 169.46 32.1235 170.632C31.429 171.055 30.7346 171.486 30.2896 171.812C29.0754 172.547 27.8944 173.335 26.6719 174.185L24.0479 176.045C23.7278 176.292 23.4034 176.535 23.05 176.778L22.4096 177.262C21.869 177.68 21.3409 178.093 20.9043 178.452C19.8065 179.281 18.7087 180.142 17.8229 180.92C17.2283 181.378 16.6503 181.88 16.0722 182.384L15.5525 182.831C14.1428 184.069 12.7664 185.334 11.3234 186.69L10.7329 187.268C10.2506 187.731 9.76823 188.199 9.36067 188.617C8.59556 189.369 7.83456 190.149 6.99874 191.031C6.99874 191.031 2.90277 195.58 2.6699 195.831C0.964969 197.723 -1.37201 200.318 1.02319 202.697L1.39328 203.154C1.65526 203.481 1.92139 203.816 2.22911 204.161L5.15659 207.417C5.20418 207.528 5.27024 207.63 5.35203 207.719L9.13197 211.825C9.25223 211.949 9.40703 212.035 9.57691 212.072C33.4966 235.623 65.9492 248.9 99.8214 248.994H100.62C126.988 248.761 152.643 240.553 174.089 225.488C195.383 210.332 211.451 189.148 220.139 164.773C231.507 166.487 243.058 166.698 254.483 165.398C258.915 177.805 265.32 189.446 273.461 199.886C288.972 219.726 310.137 234.594 334.269 242.601C357.336 250.147 382.123 251.039 405.691 245.171C429.258 239.303 450.618 226.921 467.236 209.494C469.482 207.125 471.457 204.906 473.274 202.709L474.763 200.902C474.916 200.717 475 200.485 475 200.246C475 200.007 474.916 199.775 474.763 199.589ZM384.889 199.779C385.141 199.855 385.414 199.835 385.653 199.725C385.892 199.614 386.08 199.42 386.182 199.18C386.283 198.94 386.289 198.672 386.2 198.427C386.111 198.183 385.933 197.98 385.699 197.858C362.955 185.772 336.546 182.109 311.282 187.537C332.621 172.832 358.581 166.038 384.542 168.364C410.504 170.69 434.783 181.985 453.061 200.239C434.025 219.235 408.517 230.662 381.43 232.327C354.343 233.992 327.583 225.778 306.283 209.261C318.097 202.658 331.127 198.42 344.619 196.792C358.111 195.165 371.798 196.18 384.889 199.779ZM350.112 41.374C350.112 90.6702 314.995 134.736 266.455 146.567C264.875 139.179 264.078 131.65 264.076 124.1C264.038 95.9069 275.244 68.8194 295.293 48.6382C297.276 46.6252 299.418 44.6284 301.651 42.7051C305.641 39.2615 309.878 36.1044 314.33 33.2583C315.648 32.4172 316.974 31.6046 318.326 30.8205C327.49 25.4678 337.399 21.456 347.742 18.9115C349.319 26.2987 350.113 33.8262 350.112 41.374ZM210.255 124.1C210.256 131.209 209.547 138.3 208.138 145.273C207.706 145.144 207.269 145.009 206.828 144.872C205.377 144.427 203.942 143.948 202.595 143.496L201.876 143.235C200.561 142.765 199.235 142.243 197.929 141.712C196.698 141.22 195.463 140.695 194.07 140.064C193.375 139.787 192.698 139.469 192.041 139.113C191.317 138.799 190.594 138.455 189.471 137.892C189.27 137.799 189.074 137.695 188.885 137.58L188.498 137.373C187.434 136.875 186.398 136.297 185.267 135.642C183.978 134.944 182.685 134.186 181.4 133.368L180.647 132.902C180.61 132.878 180.571 132.857 180.531 132.839C179.508 132.19 178.497 131.522 177.466 130.828L177.121 130.605C176.036 129.856 174.978 129.107 173.948 128.359L173.274 127.835C172.335 127.179 171.457 126.495 170.418 125.632C169.985 125.315 169.578 124.985 169.104 124.591C168.546 124.139 168.006 123.694 167.374 123.139C166.7 122.584 166.06 122.002 165.191 121.205C164.883 120.956 164.596 120.677 164.226 120.319L163.985 120.087C163.511 119.666 163.024 119.215 162.446 118.625C161.818 118.037 161.186 117.42 160.591 116.797L158.712 114.829C158.234 114.313 157.735 113.778 157.152 113.137C156.969 112.951 156.799 112.751 156.516 112.41C155.739 111.534 154.99 110.666 154.1 109.574C153.892 109.339 153.697 109.111 153.368 108.692C152.819 108.059 152.308 107.396 151.634 106.479C151.273 106.048 150.961 105.623 150.528 105.013C149.996 104.327 149.489 103.618 148.869 102.726C148.632 102.418 148.424 102.112 148.129 101.681L147.888 101.324C147.376 100.564 146.856 99.8006 146.357 98.9676L146.108 98.6021C145.971 98.4238 145.851 98.233 145.75 98.0325L145.547 97.6915C145.131 97.0729 144.765 96.4441 144.32 95.6866L143.983 95.1129C143.706 94.6943 143.452 94.2615 143.222 93.8164C142.577 92.6609 141.937 91.5012 141.297 90.2292C140.715 89.141 140.161 88.0263 139.504 86.6379C139.392 86.4317 139.301 86.2214 139.134 85.8478C138.565 84.6595 138.041 83.4447 137.542 82.2218L137.309 81.6603C137.29 81.6152 137.268 81.5715 137.242 81.5297C136.831 80.5313 136.423 79.4921 135.941 78.1854C135.866 78.0302 135.812 77.8567 135.662 77.4259C135.325 76.5541 135.009 75.6537 134.681 74.5471C134.099 72.922 133.554 71.1294 132.913 68.7182C132.523 67.3564 132.19 65.9762 131.878 64.5062C131.633 63.4547 131.392 62.3951 131.163 60.972C130.959 60.1451 130.83 59.3203 130.685 58.3812C130.493 57.2909 130.331 56.1823 130.186 55.0349C129.584 50.5052 129.282 45.9421 129.279 41.374C129.279 40.5206 129.304 39.6447 129.325 38.7137L129.341 38.136C129.366 37.1641 129.396 36.2127 129.479 35.2L129.487 34.8182C129.508 34.2017 129.558 33.6075 129.616 32.8664L129.766 31.1187C129.811 30.5858 129.878 30.0509 129.949 29.4854L129.994 29.1342C130.198 27.1844 130.493 25.1264 130.893 22.8418C131.042 21.9904 131.196 21.137 131.396 20.1794C154.144 26.9193 174.086 40.656 188.283 59.3656C202.481 78.0751 210.183 100.768 210.255 124.1ZM156.816 183.472C157.298 183.75 157.751 184.032 158.234 184.328L158.795 184.675C158.844 184.706 158.895 184.733 158.949 184.754C159 184.802 159.056 184.844 159.115 184.881C160.388 185.661 161.673 186.496 162.995 187.405C137.907 182.166 111.739 185.871 89.1802 197.858C88.9534 197.981 88.7814 198.182 88.6976 198.422C88.6138 198.663 88.6242 198.925 88.7269 199.158C88.8314 199.399 89.022 199.593 89.2626 199.705C89.5032 199.817 89.7771 199.838 90.0326 199.765C103.063 196.191 116.684 195.176 130.114 196.779C143.545 198.381 156.522 202.57 168.301 209.106C146.99 225.696 120.186 233.967 93.0412 232.33C65.8963 230.693 40.325 219.263 21.2411 200.237C21.711 199.765 22.1892 199.301 22.6882 198.832C24.8173 196.766 27.1127 194.726 29.5038 192.774C30.7928 191.733 32.1069 190.688 33.4958 189.689C35.8702 187.931 38.2488 186.312 40.6065 184.853C41.1554 184.481 41.7293 184.144 42.4653 183.709L42.9435 183.421C43.7378 182.944 44.5237 182.484 45.397 182.011C45.8959 181.723 46.3825 181.463 47.027 181.127C47.3222 180.961 47.605 180.814 48.0624 180.573L48.7402 180.23C49.5386 179.826 50.3412 179.428 51.2228 179.001C52.0544 178.579 52.8903 178.185 53.7469 177.813L54.8447 177.333C55.3686 177.096 55.8926 176.861 56.5122 176.614C57.4062 176.233 58.3044 175.873 59.2609 175.502C60.1549 175.146 61.049 174.82 61.9846 174.481C63.7768 173.832 65.6273 173.227 67.6649 172.625C68.2346 172.439 68.8209 172.272 69.4114 172.108L70.5882 171.77C71.4656 171.545 72.3514 171.318 73.2412 171.11L75.7487 170.516C76.8257 170.273 77.9028 170.055 79.0047 169.863L81.7991 169.36C85.801 168.721 89.8348 168.292 93.8833 168.076C94.4031 168.037 94.927 168.017 95.5258 167.992L96.0456 167.97C98.5032 167.915 101.044 167.917 103.377 167.964L103.755 167.982C104.425 168.007 105.111 168.033 105.83 168.08C107.81 168.193 109.81 168.329 111.785 168.552C112.77 168.658 113.723 168.766 114.721 168.911L117.648 169.324C118.638 169.489 119.594 169.656 120.676 169.869C121.179 169.957 121.686 170.061 122.439 170.214L123.528 170.438C125.437 170.855 127.35 171.292 129.246 171.823C131.059 172.321 132.897 172.878 134.689 173.466L137.662 174.481C139.492 175.149 141.326 175.837 143.176 176.631C146.805 178.134 150.344 179.839 153.776 181.737C154.612 182.198 155.439 182.662 156.267 183.144L156.94 182.321L156.575 183.327C156.579 183.331 156.811 183.47 156.816 183.472Z" fill="white" fill-opacity="0.08"/>
</svg>
