<svg width="52" height="24" viewBox="0 0 52 24" fill="none" xmlns="http://www.w3.org/2000/svg">
<path d="M12.7619 11.2381H17V12.7619H12.7619V17H11.2381V12.7619H7V11.2381H11.2381V7H12.7619V11.2381Z" fill="white"/>
<path d="M39.9991 13.2999C39.8691 13.2999 39.7391 13.2699 39.6191 13.1999L30.7891 8.08986C30.4391 7.87986 30.3091 7.41986 30.5191 7.05986C30.7291 6.69986 31.1891 6.57986 31.5491 6.78986L39.9991 11.6799L48.3991 6.81986C48.7591 6.60986 49.2191 6.73986 49.4291 7.08986C49.6391 7.44986 49.5091 7.90986 49.1591 8.11986L40.3891 13.1999C40.2591 13.2599 40.1291 13.2999 39.9991 13.2999Z" fill="white"/>
<path d="M40 22.36C39.59 22.36 39.25 22.02 39.25 21.61V12.54C39.25 12.13 39.59 11.79 40 11.79C40.41 11.79 40.75 12.13 40.75 12.54V21.61C40.75 22.02 40.41 22.36 40 22.36Z" fill="white"/>
<path d="M40.0006 22.75C39.1206 22.75 38.2506 22.56 37.5606 22.18L32.2206 19.21C30.7706 18.41 29.6406 16.48 29.6406 14.82V9.17C29.6406 7.51 30.7706 5.59 32.2206 4.78L37.5606 1.82C38.9306 1.06 41.0706 1.06 42.4406 1.82L47.7806 4.79C49.2306 5.59 50.3606 7.52 50.3606 9.18V14.83C50.3606 16.49 49.2306 18.41 47.7806 19.22L42.4406 22.18C41.7506 22.56 40.8806 22.75 40.0006 22.75ZM40.0006 2.75C39.3706 2.75 38.7506 2.88 38.2906 3.13L32.9506 6.1C31.9906 6.63 31.1406 8.07 31.1406 9.17V14.82C31.1406 15.92 31.9906 17.36 32.9506 17.9L38.2906 20.87C39.2006 21.38 40.8006 21.38 41.7106 20.87L47.0506 17.9C48.0106 17.36 48.8606 15.93 48.8606 14.82V9.17C48.8606 8.07 48.0106 6.63 47.0506 6.09L41.7106 3.12C41.2506 2.88 40.6306 2.75 40.0006 2.75Z" fill="white"/>
</svg>
