<svg width="422" height="225" viewBox="0 0 422 225" fill="none" xmlns="http://www.w3.org/2000/svg">
<path opacity="0.5" d="M421.789 180.352L420.467 178.714V178.712C418.579 176.382 416.817 174.361 415.088 172.535C404.773 161.53 392.353 152.704 378.562 146.578C364.771 140.453 349.89 137.153 334.8 136.874C319.709 136.595 304.716 139.343 290.708 144.954C276.699 150.565 263.96 158.926 253.245 169.543C248.137 162.525 243.997 154.854 240.936 146.734C269.742 139.357 294.48 120.945 309.794 95.485C325.108 70.0247 329.766 39.5648 322.758 10.6999C322.404 9.20739 322.019 7.71303 321.602 6.31279C321.269 5.11176 320.907 3.94213 320.486 2.77246L319.773 0.772598C319.697 0.569416 319.555 0.397791 319.369 0.285596C319.184 0.173401 318.965 0.127229 318.75 0.154569L316.652 0.44974C315.307 0.639775 313.976 0.850089 312.658 1.08069C311.309 1.31314 309.983 1.58434 308.694 1.87399C294.63 4.92052 281.286 10.6436 269.389 18.7307C266.77 20.5147 264.225 22.4002 261.816 24.3392C245.658 37.3483 233.398 54.5495 226.38 74.0572C219.362 93.5648 217.858 114.626 222.031 134.931C214.519 135.633 206.95 135.462 199.477 134.422C205.047 106.691 199.999 77.8831 185.33 53.6905C170.662 29.4979 147.441 11.6811 120.255 3.76131C120.119 3.5619 119.912 3.42201 119.675 3.37019L112.83 1.87215C112.83 1.87215 110.403 1.35558 109.797 1.24488L107.425 0.0955222C107.305 0.0370981 107.174 0.00470531 107.04 0.000475481C106.907 -0.00375435 106.774 0.0202765 106.65 0.070982C106.527 0.121687 106.416 0.197924 106.324 0.294681C106.232 0.391439 106.161 0.506526 106.117 0.632383L105.138 3.44398L104.107 7.10793C103.705 8.50266 103.354 9.89923 102.995 11.3383C102.523 13.3086 102.09 15.4136 101.665 17.8618C101.562 18.4447 101.459 19.0204 101.385 19.5222C101.248 20.3653 101.115 21.2342 101.019 22.0054C100.827 23.2802 100.69 24.5513 100.553 25.8464C100.42 27.1102 100.313 28.4108 100.225 29.7373C100.173 30.5214 100.121 31.2944 100.103 31.9419C100.066 32.4327 100.047 32.9234 100.036 33.4012L100.01 34.1613C99.9845 35.2277 99.9661 36.3198 99.9661 37.3862C99.9661 39.0023 99.9882 40.5963 100.073 42.2751C100.121 43.6662 100.21 45.0885 100.343 46.4686L100.395 47.2803C100.531 48.5736 100.664 49.8447 100.812 51.007C100.827 51.2284 100.856 51.4442 100.886 51.6693L100.927 51.9571C101.06 53.112 101.248 54.2669 101.414 55.1709C101.477 55.7629 101.572 56.3511 101.699 56.9327C101.715 57.0564 101.738 57.179 101.769 57.2999C101.906 58.1411 102.079 58.9824 102.268 59.8698C102.382 60.4435 102.497 61.0155 102.619 61.5099L102.777 62.2091C103.025 63.3142 103.28 64.4156 103.55 65.3712C103.912 66.849 104.318 68.2751 104.732 69.5333C104.822 69.9443 104.941 70.3487 105.086 70.7435C105.419 71.8135 105.751 72.8891 106.102 73.8226C106.494 75.0162 106.93 76.1693 107.381 77.3408L108.319 79.7281C109.276 82.0139 110.233 84.1632 111.267 86.3235C111.529 86.829 111.769 87.3142 112.039 87.8769C112.479 88.7477 112.911 89.5908 113.399 90.4764C113.779 91.1793 114.16 91.8877 114.507 92.4615C115.686 94.572 116.883 96.5534 118.153 98.5127C118.353 98.8189 118.552 99.1197 118.756 99.4204L119.472 100.477C120.363 101.798 121.283 103.092 122.195 104.315C123.115 105.588 124.087 106.829 125.084 108.073C126.074 109.303 127.072 110.477 128.106 111.667C129.129 112.859 130.208 114.021 131.257 115.113C132.277 116.214 133.322 117.266 134.335 118.222C134.482 118.397 134.645 118.558 134.822 118.703C135.89 119.744 136.961 120.734 138.055 121.699C139.215 122.747 140.423 123.765 141.657 124.791C142.61 125.572 143.615 126.359 144.468 126.998C144.997 127.448 145.562 127.848 146.12 128.241C147.306 129.154 148.473 129.981 149.452 130.603C150.424 131.293 151.388 131.929 152.245 132.462C152.821 132.857 153.398 133.228 153.756 133.418C154.395 133.842 155.038 134.243 155.496 134.482C156.346 135.017 157.221 135.497 157.857 135.835C158.356 136.155 158.873 136.446 159.405 136.709C160.328 137.22 161.278 137.709 162.205 138.185C163.524 138.871 164.891 139.528 166.143 140.076C166.915 140.449 167.717 140.79 168.371 141.054C169.235 141.443 170.107 141.81 170.746 142.048C171.131 142.225 171.507 142.366 171.762 142.454C172.944 142.934 174.16 143.369 175.287 143.773C175.551 143.89 175.826 143.984 176.107 144.052C177.33 144.491 178.564 144.886 180.012 145.341C180.307 145.434 180.607 145.52 180.902 145.607C177.782 154.128 173.505 162.18 168.19 169.537C168.083 169.432 167.976 169.329 167.868 169.229L167.311 168.668C163.74 165.196 159.94 161.968 155.936 159.007L153.671 157.379C152.614 156.627 151.565 155.913 150.693 155.385C150.08 154.948 149.467 154.564 148.89 154.212C145.671 152.167 142.341 150.301 138.916 148.623C138.062 148.184 137.179 147.773 136.101 147.271C135.502 146.983 134.918 146.71 134.457 146.533L134.117 146.382C133.053 145.91 131.996 145.447 131.084 145.111C130.171 144.722 129.255 144.36 128.387 144.046C127.437 143.685 126.521 143.355 125.771 143.117C124.947 142.803 124.112 142.53 123.27 142.261L121.888 141.833C121.29 141.648 120.695 141.465 120.211 141.342C119.391 141.093 118.538 140.851 117.758 140.65L116.059 140.216C115.685 140.124 115.312 140.034 115.024 139.971C112.143 139.259 109.102 138.656 105.711 138.128L103.28 137.798C102.6 137.7 101.902 137.628 101.034 137.541C100.45 137.458 99.8515 137.403 99.2456 137.349L97.4871 137.204C96.6263 137.13 95.747 137.08 94.8973 137.036L93.5969 136.964C90.3838 136.798 87.1642 136.796 83.9509 136.958C83.5519 136.958 83.1492 136.986 82.5766 137.028L82.2035 137.051C81.4424 137.095 80.6814 137.139 79.9869 137.196C79.4807 137.228 79.0005 137.261 78.7419 137.307C77.9623 137.359 77.1754 137.44 76.4624 137.525C75.6681 137.606 74.8997 137.689 74.1313 137.792L71.5896 138.143C68.7634 138.565 65.8485 139.135 62.6751 139.882C61.7478 140.102 60.8501 140.32 60.004 140.548C59.3649 140.713 58.7369 140.892 58.1088 141.071L57.1852 141.334C56.2727 141.602 55.3602 141.871 54.4329 142.168C53.5204 142.462 52.6116 142.764 51.7619 143.063C50.842 143.364 49.9 143.698 49.0429 144.032C46.8854 144.832 44.835 145.674 42.8179 146.587C42.2046 146.852 41.595 147.116 41.148 147.347C39.4929 148.094 37.8416 148.904 36.2641 149.743C35.6397 150.053 35.0154 150.391 34.2543 150.802C32.0636 152.016 30.1869 153.127 28.5392 154.186C27.9222 154.568 27.3052 154.957 26.9099 155.252C25.8312 155.916 24.782 156.628 23.6958 157.396L21.3647 159.077C21.0802 159.3 20.7921 159.519 20.4781 159.739L19.9092 160.176C19.4289 160.554 18.9597 160.927 18.5718 161.252C17.5965 162.001 16.6212 162.779 15.8342 163.482C15.306 163.896 14.7924 164.349 14.2789 164.805L13.8171 165.209C12.5647 166.327 11.3419 167.471 10.06 168.696L9.53536 169.218C9.10681 169.637 8.6783 170.059 8.31622 170.437C7.63648 171.116 6.96039 171.821 6.21783 172.618C6.21783 172.618 2.57888 176.729 2.37199 176.956C0.857299 178.666 -1.21893 181.011 0.909019 183.16L1.23782 183.573C1.47057 183.868 1.707 184.171 1.98038 184.483L4.58122 187.425C4.62351 187.525 4.68219 187.618 4.75485 187.698L8.11303 191.408C8.21987 191.52 8.35741 191.598 8.50833 191.632C29.7591 212.912 58.5906 224.91 88.6834 224.994H89.3927C112.819 224.784 135.611 217.368 154.665 203.754C173.582 190.059 187.857 170.916 195.576 148.891C205.676 150.44 215.938 150.63 226.088 149.456C230.025 160.668 235.716 171.186 242.949 180.619C256.729 198.548 275.532 211.983 296.972 219.218C317.465 226.037 339.486 226.842 360.424 221.54C381.362 216.237 400.338 205.049 415.103 189.301C417.097 187.161 418.852 185.156 420.467 183.171L421.789 181.538C421.926 181.37 422 181.161 422 180.945C422 180.729 421.926 180.52 421.789 180.352ZM341.943 180.523C342.168 180.592 342.41 180.574 342.622 180.474C342.834 180.374 343.002 180.198 343.092 179.982C343.182 179.765 343.188 179.523 343.108 179.302C343.029 179.081 342.871 178.898 342.664 178.787C322.457 167.866 298.994 164.556 276.549 169.461C295.507 156.174 318.571 150.035 341.636 152.136C364.7 154.238 386.271 164.444 402.509 180.938C385.597 198.104 362.935 208.429 338.87 209.934C314.805 211.438 291.031 204.016 272.109 189.091C282.604 183.124 294.18 179.295 306.167 177.825C318.154 176.354 330.314 177.271 341.943 180.523ZM311.047 37.3861C311.047 81.9309 279.848 121.749 236.724 132.44C235.321 125.764 234.613 118.961 234.611 112.139C234.577 86.6629 244.532 62.1862 262.344 43.9502C264.107 42.1312 266.009 40.3269 267.993 38.589C271.538 35.4773 275.302 32.6245 279.257 30.0527C280.428 29.2926 281.607 28.5583 282.807 27.8499C290.949 23.0131 299.753 19.3879 308.941 17.0887C310.342 23.7638 311.048 30.5659 311.047 37.3861ZM186.795 112.139C186.796 118.562 186.166 124.97 184.914 131.27C184.53 131.154 184.142 131.032 183.75 130.909C182.461 130.507 181.187 130.073 179.99 129.665L179.35 129.429C178.183 129.005 177.005 128.533 175.844 128.053C174.751 127.608 173.654 127.134 172.416 126.564C171.799 126.313 171.197 126.026 170.613 125.704C169.97 125.42 169.328 125.11 168.33 124.601C168.151 124.517 167.977 124.423 167.809 124.319L167.466 124.133C166.52 123.682 165.6 123.16 164.595 122.568C163.45 121.937 162.301 121.253 161.159 120.513L160.491 120.092C160.458 120.07 160.423 120.051 160.387 120.035C159.478 119.448 158.581 118.845 157.665 118.218L157.358 118.017C156.394 117.34 155.454 116.663 154.539 115.987L153.941 115.513C153.106 114.921 152.326 114.303 151.403 113.523C151.018 113.237 150.656 112.938 150.235 112.582C149.74 112.174 149.26 111.772 148.698 111.27C148.1 110.768 147.531 110.242 146.759 109.523C146.485 109.298 146.23 109.045 145.902 108.722L145.687 108.512C145.266 108.132 144.834 107.724 144.32 107.191C143.763 106.66 143.201 106.103 142.673 105.54L141.003 103.761C140.578 103.295 140.135 102.811 139.618 102.232C139.455 102.064 139.304 101.883 139.052 101.575C138.361 100.784 137.696 99.9997 136.906 99.0127C136.721 98.8005 136.548 98.5939 136.256 98.2157C135.768 97.6438 135.314 97.0442 134.715 96.2158C134.394 95.8266 134.117 95.4428 133.732 94.8912C133.26 94.2713 132.809 93.6312 132.258 92.8249C132.048 92.5464 131.863 92.2696 131.601 91.8804L131.387 91.5575C130.932 90.8712 130.47 90.1812 130.027 89.4285L129.805 89.0983C129.683 88.9371 129.577 88.7648 129.488 88.5836L129.307 88.2755C128.937 87.7165 128.612 87.1483 128.217 86.4638L127.918 85.9454C127.672 85.5671 127.446 85.1761 127.241 84.7739C126.669 83.7297 126.1 82.6818 125.531 81.5324C125.014 80.5491 124.522 79.5418 123.939 78.2873C123.839 78.1009 123.758 77.9109 123.61 77.5733C123.104 76.4996 122.638 75.4019 122.195 74.2968L121.988 73.7895C121.971 73.7487 121.952 73.7092 121.929 73.6714C121.563 72.7692 121.201 71.8302 120.773 70.6495C120.706 70.5092 120.658 70.3524 120.525 69.9632C120.226 69.1754 119.945 68.3618 119.653 67.3619C119.136 65.8933 118.652 64.2735 118.083 62.0947C117.736 60.8642 117.44 59.617 117.163 58.2887C116.945 57.3386 116.731 56.3811 116.528 55.0952C116.347 54.348 116.232 53.6027 116.103 52.7541C115.933 51.7689 115.789 50.7671 115.66 49.7303C115.125 45.6372 114.856 41.5139 114.854 37.3862C114.854 36.615 114.876 35.8236 114.895 34.9823L114.91 34.4602C114.932 33.582 114.958 32.7223 115.032 31.8072L115.039 31.4623C115.057 30.9051 115.102 30.3682 115.154 29.6985L115.287 28.1193C115.327 27.6378 115.386 27.1545 115.449 26.6434L115.49 26.3261C115.671 24.5642 115.933 22.7046 116.288 20.6402C116.421 19.8709 116.557 19.0997 116.735 18.2344C136.945 24.3247 154.662 36.7374 167.275 53.6436C179.888 70.5498 186.731 91.0554 186.795 112.139ZM139.318 165.788C139.747 166.039 140.15 166.294 140.578 166.561L141.077 166.875C141.12 166.903 141.166 166.927 141.214 166.947C141.259 166.99 141.309 167.028 141.361 167.061C142.492 167.766 143.633 168.521 144.808 169.341C122.519 164.608 99.2709 167.956 79.2295 178.787C79.0281 178.898 78.8753 179.08 78.8008 179.297C78.7263 179.514 78.7356 179.752 78.8269 179.962C78.9197 180.18 79.089 180.355 79.3028 180.456C79.5165 180.557 79.7599 180.577 79.9869 180.51C91.5635 177.281 103.664 176.364 115.596 177.812C127.528 179.26 139.057 183.046 149.522 188.951C130.589 203.942 106.776 211.416 82.6597 209.937C58.5436 208.458 35.8256 198.129 18.8711 180.937C19.2885 180.51 19.7134 180.092 20.1567 179.667C22.0482 177.8 24.0875 175.957 26.2118 174.194C27.357 173.253 28.5244 172.308 29.7583 171.406C31.8678 169.818 33.981 168.355 36.0757 167.035C36.5634 166.7 37.0732 166.395 37.7271 166.002L38.1519 165.742C38.8576 165.311 39.5558 164.895 40.3316 164.467C40.7749 164.207 41.2072 163.973 41.7798 163.669C42.0421 163.519 42.2933 163.386 42.6997 163.169L43.3018 162.859C44.0111 162.493 44.7242 162.134 45.5074 161.748C46.2463 161.366 46.9888 161.01 47.7499 160.674L48.7252 160.241C49.1907 160.027 49.6561 159.815 50.2066 159.591C51.0009 159.246 51.7989 158.922 52.6486 158.586C53.4429 158.265 54.2372 157.97 55.0684 157.663C56.6607 157.077 58.3047 156.531 60.1149 155.986C60.6211 155.819 61.142 155.667 61.6666 155.52L62.7121 155.213C63.4916 155.011 64.2785 154.806 65.0691 154.618L67.2968 154.081C68.2536 153.861 69.2104 153.664 70.1895 153.49L72.6721 153.037C76.2274 152.459 79.8111 152.071 83.4079 151.876C83.8697 151.841 84.3352 151.823 84.8671 151.8L85.3289 151.78C87.5123 151.73 89.7696 151.732 91.8421 151.775L92.1783 151.791C92.7731 151.813 93.3827 151.837 94.0218 151.88C95.7803 151.981 97.5573 152.105 99.3121 152.306C100.188 152.402 101.034 152.5 101.92 152.631L104.521 153.003C105.4 153.153 106.25 153.304 107.211 153.496C107.658 153.575 108.108 153.669 108.777 153.808L109.745 154.011C111.441 154.387 113.14 154.782 114.825 155.261C116.435 155.712 118.068 156.215 119.661 156.747L122.302 157.663C123.928 158.267 125.557 158.888 127.201 159.606C130.425 160.965 133.569 162.505 136.618 164.22C137.36 164.637 138.096 165.056 138.831 165.491L139.429 164.748L139.104 165.657C139.108 165.661 139.315 165.786 139.318 165.788Z" fill="#F4F4F4"/>
</svg>
